<?xml version="1.0" encoding="utf-8"?>
<!-- Generator: Adobe Illustrator 16.0.0, SVG Export Plug-In . SVG Version: 6.00 Build 0)  -->
<!DOCTYPE svg PUBLIC "-//W3C//DTD SVG 1.1//EN" "http://www.w3.org/Graphics/SVG/1.1/DTD/svg11.dtd">
<svg version="1.1"
	 id="Layer_1" xmlns:cc="http://creativecommons.org/ns#" xmlns:svg="http://www.w3.org/2000/svg" xmlns:sodipodi="http://sodipodi.sourceforge.net/DTD/sodipodi-0.dtd" xmlns:dc="http://purl.org/dc/elements/1.1/" xmlns:inkscape="http://www.inkscape.org/namespaces/inkscape" xmlns:rdf="http://www.w3.org/1999/02/22-rdf-syntax-ns#"
	 xmlns="http://www.w3.org/2000/svg" xmlns:xlink="http://www.w3.org/1999/xlink" x="0px" y="0px" width="500px" height="500px"
	 viewBox="0 0 500 500" enable-background="new 0 0 500 500" xml:space="preserve">
<g transform="translate(0,-952.36218)">
	<path fill="#D56D6A" d="M250,1000.362c-9.457,0-18.172,4.879-23,13L77.625,1264.987c-4.829,8.144-4.842,18.239,0,26.375
		c4.842,8.137,13.648,13.023,23.125,13h298.5c9.477,0.04,18.283-4.863,23.125-13s4.829-18.231,0-26.375L273,1013.362
		C268.172,1005.242,259.457,1000.362,250,1000.362L250,1000.362z M250,1016.362c3.584,0,7.547,2.261,9.25,5.125l149.375,251.625
		c1.702,2.871,1.707,7.132,0,10s-5.785,5.259-9.375,5.25h-298.5c-3.59,0-7.668-2.382-9.375-5.25s-1.702-7.129,0-10l149.375-251.625
		C242.453,1018.623,246.417,1016.362,250,1016.362z M250,1088.362c-4.418,0-8,3.581-8,8v112c0,4.418,3.582,8,8,8
		c4.418,0,8-3.582,8-8v-112C258,1091.943,254.418,1088.362,250,1088.362z M250,1232.362c-4.418,0-8,3.582-8,8s3.582,8,8,8
		c4.418,0,8-3.582,8-8S254.418,1232.362,250,1232.362z"/>
</g>
</svg>
