<?xml version="1.0" encoding="utf-8"?>
<!-- Generator: Adobe Illustrator 16.0.0, SVG Export Plug-In . SVG Version: 6.00 Build 0)  -->
<!DOCTYPE svg PUBLIC "-//W3C//DTD SVG 1.1//EN" "http://www.w3.org/Graphics/SVG/1.1/DTD/svg11.dtd">
<svg version="1.1"
	 id="Layer_1" xmlns:sodipodi="http://sodipodi.sourceforge.net/DTD/sodipodi-0.dtd" xmlns:inkscape="http://www.inkscape.org/namespaces/inkscape" xmlns:rdf="http://www.w3.org/1999/02/22-rdf-syntax-ns#" xmlns:dc="http://purl.org/dc/elements/1.1/" xmlns:svg="http://www.w3.org/2000/svg" xmlns:cc="http://creativecommons.org/ns#"
	 xmlns="http://www.w3.org/2000/svg" xmlns:xlink="http://www.w3.org/1999/xlink" x="0px" y="0px" width="50px" height="50px"
	 viewBox="450 450 100 100" enable-background="new 450 450 100 100" xml:space="preserve">
<g transform="translate(0,-1020.3622)">
	<path fill="#FFFFFF" d="M500.039,1518.211c-0.926,0.015-1.667,0.775-1.655,1.702v17.657c-2.766,0-5.045,2.279-5.045,5.045v11.771
		h-13.453c-0.929,0-1.682,0.753-1.682,1.683v6.726c0,0.929,0.752,1.682,1.682,1.682h40.357c0.931,0,1.683-0.753,1.683-1.682v-6.726
		c0-0.93-0.752-1.683-1.683-1.683h-13.451v-11.771c0-2.766-2.279-5.045-5.046-5.045v-17.657c0.012-0.928-0.732-1.69-1.661-1.702
		C500.069,1518.211,500.055,1518.211,500.039,1518.211z M498.383,1540.932h3.363c0.949,0,1.683,0.733,1.683,1.682v11.771h-6.728
		v-11.771C496.701,1541.666,497.435,1540.932,498.383,1540.932z M481.567,1557.75h36.996v3.362h-36.996V1557.75z"/>
	<path fill="#FFFFFF" d="M500.039,1471.986c-0.928,0.014-1.668,0.737-1.655,1.616v3.666c-2.345,0.614-4.188,2.462-4.802,4.808
		h-27.149c-0.734,0-1.382,0.477-1.604,1.176l-11.77,36.997c-0.053,0.163-0.079,0.334-0.08,0.505v2.522
		c0,6.945,5.667,12.611,12.612,12.611c6.945,0,12.613-5.666,12.613-12.611v-2.522c0-0.149-0.021-0.297-0.06-0.441l-9.511-34.874
		h24.949c0.616,2.343,2.464,4.191,4.802,4.809v17.894c-0.013,0.929,0.729,1.692,1.658,1.705c0.929,0.013,1.692-0.729,1.705-1.657
		c0-0.016,0-0.032,0-0.048v-17.894c2.339-0.617,4.187-2.465,4.803-4.809h24.948l-9.512,34.874c-0.039,0.144-0.059,0.292-0.06,0.441
		v2.522c0,6.945,5.667,12.611,12.612,12.611s12.612-5.666,12.612-12.611v-2.522c0-0.171-0.027-0.343-0.079-0.505l-11.771-36.997
		c-0.221-0.699-0.869-1.175-1.604-1.176h-27.148c-0.614-2.346-2.457-4.194-4.803-4.808v-3.666c0.014-0.879-0.728-1.603-1.656-1.616
		C500.072,1471.986,500.056,1471.986,500.039,1471.986z M500.065,1480.394c1.877,0,3.364,1.486,3.364,3.364
		s-1.486,3.363-3.364,3.363s-3.364-1.485-3.364-3.363S498.188,1480.394,500.065,1480.394z M466.308,1489.696l8.467,31.058h-18.348
		L466.308,1489.696z M533.822,1489.696l9.88,31.058h-18.348L533.822,1489.696z M456.428,1524.117h18.328
		c-0.429,4.723-4.324,8.408-9.164,8.408C460.753,1532.525,456.857,1528.84,456.428,1524.117z M525.375,1524.117h18.327
		c-0.429,4.723-4.325,8.408-9.164,8.408S525.804,1528.84,525.375,1524.117z"/>
	<path fill="#FFFFFF" d="M501.746,1514.026c0,0.929-0.753,1.683-1.681,1.683c-0.929,0-1.682-0.753-1.682-1.683
		c0-0.927,0.752-1.681,1.682-1.681C500.993,1512.345,501.746,1513.099,501.746,1514.026z"/>
</g>
</svg>
