<?xml version="1.0" encoding="utf-8"?>
<!-- Generator: Adobe Illustrator 16.0.0, SVG Export Plug-In . SVG Version: 6.00 Build 0)  -->
<!DOCTYPE svg PUBLIC "-//W3C//DTD SVG 1.1//EN" "http://www.w3.org/Graphics/SVG/1.1/DTD/svg11.dtd">
<svg version="1.1" id="Layer_1" xmlns="http://www.w3.org/2000/svg" xmlns:xlink="http://www.w3.org/1999/xlink" x="0px" y="0px"
	 width="50px" height="50px" viewBox="450 450 100 100" enable-background="new 450 450 100 100" xml:space="preserve">
<path fill="#FFFFFF" d="M480.484,515.175h51.411c5.669,0,10.15-4.614,10.15-10.15v-21.619h-4.351v21.619
	c0,3.164-2.636,5.801-5.8,5.801h-51.411c-3.164,0-5.8-2.637-5.8-5.801v-12.787v-14.237v-1.845v-14.896l-16.346-7.118l-1.714,4.087
	l13.709,5.932v11.996v1.845v14.237v12.787v16.083c0,5.404,4.218,9.754,9.491,10.149c-1.186,1.582-1.845,3.56-1.845,5.669
	c0,5.536,4.481,10.019,10.018,10.019s10.019-4.482,10.019-10.019c0-2.109-0.659-4.087-1.714-5.669h24.65
	c-1.055,1.582-1.714,3.56-1.714,5.669c0,5.536,4.481,10.019,10.019,10.019c5.536,0,10.019-4.482,10.019-10.019
	c0-5.537-4.482-10.019-10.019-10.019h-48.906c-3.164,0-5.8-2.637-5.8-5.8v-7.777C476.397,514.516,478.375,515.175,480.484,515.175z
	 M493.797,536.926c0,3.163-2.504,5.668-5.667,5.668c-3.164,0-5.669-2.505-5.669-5.668c0-3.164,2.505-5.669,5.669-5.669
	C491.293,531.257,493.797,533.762,493.797,536.926z M535.059,536.926c0,3.163-2.505,5.668-5.668,5.668
	c-3.164,0-5.67-2.505-5.67-5.668c0-3.164,2.506-5.669,5.67-5.669C532.554,531.257,535.059,533.762,535.059,536.926z
	 M519.239,467.456l3.164,3.164l-29.923,29.924l-3.164-3.164L519.239,467.456z M510.803,487.097c-3.032,3.032-3.032,8.042,0,11.073
	c1.45,1.45,3.428,2.241,5.536,2.241c2.109,0,4.087-0.791,5.537-2.241s2.241-3.428,2.241-5.537s-0.791-4.086-2.241-5.537
	C518.713,484.064,513.835,484.064,510.803,487.097z M519.767,492.633c0,0.922-0.396,1.845-1.054,2.373
	c-0.659,0.66-1.45,1.055-2.374,1.055c-0.922,0-1.846-0.396-2.372-1.055l0,0c-1.318-1.318-1.318-3.56,0-4.877
	c0.659-0.659,1.582-1.055,2.372-1.055c0.924,0,1.715,0.396,2.374,1.055C519.371,490.788,519.767,491.71,519.767,492.633z
	 M496.171,482.747c2.109,0,4.086-0.791,5.537-2.241s2.24-3.428,2.24-5.537c0-2.109-0.79-4.087-2.24-5.537
	c-3.033-3.032-8.042-3.032-11.073,0c-3.032,3.032-3.032,8.041,0,11.073C492.084,481.956,494.062,482.747,496.171,482.747z
	 M493.666,472.464c0.66-0.659,1.582-1.055,2.373-1.055c0.923,0,1.714,0.396,2.374,1.055c0.659,0.659,1.054,1.45,1.054,2.373
	c0,0.923-0.396,1.846-1.054,2.373c-0.66,0.659-1.45,1.055-2.374,1.055c-0.922,0-1.846-0.396-2.373-1.055l0,0
	C492.348,476.023,492.348,473.783,493.666,472.464z"/>
</svg>
