<?xml version="1.0" encoding="UTF-8" standalone="no"?>
<svg
   xmlns:dc="http://purl.org/dc/elements/1.1/"
   xmlns:cc="http://creativecommons.org/ns#"
   xmlns:rdf="http://www.w3.org/1999/02/22-rdf-syntax-ns#"
   xmlns:svg="http://www.w3.org/2000/svg"
   xmlns="http://www.w3.org/2000/svg"
   xmlns:sodipodi="http://sodipodi.sourceforge.net/DTD/sodipodi-0.dtd"
   xmlns:inkscape="http://www.inkscape.org/namespaces/inkscape"
   version="1.1"
   x="0px"
   y="0px"
   viewBox="0 0 54 44"
   xml:space="preserve"
   id="svg3388"
   inkscape:version="0.91 r13725"
   sodipodi:docname="chart-header-img-list.svg"
   width="54"
   height="44"><metadata
     id="metadata3400"><rdf:RDF><cc:Work
         rdf:about=""><dc:format>image/svg+xml</dc:format><dc:type
           rdf:resource="http://purl.org/dc/dcmitype/StillImage" /><dc:title></dc:title></cc:Work></rdf:RDF></metadata><defs
     id="defs3398" /><sodipodi:namedview
     pagecolor="#2fcde7"
     bordercolor="#2fcde7"
     borderopacity="1"
     objecttolerance="10"
     gridtolerance="10"
     guidetolerance="10"
     inkscape:pageopacity="0"
     inkscape:pageshadow="2"
     inkscape:window-width="1615"
     inkscape:window-height="1026"
     id="namedview3396"
     showgrid="false"
     inkscape:zoom="6.856"
     inkscape:cx="50"
     inkscape:cy="62.5"
     inkscape:window-x="65"
     inkscape:window-y="24"
     inkscape:window-maximized="1"
     inkscape:current-layer="svg3388" /><path
     d="m 13.246208,37.23804 40,0 0,6 -40,0 0,-6 z m 0,-6 40,0 0,-6 -40,0 0,6 z m -12.0000003,0 6,0 0,-6 -6,0 0,6 z m 0,12 6,0 0,-6 -6,0 0,6 z m 12.0000003,-24 40,0 0,-6 -40,0 0,6 z m -12.0000003,0 6,0 0,-6 -6,0 0,6 z m 12.0000003,-18 0,6 40,0 0,-6 -40,0 z m -12.0000003,6 6,0 0,-6 -6,0 0,6 z"
     id="path3390"
     inkscape:connector-curvature="0" /></svg>