<?xml version="1.0" encoding="utf-8"?>
<!-- Generator: Adobe Illustrator 16.0.0, SVG Export Plug-In . SVG Version: 6.00 Build 0)  -->
<!DOCTYPE svg PUBLIC "-//W3C//DTD SVG 1.1//EN" "http://www.w3.org/Graphics/SVG/1.1/DTD/svg11.dtd">
<svg version="1.1" id="Layer_1" xmlns="http://www.w3.org/2000/svg" xmlns:xlink="http://www.w3.org/1999/xlink" x="0px" y="0px"
	 width="100px" height="100px" viewBox="0 0 100 100" enable-background="new 0 0 100 100" xml:space="preserve">
<g>
	<path fill="#D56D6A" d="M90.082,10.529c-1.063-1.062-2.761-1.062-3.717,0L50.479,46.31L13.636,9.361
		c-1.062-1.062-2.761-1.062-3.716,0c-1.062,1.062-1.062,2.761,0,3.716l36.842,36.948L9.813,86.974c-1.062,1.063-1.062,2.761,0,3.718
		c0.532,0.53,1.168,0.744,1.912,0.744c0.742,0,1.38-0.213,1.911-0.744l36.948-36.95l35.781,35.781
		c0.529,0.531,1.169,0.744,1.909,0.744c0.742,0,1.381-0.212,1.911-0.744c1.063-1.062,1.063-2.761,0-3.716L54.3,50.025l35.782-35.78
		C91.036,13.184,91.036,11.484,90.082,10.529z"/>
</g>
</svg>
