<?xml version="1.0" encoding="utf-8"?>
<!-- Generator: Adobe Illustrator 16.0.0, SVG Export Plug-In . SVG Version: 6.00 Build 0)  -->
<!DOCTYPE svg PUBLIC "-//W3C//DTD SVG 1.1//EN" "http://www.w3.org/Graphics/SVG/1.1/DTD/svg11.dtd">
<svg version="1.1"
	 id="Layer_1" xmlns:sodipodi="http://sodipodi.sourceforge.net/DTD/sodipodi-0.dtd" xmlns:inkscape="http://www.inkscape.org/namespaces/inkscape" xmlns:rdf="http://www.w3.org/1999/02/22-rdf-syntax-ns#" xmlns:dc="http://purl.org/dc/elements/1.1/" xmlns:svg="http://www.w3.org/2000/svg" xmlns:cc="http://creativecommons.org/ns#"
	 xmlns="http://www.w3.org/2000/svg" xmlns:xlink="http://www.w3.org/1999/xlink" x="0px" y="0px" width="50px" height="50px"
	 viewBox="450 450 100 100" enable-background="new 450 450 100 100" xml:space="preserve">
<g transform="translate(0,-952.36218)">
	<path fill="#FFFFFF" d="M493.489,1414.124c-10.396,0-19.764,1.155-26.64,3.088c-3.438,0.967-6.282,2.127-8.323,3.489
		c-1.926,1.285-3.236,2.866-3.38,4.724c-0.001,0.013,0,0.025,0,0.036c-0.024,0.096-0.037,0.193-0.037,0.291v10.284
		c-0.005,0.061-0.005,0.121,0,0.182v10.321c-0.003,0.048-0.003,0.097,0,0.145v10.466v10.465c0,2.005,1.322,3.759,3.344,5.344
		c2.021,1.582,4.843,3.021,8.287,4.286c6.886,2.533,16.309,4.326,26.749,4.326c7.548,0,14.163-0.898,20.061-2.364
		c0.625-0.152,1.006-0.781,0.854-1.405c-0.154-0.625-0.784-1.007-1.408-0.854c-0.009,0.004-0.018,0.006-0.026,0.008
		c-5.721,1.419-12.116,2.289-19.48,2.289c-10.177,0-19.382-1.763-25.95-4.179c-3.283-1.207-5.897-2.565-7.632-3.925
		c-1.734-1.359-2.471-2.63-2.471-3.525v-5.269c0.315,0.328,0.651,0.64,1.018,0.944c2.048,1.703,4.87,3.106,8.322,4.252
		c6.906,2.291,16.31,3.562,26.713,3.562c6.843,0,12.064-0.155,17.663-1.199c0.634-0.117,1.051-0.726,0.934-1.357
		c-0.117-0.633-0.726-1.052-1.358-0.935c-0.004,0.002-0.008,0.002-0.011,0.002c-5.38,1.003-10.416,1.164-17.227,1.164
		c-10.214,0-19.438-1.281-25.987-3.452c-3.272-1.086-5.85-2.396-7.559-3.817c-1.708-1.419-2.508-2.844-2.508-4.359v-5.524
		c0.359,0.393,0.586,0.841,1.018,1.2c2.048,1.702,4.87,3.106,8.322,4.252c6.906,2.291,16.31,3.56,26.713,3.56
		c8.694,0,14.837-0.74,21.225-2.362c0.623-0.154,1.004-0.785,0.848-1.408c-0.154-0.624-0.786-1.004-1.409-0.85
		c-0.007,0.002-0.014,0.004-0.02,0.006c-6.21,1.575-12.082,2.289-20.644,2.289c-10.214,0-19.438-1.281-25.987-3.452
		c-3.272-1.085-5.85-2.395-7.559-3.815c-1.708-1.42-2.508-2.845-2.508-4.361c0.002-0.036,0.002-0.073,0-0.109v-5.161
		c0.315,0.33,0.651,0.64,1.018,0.945c2.048,1.703,4.87,3.106,8.322,4.252c6.906,2.291,16.31,3.562,26.713,3.562
		s19.806-1.271,26.712-3.562c3.453-1.146,6.275-2.549,8.323-4.252c0.366-0.305,0.702-0.615,1.018-0.945v6.432
		c-0.009,0.643,0.504,1.171,1.146,1.18c0.643,0.01,1.17-0.504,1.179-1.146c0-0.011,0-0.022,0-0.034v-11.628
		c0.002-0.037,0.002-0.073,0-0.109v-10.357c0-0.037,0.002-0.072,0-0.108c-0.005-0.074-0.017-0.147-0.036-0.218
		c-0.144-1.858-1.453-3.44-3.379-4.725c-2.042-1.362-4.886-2.522-8.323-3.489C513.252,1415.279,503.886,1414.124,493.489,1414.124
		L493.489,1414.124z M493.489,1416.45c10.221,0,19.445,1.167,26.022,3.016c3.289,0.925,5.918,2.018,7.632,3.162
		c1.598,1.066,2.311,2.087,2.399,2.944c-0.002,0.036-0.002,0.072,0,0.109c0.001,0.025,0,0.049,0,0.073c0,1.517-0.8,2.94-2.508,4.361
		c-1.71,1.42-4.286,2.729-7.56,3.815c-6.547,2.172-15.771,3.452-25.986,3.452c-10.214,0-19.438-1.28-25.987-3.452
		c-3.272-1.086-5.85-2.395-7.559-3.815c-1.708-1.421-2.508-2.844-2.508-4.361c0.002-0.037,0.002-0.073,0-0.109
		c0.055-0.873,0.754-1.919,2.398-3.016c1.715-1.144,4.344-2.236,7.633-3.162C474.044,1417.617,483.268,1416.45,493.489,1416.45z
		 M457.436,1430.95c0.315,0.329,0.651,0.64,1.018,0.945c2.048,1.702,4.87,3.106,8.322,4.251c6.906,2.292,16.31,3.561,26.713,3.561
		s19.806-1.27,26.712-3.561c3.453-1.145,6.275-2.549,8.323-4.251c0.366-0.305,0.702-0.616,1.018-0.945v5.087v0.109
		c-0.001,0.025-0.001,0.049,0,0.074c0,1.516-0.8,2.94-2.508,4.36c-1.71,1.42-4.286,2.729-7.56,3.815
		c-6.547,2.172-15.771,3.452-25.986,3.452c-10.214,0-19.438-1.28-25.987-3.452c-3.272-1.086-5.85-2.395-7.559-3.815
		s-2.508-2.845-2.508-4.36c0.007-0.073,0.007-0.146,0-0.218V1430.95L457.436,1430.95z M534.012,1453.663
		c-0.265,0.037-0.508,0.165-0.689,0.363l-12.793,13.953c-0.436,0.48-0.398,1.22,0.079,1.655c0.479,0.435,1.221,0.398,1.655-0.081
		c0.002-0.004,0.007-0.008,0.01-0.011l10.758-11.737v27.255c-0.009,0.641,0.504,1.169,1.146,1.18c0.643,0.009,1.17-0.505,1.18-1.146
		c0-0.011,0-0.023,0-0.033v-27.255l10.757,11.737c0.429,0.485,1.169,0.529,1.652,0.101c0.486-0.427,0.531-1.168,0.103-1.651
		c-0.003-0.006-0.008-0.009-0.01-0.013l-12.793-13.953C534.8,1453.733,534.402,1453.596,534.012,1453.663L534.012,1453.663z"/>
</g>
</svg>
