<?xml version="1.0" encoding="utf-8"?>
<!-- Generator: Adobe Illustrator 16.0.0, SVG Export Plug-In . SVG Version: 6.00 Build 0)  -->
<!DOCTYPE svg PUBLIC "-//W3C//DTD SVG 1.1//EN" "http://www.w3.org/Graphics/SVG/1.1/DTD/svg11.dtd">
<svg version="1.1" id="Layer_1" xmlns="http://www.w3.org/2000/svg" xmlns:xlink="http://www.w3.org/1999/xlink" x="0px" y="0px"
	 width="50px" height="50px" viewBox="450 450 100 100" enable-background="new 450 450 100 100" xml:space="preserve">
<title>ALL</title>
<path fill="#FFFFFF" d="M506.302,494.689c-0.615,0-1.114-0.498-1.114-1.113v-38.061c-0.005-0.615,0.489-1.119,1.104-1.124
	c0.052-0.001,0.104,0.003,0.155,0.01c20.298,2.772,36.276,18.706,39.108,38.996c0.086,0.609-0.339,1.173-0.948,1.26
	c-0.055,0.008-0.11,0.011-0.167,0.011L506.302,494.689z M507.415,456.808v35.654h35.744
	C540.061,474.175,525.711,459.861,507.415,456.808z"/>
<path fill="#FFFFFF" d="M482.358,541.609c-0.153,0.002-0.305-0.029-0.446-0.089c-23.106-10.131-33.626-37.073-23.496-60.18
	c7.288-16.625,23.728-27.357,41.88-27.34c0.616,0,1.115,0.499,1.115,1.114v42.34c-0.002,0.145-0.033,0.289-0.09,0.423l-17.938,43.03
	c-0.171,0.416-0.576,0.688-1.025,0.691V541.609z M499.182,456.229c-23.991,0.588-42.963,20.515-42.374,44.507
	c0.403,16.455,10.071,31.271,24.971,38.267l17.403-41.749V456.229z"/>
<path fill="#FFFFFF" d="M500.296,545.364c-4.006,0.003-7.997-0.521-11.866-1.56c-0.595-0.156-0.951-0.766-0.795-1.36
	c0.013-0.05,0.03-0.097,0.049-0.144l17.582-42.541c0.171-0.416,0.575-0.688,1.025-0.69h38.573c0.615,0,1.114,0.499,1.114,1.113
	C545.626,525.185,525.3,545.287,500.296,545.364z M490.269,542.021c23.347,5.556,46.777-8.868,52.331-32.215
	c0.66-2.773,1.045-5.604,1.15-8.452h-36.713L490.269,542.021z"/>
</svg>
