<?xml version="1.0" encoding="UTF-8"?>
<svg width="1436px" height="311px" viewBox="0 0 1436 311" version="1.1" xmlns="http://www.w3.org/2000/svg" xmlns:xlink="http://www.w3.org/1999/xlink">
    <!-- Generator: Sketch 48.1 (47250) - http://www.bohemiancoding.com/sketch -->
    <title>Path 2</title>
    <desc>Created with Sketch.</desc>
    <defs></defs>
    <g id="CoinHITex" stroke="none" stroke-width="1" fill="none" fill-rule="evenodd" transform="translate(-2.000000, -106.000000)">
        <path d="M3,413.053511 C16.5152098,400.407146 26.5921989,392.921649 33.2309672,390.59702 C34.1427086,390.277765 27.1012909,406.336792 33.2309672,413.053511 C38.1905655,418.488093 55.6962684,415.13241 62.1788464,413.053511 C66.3951721,411.701376 66.1885622,394.899483 69.3712985,390.59702 C72.9559247,385.751277 79.9220624,393.301736 84.8259288,390.59702 C85.9150038,389.996343 94.8681093,403.004211 107.530231,398.022709 C110.158291,396.988784 119.486154,388.879498 121.055737,379.610309 C122.907951,368.672039 117.029955,356.295774 121.055737,354.589363 C125.621597,352.654028 133.748687,356.551675 138.881582,354.589363 C143.944984,352.653618 148.316037,344.027293 153.81065,342.032566 C159.562393,339.944492 165.257858,344.098927 171.389171,342.032566 C174.302899,341.050588 182.8459,332.519139 188.503961,332.999455 C195.475849,333.591302 199.709826,343.264641 203.470127,342.032566 C207.383789,340.750241 214.744281,330.33452 218.665068,329.012533 C227.659093,325.979981 238.852266,331.924032 247.639021,329.012533 C257.22963,325.834676 274.196961,328.797883 283.220684,325.442524 C292.393449,322.031744 297.489147,313.001067 305.426169,309.238512 C310.014367,307.06347 300.250474,325.273519 310.641604,332.999455 C315.070885,336.292681 329.399822,327.413001 336.428175,329.012533 C350.419123,332.196631 358.106143,343.959834 359.568385,345.303015 C363.488463,348.903907 376.594038,373.087889 376.594038,354.589363 C376.594038,349.120449 386.071483,346.455622 392.045059,342.032566 C396.214759,338.945166 396.147198,333.047439 400.651918,332.999455 C405.531065,332.947482 417.077477,329.703799 421.640413,332.999455 C427.416395,337.171254 426.246194,347.88538 433.113134,345.303015 C439.446191,342.921421 443.252604,328.960778 448.836729,325.442524 C453.48489,322.513969 460.830687,335.26851 464.945919,332.999455 C471.402868,329.439224 483.095303,323.863623 486.661774,318.325416 C490.711181,312.037279 486.222809,305.95454 486.661774,305.760511 C499.058351,300.281028 501.926982,290.12472 490.578761,275.846945 C471.845275,252.277393 460.039659,245.564155 468.545324,242.022899 C480.880483,236.887269 479.715951,237.750004 486.661774,234.703763 C494.585358,231.228703 461.668703,196.934549 482.105744,196.934549 C495.815518,196.934549 494.396546,218.710578 504.673661,222.522931 C510.376734,224.638518 510.742942,210.942965 515.566358,210.31701 C519.434887,209.814974 527.555582,222.522931 533.2104,222.522931 C535.932319,222.522931 530.915032,186.982618 552.71004,184.962596 C558.111924,184.461935 558.565378,186.955106 572.746066,196.934549 C575.626481,198.961597 595.522114,173.867417 617.036776,174.210074 C644.522838,174.647836 717.401198,180.971358 835.671855,193.18064 C1008.89269,291.871911 1117.53507,352.249862 1161.59901,374.314494 C1167.83408,377.436649 1182.02551,365.971333 1184.4898,368.550723 C1196.88089,381.52055 1201.18539,401.254501 1210.03544,405.320778 C1221.2958,410.494504 1226.86574,390.59702 1229.02632,390.59702 C1232.58061,390.59702 1248.77713,403.197348 1253.09435,390.59702 C1255.55591,383.412666 1266.4677,361.199459 1266.33467,345.303015 C1266.23366,333.232808 1254.56225,327.716167 1258.11484,318.325416 C1259.31611,315.150038 1262.57576,306.263517 1266.33467,305.760511 C1271.64861,305.049415 1261.84351,272.813617 1266.33467,265.730363 C1268.29691,262.635613 1274.70218,262.18254 1277.2246,255.354682 C1278.17989,252.768809 1281.27374,250.304128 1286.50613,247.960639 L1292.41999,255.354682 C1305.86204,229.646928 1314.11016,216.971349 1317.16434,217.327943 C1326.71099,218.442572 1334.30282,251.132083 1337.3295,247.960639 C1339.4823,245.704874 1333.34694,244.318625 1348.77985,222.522931 C1351.13093,219.202539 1371.81893,215.742795 1372.61092,210.31701 C1375.47235,190.714012 1386.78314,203.568832 1399.17478,184.962596 C1402.36079,180.178753 1393.62788,147.577289 1399.17478,136.296382 C1403.56182,127.374319 1416.17023,117.608859 1437,107" id="Path-2" stroke="#FFFFFF" stroke-width="2"></path>
    </g>
</svg>