<?xml version="1.0" encoding="UTF-8"?>
<svg width="1440px" height="324px" viewBox="0 0 1440 324" version="1.1" xmlns="http://www.w3.org/2000/svg" xmlns:xlink="http://www.w3.org/1999/xlink">
    <!-- Generator: Sketch 48.1 (47250) - http://www.bohemiancoding.com/sketch -->
    <title>Group 6</title>
    <desc>Created with Sketch.</desc>
    <defs></defs>
    <g id="CoinHITex" stroke="none" stroke-width="1" fill="none" fill-rule="evenodd" transform="translate(0.000000, -106.000000)">
        <g id="Group-6" transform="translate(-18.000000, 69.000000)" stroke="#FFFFFF" stroke-width="2">
            <path d="M21,344.053511 C34.5152098,331.407146 44.5921989,323.921649 51.2309672,321.59702 C52.1427086,321.277765 45.1012909,337.336792 51.2309672,344.053511 C56.1905655,349.488093 73.6962684,346.13241 80.1788464,344.053511 C84.3951721,342.701376 84.1885622,325.899483 87.3712985,321.59702 C90.9559247,316.751277 97.9220624,324.301736 102.825929,321.59702 C103.915004,320.996343 112.868109,334.004211 125.530231,329.022709 C128.158291,327.988784 137.486154,319.879498 139.055737,310.610309 C140.907951,299.672039 135.029955,287.295774 139.055737,285.589363 C143.621597,283.654028 151.748687,287.551675 156.881582,285.589363 C161.944984,283.653618 166.316037,275.027293 171.81065,273.032566 C177.562393,270.944492 183.257858,275.098927 189.389171,273.032566 C192.302899,272.050588 200.8459,263.519139 206.503961,263.999455 C213.475849,264.591302 217.709826,274.264641 221.470127,273.032566 C225.383789,271.750241 232.744281,261.33452 236.665068,260.012533 C245.659093,256.979981 256.852266,262.924032 265.639021,260.012533 C275.22963,256.834676 292.196961,259.797883 301.220684,256.442524 C310.393449,253.031744 315.489147,244.001067 323.426169,240.238512 C328.014367,238.06347 318.250474,256.273519 328.641604,263.999455 C333.070885,267.292681 347.399822,258.413001 354.428175,260.012533 C368.419123,263.196631 376.106143,274.959834 377.568385,276.303015 C381.488463,279.903907 394.594038,304.087889 394.594038,285.589363 C394.594038,280.120449 404.071483,277.455622 410.045059,273.032566 C414.214759,269.945166 414.147198,264.047439 418.651918,263.999455 C423.531065,263.947482 435.077477,260.703799 439.640413,263.999455 C445.416395,268.171254 444.246194,278.88538 451.113134,276.303015 C457.446191,273.921421 461.252604,259.960778 466.836729,256.442524 C471.48489,253.513969 478.830687,266.26851 482.945919,263.999455 C489.402868,260.439224 501.095303,254.863623 504.661774,249.325416 C508.711181,243.037279 504.222809,236.95454 504.661774,236.760511 C517.058351,231.281028 519.926982,221.12472 508.578761,206.846945 C489.845275,183.277393 478.039659,176.564155 486.545324,173.022899 C498.880483,167.887269 497.715951,168.750004 504.661774,165.703763 C512.585358,162.228703 479.668703,127.934549 500.105744,127.934549 C513.815518,127.934549 512.396546,149.710578 522.673661,153.522931 C528.376734,155.638518 528.742942,141.942965 533.566358,141.31701 C537.434887,140.814974 545.555582,153.522931 551.2104,153.522931 C553.932319,153.522931 548.915032,117.982618 570.71004,115.962596 C576.111924,115.461935 576.565378,117.955106 590.746066,127.934549 C593.626481,129.961597 613.522114,104.867417 635.036776,105.210074 C662.522838,105.647836 735.401198,111.971358 853.671855,124.18064 C1026.89269,222.871911 1135.53507,283.249862 1179.59901,305.314494 C1185.83408,308.436649 1200.02551,296.971333 1202.4898,299.550723 C1214.88089,312.52055 1219.18539,332.254501 1228.03544,336.320778 C1239.2958,341.494504 1244.86574,321.59702 1247.02632,321.59702 C1250.58061,321.59702 1266.77713,334.197348 1271.09435,321.59702 C1273.55591,314.412666 1284.4677,292.199459 1284.33467,276.303015 C1284.23366,264.232808 1272.56225,258.716167 1276.11484,249.325416 C1277.31611,246.150038 1280.57576,237.263517 1284.33467,236.760511 C1289.64861,236.049415 1279.84351,203.813617 1284.33467,196.730363 C1286.29691,193.635613 1292.70218,193.18254 1295.2246,186.354682 C1296.17989,183.768809 1299.27374,181.304128 1304.50613,178.960639 L1310.41999,186.354682 C1323.86204,160.646928 1332.11016,147.971349 1335.16434,148.327943 C1344.71099,149.442572 1352.30282,182.132083 1355.3295,178.960639 C1357.4823,176.704874 1351.34694,175.318625 1366.77985,153.522931 C1369.13093,150.202539 1389.81893,146.742795 1390.61092,141.31701 C1393.47235,121.714012 1404.78314,134.568832 1417.17478,115.962596 C1420.36079,111.178753 1411.62788,78.5772888 1417.17478,67.2963822 C1421.56182,58.3743193 1434.17023,48.6088585 1455,38" id="Path-2"></path>
            <path d="M9.11810025,308.499325 C22.6319309,295.820902 32.7078917,288.316429 39.3459826,285.985907 C40.257631,285.665843 33.2169318,301.765579 39.3459826,308.499325 C44.3050749,313.947684 61.8089914,310.583494 68.2909079,308.499325 C72.5068033,307.143763 72.3002145,290.299277 75.4826261,285.985907 C79.0668864,281.127881 86.0323133,288.69748 90.9356794,285.985907 C92.0246432,285.383708 99.2913801,316.52056 111.952209,311.52643 C114.580002,310.489884 125.592368,284.264032 127.161791,274.971345 C129.013816,264.005347 123.13642,251.597708 127.161791,249.886971 C131.727184,247.946731 139.853445,251.854258 144.985817,249.886971 C150.048702,247.946319 154.419309,239.298126 159.913361,237.298343 C165.664517,235.204976 171.359401,239.369942 177.490088,237.298343 C180.403519,236.313875 188.945648,227.760799 194.603132,228.242333 C201.574309,228.83568 205.807854,238.533541 209.567771,237.298343 C213.481034,236.012767 220.840775,225.570642 224.761161,224.245304 C233.754268,221.205065 244.9463,227.164184 253.732158,224.245304 C263.321788,221.059391 280.287387,224.03011 289.310189,220.666245 C298.482019,217.246819 303.577197,208.193249 311.513408,204.421156 C316.101139,202.2406 306.338242,220.496811 316.728312,228.242333 C321.157141,231.543907 335.484615,222.641717 342.512252,224.245304 C356.501771,227.437474 364.188007,239.230496 365.6501,240.577083 C369.569778,244.187103 382.674015,268.432391 382.674015,249.886971 C382.674015,244.404194 392.150493,241.732611 398.12346,237.298343 C402.292734,234.203116 402.22518,228.290439 406.729441,228.242333 C411.60809,228.190228 423.153324,224.938322 427.715794,228.242333 C433.491187,232.424707 432.321105,243.165994 439.187344,240.577083 C445.519755,238.189451 449.32578,224.193417 454.909335,220.666245 C459.557021,217.730267 466.902069,230.51714 471.016881,228.242333 C477.473171,224.673077 489.164413,219.083341 492.73052,213.531095 C496.779514,207.227018 492.2916,201.12886 492.73052,200.934338 C505.125832,195.440965 507.994171,185.258911 496.647107,170.944942 C477.915533,147.315641 524.838448,204.327728 533.343246,200.777495 C545.677146,195.628846 485.785406,132.751425 492.73052,129.697461 C500.653295,126.213592 540.598687,192.53463 561.033642,192.53463 C574.742018,192.53463 500.464503,113.663734 510.740569,117.485751 C516.44306,119.606701 516.809231,105.87643 521.632155,105.248888 C525.500289,104.74558 561.81524,150.776098 567.469481,150.776098 C570.191122,150.776098 562.605046,139.47057 584.39783,137.445428 C589.799162,136.943497 609.76627,145.285435 623.94551,155.290176 C626.825632,157.322363 643.406124,160.616947 664.918591,160.960473 C692.401848,161.399344 751.330647,137.102213 841.704987,88.0690779 C1014.90814,187.01053 1123.53944,247.54154 1167.59888,269.662106 C1173.83331,272.792175 1188.0233,261.297794 1190.48734,263.883723 C1202.87716,276.886429 1207.18122,296.670405 1216.03037,300.74699 C1227.28958,305.933832 1232.85895,285.985907 1235.01931,285.985907 C1238.57324,285.985907 1254.76811,298.618177 1259.08489,285.985907 C1261.54619,278.783341 1272.45688,256.513823 1272.32386,240.577083 C1272.22286,228.476277 1260.55264,222.945651 1264.10487,213.531095 C1265.30601,210.347668 1268.56533,201.43862 1272.32386,200.934338 C1277.63726,200.22144 1284.11253,208.035548 1288.60323,200.934338 C1290.56527,197.831743 1304.05546,210.353428 1306.57761,203.508261 C1307.53281,200.915833 1311.27684,200.456124 1317.80971,202.129133 L1333.93758,200.14888 L1338.84146,192.767004 L1337.03619,178.064252 L1360.54884,201.689265 L1373.09416,190.560157 L1393.44025,171.138704 L1405.55554,175.386429 L1411.47588,168.924207 L1430.39419,193.113333 L1465.46694,216.862094 L1467.4297,232.84751" id="Path-2" opacity="0.154495018" transform="translate(738.273902, 200.069078) rotate(7.000000) translate(-738.273902, -200.069078) "></path>
        </g>
    </g>
</svg>