<?xml version="1.0" encoding="UTF-8"?>
<svg width="1440px" height="283px" viewBox="0 0 1440 283" version="1.1" xmlns="http://www.w3.org/2000/svg" xmlns:xlink="http://www.w3.org/1999/xlink">
    <!-- Generator: Sketch 48.1 (47250) - http://www.bohemiancoding.com/sketch -->
    <title>Path 2</title>
    <desc>Created with Sketch.</desc>
    <defs></defs>
    <g id="CoinHITex" stroke="none" stroke-width="1" fill="none" fill-rule="evenodd" transform="translate(0.000000, -147.000000)" opacity="0.154495018">
        <path d="M-8.88189975,377.499325 C4.63193092,364.820902 14.7078917,357.316429 21.3459826,354.985907 C22.257631,354.665843 15.2169318,370.765579 21.3459826,377.499325 C26.3050749,382.947684 43.8089914,379.583494 50.2909079,377.499325 C54.5068033,376.143763 54.3002145,359.299277 57.4826261,354.985907 C61.0668864,350.127881 68.0323133,357.69748 72.9356794,354.985907 C74.0246432,354.383708 81.2913801,385.52056 93.9522093,380.52643 C96.5800019,379.489884 107.592368,353.264032 109.161791,343.971345 C111.013816,333.005347 105.13642,320.597708 109.161791,318.886971 C113.727184,316.946731 121.853445,320.854258 126.985817,318.886971 C132.048702,316.946319 136.419309,308.298126 141.913361,306.298343 C147.664517,304.204976 153.359401,308.369942 159.490088,306.298343 C162.403519,305.313875 170.945648,296.760799 176.603132,297.242333 C183.574309,297.83568 187.807854,307.533541 191.567771,306.298343 C195.481034,305.012767 202.840775,294.570642 206.761161,293.245304 C215.754268,290.205065 226.9463,296.164184 235.732158,293.245304 C245.321788,290.059391 262.287387,293.03011 271.310189,289.666245 C280.482019,286.246819 285.577197,277.193249 293.513408,273.421156 C298.101139,271.2406 288.338242,289.496811 298.728312,297.242333 C303.157141,300.543907 317.484615,291.641717 324.512252,293.245304 C338.501771,296.437474 346.188007,308.230496 347.6501,309.577083 C351.569778,313.187103 364.674015,337.432391 364.674015,318.886971 C364.674015,313.404194 374.150493,310.732611 380.12346,306.298343 C384.292734,303.203116 384.22518,297.290439 388.729441,297.242333 C393.60809,297.190228 405.153324,293.938322 409.715794,297.242333 C415.491187,301.424707 414.321105,312.165994 421.187344,309.577083 C427.519755,307.189451 431.32578,293.193417 436.909335,289.666245 C441.557021,286.730267 448.902069,299.51714 453.016881,297.242333 C459.473171,293.673077 471.164413,288.083341 474.73052,282.531095 C478.779514,276.227018 474.2916,270.12886 474.73052,269.934338 C487.125832,264.440965 489.994171,254.258911 478.647107,239.944942 C459.915533,216.315641 506.838448,273.327728 515.343246,269.777495 C527.677146,264.628846 467.785406,201.751425 474.73052,198.697461 C482.653295,195.213592 522.598687,261.53463 543.033642,261.53463 C556.742018,261.53463 482.464503,182.663734 492.740569,186.485751 C498.44306,188.606701 498.809231,174.87643 503.632155,174.248888 C507.500289,173.74558 543.81524,219.776098 549.469481,219.776098 C552.191122,219.776098 544.605046,208.47057 566.39783,206.445428 C571.799162,205.943497 591.76627,214.285435 605.94551,224.290176 C608.825632,226.322363 625.406124,229.616947 646.918591,229.960473 C674.401848,230.399344 733.330647,206.102213 823.704987,157.069078 C996.908142,256.01053 1105.53944,316.54154 1149.59888,338.662106 C1155.83331,341.792175 1170.0233,330.297794 1172.48734,332.883723 C1184.87716,345.886429 1189.18122,365.670405 1198.03037,369.74699 C1209.28958,374.933832 1214.85895,354.985907 1217.01931,354.985907 C1220.57324,354.985907 1236.76811,367.618177 1241.08489,354.985907 C1243.54619,347.783341 1254.45688,325.513823 1254.32386,309.577083 C1254.22286,297.476277 1242.55264,291.945651 1246.10487,282.531095 C1247.30601,279.347668 1250.56533,270.43862 1254.32386,269.934338 C1259.63726,269.22144 1266.11253,277.035548 1270.60323,269.934338 C1272.56527,266.831743 1286.05546,279.353428 1288.57761,272.508261 C1289.53281,269.915833 1293.27684,269.456124 1299.80971,271.129133 L1315.93758,269.14888 L1320.84146,261.767004 L1319.03619,247.064252 L1342.54884,270.689265 L1355.09416,259.560157 L1375.44025,240.138704 L1387.55554,244.386429 L1393.47588,237.924207 L1412.39419,262.113333 L1447.46694,285.862094 L1449.4297,301.84751" id="Path-2" stroke="#FFFFFF" stroke-width="2" transform="translate(720.273902, 269.069078) rotate(7.000000) translate(-720.273902, -269.069078) "></path>
    </g>
</svg>