<?xml version="1.0" encoding="utf-8"?>
<!-- Generator: Adobe Illustrator 16.0.0, SVG Export Plug-In . SVG Version: 6.00 Build 0)  -->
<!DOCTYPE svg PUBLIC "-//W3C//DTD SVG 1.1//EN" "http://www.w3.org/Graphics/SVG/1.1/DTD/svg11.dtd">
<svg version="1.1"
	 id="Layer_1" xmlns:dc="http://purl.org/dc/elements/1.1/" xmlns:cc="http://creativecommons.org/ns#" xmlns:sodipodi="http://sodipodi.sourceforge.net/DTD/sodipodi-0.dtd" xmlns:rdf="http://www.w3.org/1999/02/22-rdf-syntax-ns#" xmlns:svg="http://www.w3.org/2000/svg" xmlns:inkscape="http://www.inkscape.org/namespaces/inkscape"
	 xmlns="http://www.w3.org/2000/svg" xmlns:xlink="http://www.w3.org/1999/xlink" x="0px" y="0px" width="200px" height="100px"
	 viewBox="450 450 100 100" enable-background="new 450 450 100 100" xml:space="preserve">
<g transform="translate(0,-952.36218)">
	<path d="M545.67,1447.487l-28.876-30.481c-1.331-1.321-3.315-1.28-4.537-0.125s-1.281,3.316-0.126,4.537l23.712,25.067h-79.157
		c-1.773,0-3.209,1.436-3.209,3.208s1.437,3.209,3.209,3.209h79.157l-23.712,25.066c-1.155,1.221-1.084,3.371,0.126,4.537
		c1.31,1.264,3.382,1.096,4.537-0.125l28.876-30.481C546.648,1451.012,546.96,1448.761,545.67,1447.487L545.67,1447.487z"/>
</g>
<text transform="matrix(1 0 0 1 100 920)" font-family="'HelveticaNeue-Bold'" font-size="40">Created by Aya Sofya</text>
<text transform="matrix(1 0 0 1 100 960)" font-family="'HelveticaNeue-Bold'" font-size="40">from the Noun Project</text>
</svg>
