<?xml version="1.0" encoding="utf-8"?>
<!-- Generator: Adobe Illustrator 16.0.0, SVG Export Plug-In . SVG Version: 6.00 Build 0)  -->
<!DOCTYPE svg PUBLIC "-//W3C//DTD SVG 1.1//EN" "http://www.w3.org/Graphics/SVG/1.1/DTD/svg11.dtd">
<svg version="1.1" id="Layer_1" xmlns="http://www.w3.org/2000/svg" xmlns:xlink="http://www.w3.org/1999/xlink" x="0px" y="0px"
	 width="500px" height="500px" viewBox="0 0 500 500" enable-background="new 0 0 500 500" xml:space="preserve">
<g display="none">
	
		<ellipse display="inline" fill="#996666" stroke="#FFFFFF" stroke-miterlimit="10" cx="1847.232" cy="-834.108" rx="3551.008" ry="3181.024"/>
</g>
<g>
	<g>
		<path fill="#30CEE8" d="M429.916,158.536c-0.645-4.544-4.86-7.716-9.4-7.064l-19.376,2.756
			c9.009-14.748,12.732-31.98,10.477-49.368C409,84.684,398.68,66.736,382.56,54.32c-16.119-12.42-36.111-17.824-56.287-15.196
			c-20.181,2.616-38.128,12.936-50.544,29.052c-0.732,0.952-1.213,2.008-1.48,3.104c-17.607-15.928-40.936-25.648-66.492-25.648
			c-54.708,0-99.216,44.504-99.216,99.212s44.508,99.216,99.216,99.216c1.696,0,3.384-0.044,5.06-0.128
			c-1.12,5.96-1.736,12.095-1.736,18.376c0,6.123,0.588,12.107,1.652,17.928c1.8,9.82,5.048,19.136,9.52,27.724
			c-4.6,5.572-10.192,10.34-16.676,13.996c-13.852,7.812-29.916,9.76-45.244,5.487c-30.212-8.42-48.436-38.832-42.32-69.107
			l12.428,17.068c1.624,2.236,4.16,3.42,6.724,3.42c1.696,0,3.408-0.516,4.888-1.592c3.712-2.705,4.528-7.904,1.828-11.612
			l-4.188-5.752l-25.496-35.024L73.42,254.527c-3.712,2.705-4.528,7.904-1.828,11.613c2.7,3.711,7.904,4.531,11.612,1.832
			l18.68-13.601c-8.24,38.956,15.104,78.252,53.98,89.092c6.8,1.896,13.712,2.832,20.584,2.832c12.936,0,25.72-3.328,37.296-9.856
			c6.688-3.771,12.668-8.447,17.82-13.855c18.152,23.652,46.68,38.936,78.728,38.936c54.708,0,99.216-44.508,99.216-99.215
			c0-54.708-44.508-99.208-99.216-99.208c-1.696,0-3.384,0.044-5.06,0.128c1.119-5.96,1.735-12.096,1.735-18.376
			c0-24.128-8.663-46.26-23.036-63.476c1.904-0.38,3.688-1.384,4.965-3.044l0,0c9.703-12.604,23.739-20.668,39.512-22.712
			c15.779-2.044,31.403,2.172,44,11.876c24.828,19.124,30.332,54.104,13.364,79.864l-3.496-24.592
			c-0.645-4.544-4.849-7.712-9.4-7.064c-4.544,0.648-7.704,4.856-7.06,9.4l1.991,14.016l5.108,35.92l49.936-7.1
			C427.4,167.288,430.564,163.084,429.916,158.536z M310.292,181.004c44.832,0,81.308,36.472,81.308,81.309
			c0,44.836-36.472,81.308-81.308,81.308c-44.832,0-81.304-36.472-81.304-81.308C228.988,217.476,265.464,181.004,310.292,181.004z
			 M289.064,144.848c0,7.356-1.068,14.452-2.908,21.232c-30.965,7.772-56.18,30.132-67.924,59.32
			c-3.436,0.444-6.916,0.752-10.472,0.752c-44.832,0-81.308-36.472-81.308-81.308c0-44.828,36.472-81.304,81.308-81.304
			C252.588,63.544,289.064,100.016,289.064,144.848z"/>
		<path fill="#30CEE8" d="M218.156,93.508v-6.436c0-5.74-4.652-10.392-10.392-10.392c-5.74,0-10.392,4.652-10.392,10.392v6.436
			c-11.144,0.484-19.744,8.092-19.744,17.808v26.308c0,10.036,9.152,17.904,20.832,17.904h18.588c0.016,0,0.036,0,0.052,0v19.964
			c-0.016,0-0.036,0-0.052,0H198.46c-0.016,0-0.036,0-0.052,0v-6.464c0-5.74-4.652-10.392-10.392-10.392
			c-5.74,0-10.392,4.652-10.392,10.392v9.348c0,9.716,8.6,17.324,19.744,17.808v6.44c0,5.74,4.652,10.392,10.392,10.392
			c5.74,0,10.392-4.652,10.392-10.392v-6.44c11.136-0.488,19.728-8.096,19.728-17.808v-25.728c0-10.036-9.152-17.9-20.832-17.9
			H198.46c-0.016,0-0.036,0-0.052,0V114.2c0.016,0,0.036,0,0.052,0h18.588c0.016,0,0.036,0,0.052,0v4.216
			c0,5.74,4.652,10.392,10.392,10.392c5.74,0,10.392-4.652,10.392-10.392v-7.1C237.884,101.604,229.292,93.996,218.156,93.508z"/>
		<path fill="#30CEE8" d="M298.708,322.052h16.624v-9.512h7.492c15.292,0,27.731-12.44,27.731-27.728v-2.328
			c0-8.66-3.976-16.676-10.916-22l-1.611-1.232l1.195-1.641c3.5-4.783,5.349-10.423,5.349-16.295c0-14.992-12.204-27.42-27.204-27.7
			l-2.04-0.04v-9.5h-16.624v9.512h-24.892v98.96h24.892v9.504H298.708z M290.439,230.204h26.408c6.124,0,11.104,4.98,11.104,11.104
			s-4.984,11.104-11.104,11.104h-26.408V230.204z M290.439,295.912v-24.544h32.385c6.124,0,11.107,4.983,11.107,11.108v2.328
			c0,6.123-4.983,11.104-11.107,11.104h-32.385V295.912z"/>
	</g>
</g>
</svg>
