<?xml version="1.0" encoding="utf-8"?>
<!-- Generator: Adobe Illustrator 16.0.0, SVG Export Plug-In . SVG Version: 6.00 Build 0)  -->
<!DOCTYPE svg PUBLIC "-//W3C//DTD SVG 1.1//EN" "http://www.w3.org/Graphics/SVG/1.1/DTD/svg11.dtd">
<svg version="1.1" id="Layer_1" xmlns="http://www.w3.org/2000/svg" xmlns:xlink="http://www.w3.org/1999/xlink" x="0px" y="0px"
	 width="500px" height="500px" viewBox="0 0 500 500" enable-background="new 0 0 500 500" xml:space="preserve">
<g display="none">
	
		<ellipse display="inline" fill="#996666" stroke="#FFFFFF" stroke-miterlimit="10" cx="-72.768" cy="-1314.108" rx="3551.008" ry="3181.024"/>
</g>
<g>
	<path fill="#30CEE8" d="M277.408,310.492c-3.32,0-6.016,2.695-6.016,6.016v0.416c0,28.148-22.896,51.049-51.05,51.049h-7.78
		c-28.148,0-51.048-22.896-51.048-51.049v-5.8c10.536-0.116,20.492-2.54,29.468-6.74v12.536c0,11.896,9.68,21.576,21.576,21.576
		h7.78c11.896,0,21.576-9.68,21.576-21.576V166.484c0-11.896-9.68-21.576-21.576-21.576h-7.78c-11.896,0-21.576,9.68-21.576,21.576
		v8.16c-8.976-4.196-18.932-6.62-29.468-6.74v-1.42c0-28.148,22.896-51.048,51.048-51.048h7.78c14.144,0,27.328,5.724,37.12,16.128
		c1.691,1.792,4.314,2.372,6.598,1.468c2.295-0.908,3.799-3.124,3.799-5.592V46.768c0-8.124,6.613-14.736,14.736-14.736
		s14.731,6.612,14.731,14.736v14.284c0,0.924,0.271,1.78,0.655,2.58V200h12.031V62.684c2.452-2.208,5.562-3.472,8.89-3.472
		c7.438,0,13.496,6.052,13.496,13.492v21.628v121.644h12.03V96.604c2.792-3.092,6.602-4.916,10.788-4.916
		c8.124,0,14.732,6.612,14.732,14.732v112.824c0,3.32,2.696,6.016,6.016,6.016h34.974v-12.032h-28.956V106.42
		c0-14.756-12.01-26.764-26.766-26.764c-3.756,0-7.424,0.808-10.788,2.304v-9.256c0-14.072-11.45-25.52-25.522-25.52
		c-3.336,0-6.564,0.644-9.548,1.856v-2.272c0-14.76-12.01-26.768-26.766-26.768c-14.76,0-26.768,12.008-26.768,26.768v67.616
		c-10.376-7.144-22.604-10.972-35.484-10.972h-7.78c-34.78,0-63.076,28.296-63.076,63.076v2.344
		c-34.224,5.4-60.424,34.944-60.424,70.684c0,35.744,26.2,65.284,60.424,70.684v6.724c0,34.78,28.296,63.076,63.076,63.076h7.78
		c32.896,0,59.988-25.309,62.832-57.477H410.94v-12.031H277.408L277.408,310.492z M203.016,166.484c0-5.264,4.284-9.548,9.548-9.548
		h7.78c5.264,0,9.548,4.284,9.548,9.548v54.644c-4.248-16.02-13.88-29.808-26.876-39.348V166.484L203.016,166.484z M229.892,257.904
		v59.02c0,5.264-4.284,9.549-9.548,9.549h-7.78c-5.264,0-9.548-4.285-9.548-9.549v-18.588c0-0.344-0.044-0.676-0.1-1.004
		C215.964,287.784,225.632,273.964,229.892,257.904z M148.668,290.1v-10.488h-19.396V245.72v-14.224v-32.08h19.396v-10.488h16.04
		v10.504c12.596,0.196,22.788,10.492,22.788,23.132c0,5.116-1.688,9.836-4.512,13.672c5.556,4.232,9.168,10.896,9.168,18.405v1.815
		c0,12.769-10.384,23.151-23.148,23.151h-4.296v10.488h-16.04V290.1z"/>
	<path fill="#30CEE8" d="M171.456,222.568c0-3.92-3.192-7.112-7.112-7.112h-19.032v14.224h19.032
		C168.264,229.68,171.456,226.488,171.456,222.568z"/>
	<path fill="#30CEE8" d="M176.112,256.464v-1.815c0-3.92-3.188-7.107-7.108-7.107h-23.692v16.036h23.692
		C172.924,263.576,176.112,260.384,176.112,256.464z"/>
</g>
</svg>
