<?xml version="1.0" encoding="utf-8"?>
<!-- Generator: Adobe Illustrator 16.0.0, SVG Export Plug-In . SVG Version: 6.00 Build 0)  -->
<!DOCTYPE svg PUBLIC "-//W3C//DTD SVG 1.1//EN" "http://www.w3.org/Graphics/SVG/1.1/DTD/svg11.dtd">
<svg version="1.1" id="Layer_1" xmlns="http://www.w3.org/2000/svg" xmlns:xlink="http://www.w3.org/1999/xlink" x="0px" y="0px"
	 width="500px" height="500px" viewBox="0 0 500 500" enable-background="new 0 0 500 500" xml:space="preserve">
<g display="none">
	
		<ellipse display="inline" fill="#996666" stroke="#FFFFFF" stroke-miterlimit="10" cx="-72.768" cy="-354.108" rx="3551.008" ry="3181.024"/>
</g>
<g>
	<path fill="#30CEE8" d="M413.608,261.136c0-28.384-13.448-54.948-37.696-76.02c6.78-3.312,11.488-9.9,11.488-17.496v-39.052
		c0-30.752-27.24-55.772-60.726-55.772h-38.5c7.988-5.088,13.31-14,13.31-24.152C301.48,32.848,288.632,20,272.84,20
		c-9.332,0-17.607,4.504-22.84,11.428C244.764,24.504,236.488,20,227.16,20c-15.792,0-28.644,12.848-28.644,28.644
		c0,10.152,5.324,19.064,13.308,24.152h-38.5c-33.484,0-60.728,25.02-60.728,55.772v42.472c0,6.712,4.504,12.412,10.784,14.676
		c-23.812,20.976-36.988,47.312-36.988,75.425C86.392,326.68,159.788,380,250,380S413.608,326.68,413.608,261.136z M272.84,31.612
		c9.393,0,17.028,7.64,17.028,17.028c0,9.388-7.64,17.028-17.028,17.028c-9.393,0-17.031-7.64-17.031-17.028
		C255.809,39.252,263.443,31.612,272.84,31.612z M250,65.86c2.068,2.736,4.604,5.088,7.504,6.936h-15.008
		C245.396,70.948,247.932,68.596,250,65.86z M210.132,48.644c0-9.392,7.64-17.028,17.028-17.028c9.388,0,17.028,7.64,17.028,17.028
		s-7.64,17.028-17.028,17.028C217.772,65.672,210.132,58.032,210.132,48.644z M124.212,128.568c0-24.348,22.036-44.16,49.116-44.16
		h153.344c27.08,0,49.112,19.812,49.112,44.16v39.052c0,4.44-4.2,8.104-9.364,8.172c-0.768,0.012-1.572,0.02-2.392,0.028
		c-4.186-2.932-8.58-5.74-13.24-8.38v-38.852c0-12.384-10.82-22.464-24.116-22.464H173.324c-13.296,0-24.116,10.08-24.116,22.464
		v38.852c-4.332,2.456-8.424,5.068-12.348,7.78c-4.624-0.032-7.316-0.052-7.532-0.056c-2.776,0-5.12-1.892-5.12-4.132v-42.464
		H124.212z M250,368.389c-83.808,0-151.992-48.113-151.992-107.248c0-33.577,21.784-64.617,59.772-85.165l3.044-1.648v-45.736
		c0-5.984,5.608-10.848,12.5-10.848h153.352c6.894,0,12.5,4.864,12.5,10.848v45.732l3.044,1.648
		c37.988,20.548,59.772,51.588,59.772,85.164C401.996,320.275,333.808,368.389,250,368.389z"/>
	<path fill="#30CEE8" d="M250,157.136c-48.732,0-88.232,39.504-88.232,88.236c0,48.731,39.504,88.231,88.232,88.231
		c48.732,0,88.236-39.504,88.236-88.231C338.232,196.64,298.729,157.136,250,157.136z M250,321.988
		c-42.248,0-76.62-34.372-76.62-76.62s34.372-76.62,76.62-76.62s76.62,34.372,76.62,76.62S292.248,321.988,250,321.988z"/>
	<path fill="#30CEE8" d="M275.568,242.128c5.132-4.672,8.375-11.384,8.375-18.852c0-14.08-11.455-25.536-25.535-25.536h-1.96
		v-14.416h-5.808h-5.806v14.416h-27.5v41.82v9.248V293h27.5v14.416h5.806h5.808V293h8.036c14.08,0,25.535-11.456,25.535-25.536
		v-2.368C290.02,254.992,284.104,246.264,275.568,242.128z M228.944,209.352h29.464c7.676,0,13.924,6.244,13.924,13.924
		c0,7.672-6.244,13.92-13.924,13.92h-29.464V209.352L228.944,209.352z M278.408,267.464c0,7.677-6.244,13.925-13.924,13.925h-35.542
		v-30.213h35.542c7.676,0,13.924,6.244,13.924,13.924V267.464z"/>
</g>
</svg>
