<?xml version="1.0" encoding="UTF-8" standalone="no"?>
<svg
   xmlns:dc="http://purl.org/dc/elements/1.1/"
   xmlns:cc="http://creativecommons.org/ns#"
   xmlns:rdf="http://www.w3.org/1999/02/22-rdf-syntax-ns#"
   xmlns:svg="http://www.w3.org/2000/svg"
   xmlns="http://www.w3.org/2000/svg"
   xmlns:sodipodi="http://sodipodi.sourceforge.net/DTD/sodipodi-0.dtd"
   xmlns:inkscape="http://www.inkscape.org/namespaces/inkscape"
   version="1.1"
   x="0px"
   y="0px"
   viewBox="0 0 66 90"
   id="svg3392"
   inkscape:version="0.91 r13725"
   sodipodi:docname="two-arrows-m.svg"
   width="66"
   height="90">
  <metadata
     id="metadata3408">
    <rdf:RDF>
      <cc:Work
         rdf:about="">
        <dc:format>image/svg+xml</dc:format>
        <dc:type
           rdf:resource="http://purl.org/dc/dcmitype/StillImage" />
        <dc:title></dc:title>
      </cc:Work>
    </rdf:RDF>
  </metadata>
  <defs
     id="defs3406" />
  <sodipodi:namedview
     pagecolor="#ffffff"
     bordercolor="#666666"
     borderopacity="1"
     objecttolerance="10"
     gridtolerance="10"
     guidetolerance="10"
     inkscape:pageopacity="0"
     inkscape:pageshadow="2"
     inkscape:window-width="1615"
     inkscape:window-height="1026"
     id="namedview3404"
     showgrid="false"
     inkscape:zoom="6.856"
     inkscape:cx="50"
     inkscape:cy="68.334306"
     inkscape:window-x="65"
     inkscape:window-y="24"
     inkscape:window-maximized="1"
     inkscape:current-layer="svg3392" />
  <g
     transform="translate(-17.357059,-957.16965)"
     id="g3394">
    <path
       d="m 35.266383,958.16054 a 2.0001998,2.0001998 0 0 1 1.37498,0.68751 l 14.875016,17.24998 a 2.0049661,2.0049661 0 0 1 -3.031299,2.62503 l -11.375008,-13.18752 0,79.03116 a 2.0001998,2.0001998 0 1 1 -4.000004,0 l 0,-79.34364 -11.843681,12.68748 a 2.0012822,2.0012822 0 1 1 -2.937508,-2.71874 l 15.312508,-16.40626 a 2.0001998,2.0001998 0 0 1 1.437484,-0.625 2.0001998,2.0001998 0 0 1 0.187512,0 z"
       style="color:#dcdcdc;text-indent:0;text-transform:none;direction:ltr;block-progression:tb;baseline-shift:baseline;display:inline;overflow:visible;visibility:visible;fill:#a3a3a3;fill-opacity:1;fill-rule:evenodd;stroke:none;marker:none;enable-background:accumulate"
       visibility="visible"
       display="inline"
       overflow="visible"
       id="path3396"
       inkscape:connector-curvature="0" />
    <path
       d="m 64.922658,958.12929 a 2.0001998,2.0001998 0 0 1 1.968732,2.03127 l 0,79.34364 11.843681,-12.6875 a 2.0013401,2.0013401 0 0 1 2.937614,2.7188 l -15.343795,16.4062 a 2.0001998,2.0001998 0 0 1 -2.968831,-0.062 l -14.874979,-17.25 a 2.0001998,2.0001998 0 0 1 1.499988,-3.3437 2.0001998,2.0001998 0 0 1 1.531311,0.7187 l 11.375007,13.1875 0,-79.03114 a 2.0001998,2.0001998 0 0 1 2.031272,-2.03127 z"
       style="color:#dcdcdc;text-indent:0;text-transform:none;direction:ltr;block-progression:tb;baseline-shift:baseline;display:inline;overflow:visible;visibility:visible;fill:#a3a3a3;fill-opacity:1;fill-rule:evenodd;stroke:none;marker:none;enable-background:accumulate"
       visibility="visible"
       display="inline"
       overflow="visible"
       id="path3398"
       inkscape:connector-curvature="0" />
  </g>
</svg>
