<?xml version="1.0" encoding="UTF-8"?>
<svg width="277px" height="40px" viewBox="0 0 277 40" version="1.1" xmlns="http://www.w3.org/2000/svg" xmlns:xlink="http://www.w3.org/1999/xlink">
    <!-- Generator: Sketch 48.1 (47250) - http://www.bohemiancoding.com/sketch -->
    <title>Group 12</title>
    <desc>Created with Sketch.</desc>
    <defs>
        <linearGradient x1="50%" y1="17.5632477%" x2="50%" y2="123.622359%" id="linearGradient-1">
            <stop stop-color="#F7E2E2" offset="0%"></stop>
            <stop stop-color="#FFFFFF" stop-opacity="0" offset="100%"></stop>
        </linearGradient>
    </defs>
    <g id="CoinHITex" stroke="none" stroke-width="1" fill="none" fill-rule="evenodd" transform="translate(-1029.000000, -873.000000)">
        <g id="Group-12" transform="translate(1030.000000, 874.000000)">
            <path d="M0.379523195,18.6075683 C0.885554121,18.451099 2.42690993,18.5711586 5.00359064,18.9677469 C6.74802486,18.6505569 7.81401108,18.6505569 8.2015493,18.9677469 C8.89779407,19.5376053 10.2560516,19.6575912 10.8891516,20.1993512 C11.1263202,20.4023025 12.2932191,19.9917677 14.3898485,18.9677469 C14.9769645,20.080995 15.4070967,20.8940839 15.680245,21.4070135 C15.86048,21.7454664 18.9236746,18.6462045 19.0960108,18.9677469 C19.2077533,19.1762345 19.8542351,19.1762345 21.0354563,18.9677469 C21.0531245,19.5998862 21.0663942,20.0671052 21.0752654,20.3694037 C21.0826013,20.6193858 24.9947649,21.0826813 23.0759671,21.0826813 C23.0759671,21.0826813 23.5965366,20.6901123 24.6376758,19.9049742 C25.7653524,19.8818024 26.410005,19.9799281 26.5716336,20.1993512 C26.8379773,20.5609333 27.6405148,20.7396246 27.880908,21.0826813 C28.0177607,21.2779791 29.194869,20.0097164 29.3218872,20.1993512 C29.5724041,20.5733663 30.7613444,20.7126253 30.9622529,21.0826813 C31.0430547,21.231511 32.7462241,20.5265329 36.0717613,18.9677469 L39.416516,18.6075683 L39.416516,20.3694037 C42.6817785,19.8575396 44.3613289,19.596506 44.4551673,19.586303 C44.6265351,19.5676703 45.4992384,19.8287039 47.0732773,20.3694037 L49.5231503,19.586303 L52.0347631,20.1993512 C52.5387151,19.1203381 53.075522,18.7098034 53.6451836,18.9677469 C54.8594493,19.5175681 55.9687105,19.025598 57.0543568,19.586303 C58.2115739,20.1839723 59.2241277,17.9756885 60.2202029,18.6075683 C61.0819762,19.1542511 63.2603958,18.2575722 63.9925509,18.9677469 C64.4756387,19.4363317 65.6840128,19.8468665 67.6176733,20.1993512 C70.0715943,18.8522485 71.3092885,18.4417137 71.3307559,18.9677469 C71.3495099,19.4272906 78.1411814,17.6977338 77.8736083,18.3827529 C77.6580107,18.9347086 78.6941441,19.4307838 77.8736083,20.1993512 C77.6333763,20.4243682 78.6846644,20.4243682 81.0274727,20.1993512 C81.4611248,19.6462323 82.142872,19.4418829 83.0727142,19.586303 C83.5802374,19.6651299 84.0855691,19.338885 84.5887093,18.6075683 C85.3927419,18.801001 85.9900214,18.9445881 86.3805478,19.0383296 C87.1738395,19.2287504 88.0301539,20.1898941 88.7813023,20.3694037 C89.2694763,20.4860676 90.1862331,19.8987892 91.5315728,18.6075683 L93.7355246,19.586303 L96.4863139,18.6075683 C96.0163079,14.1558813 96.0163079,12.0373465 96.4863139,12.2519639 C97.3223067,12.6337008 96.974147,10.9229223 97.6817751,11.2740493 C98.0272421,11.4454709 98.7380316,11.9136862 99.8141434,12.678695 C102.138104,13.3600366 103.483209,13.7884356 103.849456,13.963892 C104.283845,14.1719922 104.770116,14.5816592 105.308269,15.1928928 L108.059345,14.5962905 L111.810387,15.9996532 L114.205623,10.3963381 L117.489122,12.927985 C119.02652,11.3392102 120.223803,10.4953279 121.080972,10.3963381 C121.819932,10.3109996 123.771704,10.7265685 126.936289,11.6430446 C127.620785,10.9295846 128.492327,10.5140158 129.550915,10.3963381 C129.649049,10.3854291 130.137613,10.3854291 131.016606,10.3963381 L131.016606,6.09477089 L136.044676,2 L136.625815,8.73136845 L139.522518,8.12989062 C140.93394,9.6563994 141.934837,10.7377432 142.52521,11.373922 C143.080647,11.9724544 143.360452,11.7534146 143.825141,12.2519639 C144.149374,12.599823 144.149374,13.3812652 143.825141,14.5962905 L147.015151,14.1705858 C148.26249,14.4211893 149.308098,14.506568 150.151975,14.4267219 C150.250379,14.4174111 150.987624,13.4552935 152.492958,12.678695 C152.978115,12.4284038 153.8918,12.1530258 155.234013,11.8525611 C157.591446,8.43893114 159.044947,6.77494512 159.594515,6.86060305 C159.811334,6.89439744 161.945238,6.84966588 163.263593,7.6436809 C163.812329,7.97417134 162.212995,9.13989323 163.263593,9.95177312 C163.594224,10.2072772 165.432413,9.43791309 168.778162,7.6436809 L170.675664,7.94385332 L175.319697,5.66996434 L178.270203,12.2519639 L180.386487,13.2074258 C181.343973,12.6257876 182.119437,12.3073003 182.712878,12.2519639 C182.828623,12.2411711 184.442103,12.8873211 186.880322,12.678695 C187.615039,12.615829 188.128414,11.9687742 189.415395,11.8525611 C190.164446,11.7849225 190.933439,13.0392615 192.18767,12.927985 C193.112458,12.845937 193.642711,13.0901845 195.311233,12.927985 C195.752618,12.8850773 194.723973,14.9161739 195.311233,14.8571276 C196.162079,14.7715791 197.427574,14.6281105 199.107717,14.4267219 C199.588605,14.3690807 198.440106,15.5624425 199.107717,15.4793903 C199.819738,15.3908133 202.568869,16.1763741 203.861933,15.9996532 C204.360434,15.931524 203.13678,17.4760757 203.861933,17.3691443 C204.52929,17.2707357 205.190878,17.5688391 206.387499,17.3691443 C206.798523,17.3005516 205.806314,16.4011098 206.387499,16.2993657 C206.937356,16.203106 207.521667,16.1667667 208.484293,15.9996532 C208.824189,15.9406467 208.529475,15.1200103 209.005759,15.0371347 C209.549741,14.9424791 210.609058,15.6483613 211.627346,15.4793903 C212.438894,15.3447249 212.699685,15.468575 214.31168,15.1928928 C214.732778,15.1208771 214.877846,14.063965 215.455862,13.963892 C215.923492,13.8829301 216.683162,14.5678592 217.428588,14.4437399 C218.163082,14.321441 219.275787,14.4189209 220.728984,14.1705858 C221.209314,14.0885027 218.09586,10.231471 218.796662,10.1093275 C219.517218,9.98374106 219.312753,10.1318674 220.728984,9.95177312 C221.276459,9.88215374 220.39127,6.9559641 221.230959,6.86060305 C222.009679,6.77216617 223.16182,6.67479161 224.687385,6.56847935 C225.057173,6.54270982 225.195028,4.98557603 225.690272,4.95558112 C226.4108,4.91194169 225.777082,5.54517009 226.88912,5.66996434 C227.90697,5.78418876 231.904123,6.09477089 231.904123,6.09477089 C232.61836,6.09477089 231.415837,7.17102329 231.904123,8.12989062 C231.965815,8.25103741 232.655557,8.18902498 233.973347,7.94385332 C233.081353,8.83999288 233.081353,9.24948877 233.973347,9.172341 C234.194727,9.15319411 240.29309,8.9417001 242.133305,8.73136845 C242.616891,8.67609591 242.907899,6.6595581 243.648739,6.56847935 C244.119678,6.51058229 244.74333,6.44545803 245.519696,6.37310656 C245.871946,6.34027954 244.986095,7.9870922 245.519696,7.94385332 C246.142203,7.89341027 247.134036,7.79335279 248.495195,7.6436809 C248.884539,7.60086899 249.468413,6.6348434 250.0418,6.56847935 C250.520051,6.51312628 250.240527,7.72678876 251.089009,7.6436809 C251.710396,7.5828167 252.807834,7.68287417 254.381323,7.94385332 C254.588817,8.84582102 254.938521,9.25531691 255.430433,9.172341 C255.53662,9.15442934 255.53662,9.56242838 255.430433,10.3963381 C255.905139,10.5457121 256.394756,10.5457121 256.899283,10.3963381 C256.985867,10.3707035 256.985867,10.8561111 256.899283,11.8525611 L256.899283,19.586303 C263.458533,19.6397673 266.859185,19.4571095 267.101237,19.0383296 C267.144031,18.9642897 267.139436,21.5564863 267.949181,22.8718253 C268.593902,23.9191014 269.990522,23.4874252 270.636591,25.090704 C271.087381,26.2093798 271.50088,28.0154624 271.87709,30.5089517 L275.872883,30.5089517 L275.999897,35.9297262 C276.038708,37.5861259 274.727394,38.9603657 273.070994,38.9991768 C273.047574,38.9997256 273.024147,39 273.00072,39 L3.27294035,38.9999989 C1.65644916,38.9999989 0.330611759,37.7192264 0.274734335,36.1037013 C-0.123692315,24.5844109 -0.0887626952,18.7523665 0.379523195,18.6075683 Z" id="Rectangle-5" fill="url(#linearGradient-1)"></path>
            <path d="M0,16.8024799 L2.01105504,19.0800239 L4.0286026,17.8904062 L6.9055962,17.8904062 L9.86455773,19.2714271 L13.6379533,17.8904062 L14.9725402,20.0904471 L17.9972384,17.8904062 L20.2306619,17.8904062 L20.2306619,19.2714271 L22.2895992,20.0904471 L23.458251,18.5280382 L25.4668714,19.0800239 L26.9155127,20.0904471 L28.3162718,18.5280382 L29.8679818,20.0904471 L34.5888483,17.8904062 L38.4770503,17.5454376 L38.4770503,19.2714271 L44.0565513,18.5280382 L45.7470387,19.2714271 L48.4633426,18.5280382 L50.7990232,19.2714271 L52.6217954,17.8904062 L56.1358666,18.5280382 L58.6914809,17.8904062 L63.1834865,17.8904062 L66.3558893,19.0800239 L70.0209113,17.8904062 L73.0999843,17.8904062 L77.1334563,17.1932692 L77.1334563,19.0800239 L79.2248561,19.2714271 L81.8681193,18.5280382 L83.3047852,17.5454376 L85.9298426,17.8904062 L87.5831515,19.2714271 L90.3889881,17.5454376 L92.2200744,18.5280382 L95.4730043,17.5454376 L95.4730043,11.8209985 L96.598521,9.71734183 L99.3398978,11.8209985 L103.356682,13.0069668 L104.796318,14.3498992 L107.482281,13.4574879 L111.671468,15.2664298 L112.872167,9.38037474 L114.73063,9.71734183 L116.608768,12.2217222 C118.423035,10.411057 119.575112,9.46394119 120.065002,9.38037474 C120.554891,9.29680829 122.665613,9.68734804 126.397167,10.551994 L128.594604,9.25900216 L130.173104,9.25900216 L130.173104,4.87276566 L136.052999,0 L136.052999,7.71128616 L139.355993,7.03310458 L141.057048,9.71734183 L143.270862,11.1337515 L143.270862,13.4574879 L146.375923,13.0069668 L149.304942,13.4574879 L151.679372,11.8209985 L154.873746,10.8195889 L159.085744,5.82198056 L162.895535,6.58420432 L162.895535,8.88499056 L167.57435,6.58420432 L169.668944,7.03310458 L174.666972,4.56882543 L177.809353,11.1337515 L179.960629,12.2217222 L182.008344,10.8195889 L183.46871,11.5705031 L186.406453,11.5705031 L188.853905,10.551994 L191.630052,11.8209985 L195.055585,11.8209985 L195.055585,13.7801687 L198.359545,13.4574879 L198.359545,14.3498992 L200.999111,14.6760256 L203.209422,15.0650343 C202.9877,15.764009 202.9877,16.1612297 203.209422,16.2566963 C203.431144,16.3521629 204.353691,16.3521629 205.977064,16.2566963 L205.977064,15.2664298 L207.810152,15.0650343 L207.810152,13.7801687 L210.979532,14.3498992 L213.379456,14.1235231 L214.525135,12.7180614 L216.75846,13.4574879 L219.64427,13.0908188 L218.130067,9.06944426 L220.205907,8.88499056 L220.205907,5.82198056 L223.589627,5.48483426 L225.023472,3.37529039 L226.481208,4.56882543 L229.589539,4.87276566 L231.800902,5.03640277 L231.800902,7.03310458 L233.551401,6.85317912 L232.915922,8.08324129 L241.361321,7.71128616 L242.475473,5.48483426 L245.294081,5.32703065 L245.294081,6.85317912 L247.359496,6.58420432 L249.284177,5.32703065 L250.41944,6.58420432 L253.829473,6.85317912 L254.982744,8.08324129 L254.549432,9.25900216 L256.149713,9.25900216 L256.149713,19.0800239 L258.083116,19.0800239 L264.443147,18.5280382 L266.365462,18.5280382 L266.365462,20.9097724 L267.511627,22.712899 L268.700991,22.712899 L268.700991,23.9799513 L269.794687,23.9799513 L269.794687,26.7844966 L270.692078,30 L272.764164,30 L275,30" id="Line-2" stroke="#D56E6A" stroke-linecap="square"></path>
            <g id="Group-3" transform="translate(36.000000, 6.000000)" fill="#FFFFFF" stroke="#D56E6A">
                <circle id="Oval" cx="2.5" cy="12.5" r="2.5"></circle>
                <circle id="Oval" cx="42.5" cy="12.5" r="2.5"></circle>
                <circle id="Oval" cx="92.5" cy="2.5" r="2.5"></circle>
                <circle id="Oval" cx="142.5" cy="4.5" r="2.5"></circle>
                <circle id="Oval" cx="163.5" cy="7.5" r="2.5"></circle>
            </g>
        </g>
    </g>
</svg>