<?xml version="1.0" encoding="UTF-8"?>
<svg width="276px" height="54px" viewBox="0 0 276 54" version="1.1" xmlns="http://www.w3.org/2000/svg" xmlns:xlink="http://www.w3.org/1999/xlink">
    <!-- Generator: Sketch 48.1 (47250) - http://www.bohemiancoding.com/sketch -->
    <title>Group 11</title>
    <desc>Created with Sketch.</desc>
    <defs>
        <linearGradient x1="50%" y1="19.9085799%" x2="50%" y2="137.008189%" id="linearGradient-1">
            <stop stop-color="#F8E8E8" offset="0%"></stop>
            <stop stop-color="#FFFFFF" stop-opacity="0" offset="100%"></stop>
        </linearGradient>
    </defs>
    <g id="CoinHITex" stroke="none" stroke-width="1" fill="none" fill-rule="evenodd" transform="translate(-731.000000, -858.000000)">
        <g id="Group-11" transform="translate(732.000000, 858.000000)">
            <path d="M2.30759741e-14,23.7783359 C1.34844798,25.9153542 2.27505206,26.8717975 2.77981225,26.6476658 C3.28457245,26.4235341 3.89545355,25.9760291 4.61245556,25.305151 C6.3525092,24.8507977 7.41581853,24.8507977 7.80238357,25.305151 C8.49687994,26.1214346 9.85172666,26.2933063 10.4832368,27.069341 C10.7198098,27.3600549 11.8837785,26.7719916 13.9751429,25.305151 C14.5607845,26.8998037 14.9898365,28.0644985 15.2622989,28.7992355 C15.4420813,29.2840464 18.4975837,24.8445632 18.6694871,25.305151 C18.7809489,25.6037954 19.4258073,25.6037954 20.6040623,25.305151 C20.6216862,26.2106479 20.6349225,26.8799074 20.6437714,27.3129296 C20.6510889,27.6710121 24.5534283,28.3346516 22.639449,28.3346516 C22.639449,28.3346516 23.1587113,27.772323 24.1972359,26.6476658 C25.3220808,26.6144737 25.9651145,26.7550321 26.1263372,27.069341 C26.3920121,27.5872828 27.1925342,27.8432461 27.4323238,28.3346516 C27.5688329,28.6144024 28.7429852,26.7977019 28.8696844,27.069341 C29.1195722,27.6050922 30.3055269,27.8045714 30.5059309,28.3346516 C30.5865298,28.5478401 32.2854223,27.5380066 35.6026084,25.305151 L38.9389638,24.7892195 L38.9389638,27.3129296 C42.1960266,26.5797188 43.8713594,26.2058059 43.9649622,26.1911908 C44.1358996,26.1645007 45.0064114,26.5384137 46.5764975,27.3129296 L49.0202185,26.1911908 L51.5255241,27.069341 C52.0282107,25.5237276 52.5636695,24.9356643 53.1319006,25.305151 C54.3431171,26.0927326 55.4495927,25.3880187 56.5325128,26.1911908 C57.6868239,27.0473117 58.6968349,23.8840943 59.6904089,24.7892195 C60.5500181,25.5723056 62.7229673,24.2878737 63.4532837,25.305151 C63.9351584,25.9763671 65.1404981,26.5644304 67.0693028,27.069341 C69.5170616,25.1397073 70.7516478,24.551644 70.7730613,25.305151 C70.7917681,25.9634163 77.5663845,23.485943 77.2994833,24.4671866 C77.0844271,25.2578258 78.1179586,25.9684201 77.2994833,27.069341 C77.0598546,27.3916626 78.1085027,27.3916626 80.4454278,27.069341 C80.8779909,26.2770354 81.5580261,25.9843187 82.4855333,26.1911908 C82.991782,26.304105 83.4958447,25.8367812 83.9977215,24.7892195 C84.799735,25.0662987 85.3955146,25.2719775 85.7850604,25.4062559 C86.57636,25.6790209 87.430524,27.0557942 88.1797861,27.3129296 C88.6667342,27.4800428 89.5811889,26.6388061 90.9231501,24.7892195 L93.1215675,26.1911908 L95.865449,24.7892195 C95.3966232,18.4124786 95.3966232,15.3778207 95.865449,15.6852456 C96.6993425,16.2320579 96.352057,13.7814833 97.0579082,14.2844489 C97.4025077,14.5299989 98.1115122,15.2006856 99.1849217,16.296509 C101.503047,17.2724848 102.844773,17.8861375 103.210101,18.1374669 C103.643399,18.4355564 104.128449,19.0223767 104.665251,19.8979276 L107.409418,19.043335 L111.151041,21.0535573 L113.540261,13.027187 L116.815515,16.6536001 C118.349052,14.3777876 119.543329,13.1689832 120.398345,13.027187 C121.135449,12.9049454 123.082321,13.5002197 126.238959,14.8130098 C126.921736,13.7910266 127.79109,13.1957524 128.847019,13.027187 C128.944906,13.0115606 129.432243,13.0115606 130.30903,13.027187 L130.30903,6.86548263 L135.324473,1 L135.904153,10.6422305 L138.793582,9.78065413 C140.201459,11.9672748 141.199842,13.5162267 141.788733,14.4275099 C142.342775,15.2848671 142.621877,14.9711074 143.085399,15.6852456 C143.408819,16.1835303 143.408819,17.3028934 143.085399,19.043335 L146.267399,18.4335419 C147.511606,18.7925145 148.554588,18.9148137 149.396346,18.8004395 C149.494503,18.7871023 150.229896,17.4089339 151.73145,16.296509 C152.215389,15.9379838 153.126779,15.5435235 154.465622,15.1131281 C156.817135,10.2233338 158.266986,7.83978626 158.815173,7.96248545 C159.031448,8.01089364 161.159993,7.94681869 162.475039,9.08419155 C163.022396,9.55759678 161.427078,11.2274146 162.475039,12.3903777 C162.804839,12.75637 164.638412,11.6543079 167.975759,9.08419155 L169.868497,9.51416828 L174.500867,6.25697595 L177.443963,15.6852456 L179.554933,17.0538802 C180.510015,16.2207228 181.283531,15.7645113 181.875482,15.6852456 C181.990937,15.6697856 183.600365,16.5953519 186.032462,16.296509 C186.765333,16.2064578 187.277419,15.2795954 188.561168,15.1131281 C189.308338,15.0162404 190.0754,16.8129961 191.326482,16.6536001 C192.248947,16.5360719 192.777869,16.8859399 194.442201,16.6536001 C194.882478,16.5921377 193.856415,19.5015463 194.442201,19.4169666 C195.29091,19.2944241 196.553227,19.088915 198.229151,18.8004395 C198.708831,18.7178724 197.563216,20.4272825 198.229151,20.3083158 C198.939385,20.1814352 201.681612,21.306698 202.971429,21.0535573 C203.468677,20.9559668 202.248096,23.1684327 202.971429,23.0152608 C203.637109,22.8742972 204.297037,23.30131 205.490652,23.0152608 C205.900644,22.9170063 204.910926,21.6286167 205.490652,21.4828752 C206.039128,21.3449897 206.621972,21.292936 207.582181,21.0535573 C207.921224,20.9690345 207.62725,19.7935283 208.102337,19.6748146 C208.644953,19.5392268 209.70161,20.5503554 210.717341,20.3083158 C211.526851,20.1154167 211.786987,20.2928237 213.394934,19.8979276 C213.814974,19.7947699 213.959679,18.2808147 214.536243,18.1374669 C215.002699,18.0214944 215.760461,19.0026091 216.504015,18.8248166 C217.236664,18.6496317 218.346575,18.789265 219.796123,18.4335419 C220.275247,18.3159634 217.169611,12.7910261 217.868654,12.6160637 C218.5874,12.4361696 218.383449,12.6483506 219.796123,12.3903777 C220.342223,12.2906526 219.459257,8.09908372 220.296838,7.96248545 C221.073602,7.8358056 222.22285,7.69632311 223.744583,7.54403798 C224.113443,7.50712488 224.250952,5.27663593 224.744953,5.23367025 C225.463671,5.17115971 224.831544,6.07821662 225.940789,6.25697595 C226.956084,6.42059471 230.9432,6.86548263 230.9432,6.86548263 C231.655642,6.86548263 230.45614,8.40714147 230.9432,9.78065413 C231.004737,9.95418873 231.692746,9.86536011 233.007227,9.51416828 C232.117473,10.7978276 232.117473,11.3844028 233.007227,11.2738939 C233.228051,11.2464672 239.311101,10.9435164 241.146694,10.6422305 C241.629065,10.5630563 241.919343,7.67450214 242.658323,7.54403798 C243.128079,7.46110436 243.750165,7.36781826 244.524582,7.26417966 C244.875947,7.21715718 243.99232,9.57610505 244.524582,9.51416828 C245.145525,9.44191201 246.134867,9.29858643 247.492609,9.08419155 C247.880975,9.02286639 248.463382,7.63910001 249.035329,7.54403798 C249.51238,7.46474845 249.233557,9.20323796 250.079908,9.08419155 C250.699735,8.9970077 251.794417,9.14033327 253.363955,9.51416828 C253.570928,10.8061761 253.919753,11.3927512 254.410431,11.2738939 C254.516351,11.2482366 254.516351,11.8326677 254.410431,13.027187 C254.883945,13.2411551 255.372332,13.2411551 255.875592,13.027187 C255.961958,12.9904671 255.961958,13.6857808 255.875592,15.1131281 C257.561776,15.1083114 258.577115,15.008272 258.921609,14.8130098 C259.017797,14.7584896 259.200904,13.599057 260.079039,13.027187 C260.498663,12.7539136 261.000959,12.7539136 261.585926,13.027187 C261.603311,14.0885684 261.783018,14.5076557 262.125048,14.2844489 C262.218899,14.2232022 262.954238,14.2492487 263.642841,13.7191025 C263.903638,13.5183184 264.01664,12.795528 264.514825,12.3903777 C264.802188,12.1566793 265.442138,13.0423941 265.985202,12.6160637 C266.165451,12.4745593 266.633865,13.9495335 266.901757,13.7191025 C267.017724,13.6193519 267.017724,14.2747329 266.901757,15.6852456 L270.406763,15.6852456 C270.165319,11.8844168 270.165319,9.68406541 270.406763,9.08419155 C270.648208,8.4843177 272.179287,6.88066735 275,4.27324051 L275,51 C275,52.6568542 273.656854,54 272,54 L3,54 C1.34314575,54 3.8818616e-15,52.6568542 0,51 L2.30759741e-14,23.7783359 Z" id="Rectangle-5" fill="url(#linearGradient-1)"></path>
            <path d="M0,24.253911 L2.00845506,27.5414822 L4.02339424,25.8243023 L6.89666832,25.8243023 L9.85180438,27.8177675 L13.6203216,25.8243023 L14.953183,29 L17.9739707,25.8243023 L20.2045068,25.8243023 L20.2045068,27.8177675 L22.2607822,29 L23.4279231,26.7447063 L25.4339466,27.5414822 L26.8807151,29 L28.2796632,26.7447063 L29.8293671,29 L34.5441302,25.8243023 L38.4273054,25.3263498 L38.4273054,27.8177675 L43.999593,26.7447063 L45.6878948,27.8177675 L48.400687,26.7447063 L50.7333479,27.8177675 L52.5537636,25.8243023 L56.0632916,26.7447063 L58.6156019,25.8243023 L63.1017999,25.8243023 L66.2701013,27.5414822 L69.930385,25.8243023 L73.0054773,25.8243023 L77.0337346,24.8180044 L77.0337346,27.5414822 L79.1224306,27.8177675 L81.7622765,26.7447063 L83.1970849,25.3263498 L85.8187485,25.8243023 L87.46992,27.8177675 L90.2721291,25.3263498 L92.1008481,26.7447063 L95.3495725,25.3263498 L95.3495725,17.0632815 L96.473634,14.0267119 L99.2114666,17.0632815 L103.223058,18.7751938 L104.660832,20.7136793 L107.343323,19.4255084 L111.527094,22.0366656 L112.72624,13.5403093 L114.582301,14.0267119 L116.458011,17.641715 C118.269932,15.0280704 119.42052,13.6609351 119.909776,13.5403093 C120.399032,13.4196834 122.507025,13.9834167 126.233755,15.231509 L128.428351,13.3651113 L130.00481,13.3651113 L130.00481,7.0337013 L135.877104,0 L135.877104,11.1310265 L139.175827,10.1520903 L140.874683,14.0267119 L143.085635,16.0712598 L143.085635,19.4255084 L146.186682,18.7751938 L149.111913,19.4255084 L151.483274,17.0632815 L154.673518,15.6177748 L158.880071,8.40386653 L162.684936,9.50411528 L162.684936,12.825236 L167.357703,9.50411528 L169.449588,10.1520903 L174.441155,6.59497207 L177.579473,16.0712598 L179.727968,17.641715 L181.773035,15.6177748 L183.231514,16.7016984 L186.165458,16.7016984 L188.609746,15.231509 L191.382304,17.0632815 L194.803408,17.0632815 L194.803408,19.8912891 L198.103096,19.4255084 L198.103096,20.7136793 L200.73925,21.1844336 L202.946704,21.7459567 C202.725269,22.7549073 202.725269,23.3282842 202.946704,23.4660876 C203.168139,23.603891 204.089493,23.603891 205.710767,23.4660876 L205.710767,22.0366656 L207.541485,21.7459567 L207.541485,19.8912891 L210.706768,20.7136793 L213.103589,20.3869116 L214.247788,18.3581668 L216.478225,19.4255084 L219.360304,18.8962317 L217.848058,13.0914898 L219.921215,12.825236 L219.921215,8.40386653 L223.30056,7.91720526 L224.732552,4.87213753 L226.188403,6.59497207 L229.292715,7.0337013 L231.501219,7.26990691 L231.501219,10.1520903 L233.249455,9.8923729 L232.614798,11.6679333 L241.049278,11.1310265 L242.161989,7.91720526 L244.976953,7.68942015 L244.976953,9.8923729 L247.039698,9.50411528 L248.961891,7.68942015 L250.095686,9.50411528 L253.501311,9.8923729 L254.653091,11.6679333 L254.220339,13.3651113 L255.818551,13.3651113 L255.818551,15.6177748 L259.096052,15.231509 L259.9392,13.5403093 L261.917541,13.3651113 L261.917541,14.7186775 L263.629767,14.4583132 L264.263713,12.825236 L265.960686,12.825236 L266.998689,14.0267119 L266.998689,16.0712598 L270.342115,16.0712598 C270.342115,11.6931634 270.342115,9.50411528 270.342115,9.50411528 C270.342115,9.50411528 271.894744,7.96012269 275,4.87213753" id="Line-2" stroke="#D56E6A" stroke-linecap="square"></path>
            <circle id="Oval" stroke="#D56E6A" fill="#FFFFFF" cx="46.5" cy="28.5" r="2.5"></circle>
            <circle id="Oval" stroke="#D56E6A" fill="#FFFFFF" cx="96.5" cy="15.5" r="2.5"></circle>
            <circle id="Oval" stroke="#D56E6A" fill="#FFFFFF" cx="126.5" cy="14.5" r="2.5"></circle>
            <circle id="Oval" stroke="#D56E6A" fill="#FFFFFF" cx="206.5" cy="21.5" r="2.5"></circle>
        </g>
    </g>
</svg>