<?xml version="1.0" encoding="UTF-8"?>
<svg width="277px" height="70px" viewBox="0 0 277 70" version="1.1" xmlns="http://www.w3.org/2000/svg" xmlns:xlink="http://www.w3.org/1999/xlink">
    <!-- Generator: Sketch 48.1 (47250) - http://www.bohemiancoding.com/sketch -->
    <title>Group 20</title>
    <desc>Created with Sketch.</desc>
    <defs></defs>
    <g id="CoinHITex" stroke="none" stroke-width="1" fill="none" fill-rule="evenodd" transform="translate(-1029.000000, -1253.000000)">
        <g id="Group-20" transform="translate(1030.000000, 1253.000000)">
            <path d="M0.0294545396,9.07884264 C0.0234877951,7.14668168 0.0136696152,4.1204008 0,0 L2.60236235,4.72279843 L3.82268896,9.75264447 L6.99267101,10.4688898 L8.12817805,17.5602558 L13.7806258,14.8159432 C14.8112156,15.4937789 15.3840463,15.8936178 15.499118,16.0154599 C15.5594726,16.0793655 16.2342461,16.0793655 17.5234386,16.0154599 C18.2941054,19.677005 18.8450344,21.7008907 19.1762255,22.0871173 C19.8950699,22.925415 20.7197209,22.6998087 21.6501785,21.4102983 L23.7582742,23.9192476 C25.246452,47.3909001 26.0714824,59.1890859 26.2333656,59.3138049 C26.5001288,59.5193262 27.3039303,59.6208935 27.5447022,59.8158851 C27.6817705,59.9268914 28.8607328,59.2060174 28.9879511,59.3138049 C29.2388626,59.5263931 30.4296756,59.6055472 30.6309006,59.8158851 C30.7118296,59.9004792 32.4176817,59.4997733 35.7484569,58.6137673 L39.09848,58.4090436 L39.09848,59.4104618 C42.3688855,59.1195209 44.0510814,58.9711507 44.1450676,58.9653514 C44.3167053,58.9547607 45.1907832,59.1031308 46.7673013,59.4104618 L49.2210332,58.9653514 L51.736602,59.3138049 C52.2413478,58.7004994 52.7790002,58.4671535 53.3495591,58.6137673 C54.5657374,58.9262828 55.6767458,58.6466495 56.7641021,58.9653514 C57.9231419,59.3050636 58.9372905,58.0498864 59.9349347,58.4090436 C60.7980654,58.7197753 62.9799162,58.2101076 63.7132245,58.6137673 C64.1970732,58.8801085 65.4073506,59.1134544 67.3440568,59.3138049 C69.801843,58.5481186 71.0414867,58.3147727 71.062988,58.6137673 C71.0817715,58.8749696 77.8841405,57.8918983 77.616146,58.2812597 C77.4002088,58.5949885 78.4379742,58.8769551 77.616146,59.3138049 C77.3755356,59.4417034 78.4284796,59.4417034 80.774978,59.3138049 C81.2093131,58.9994149 81.8921341,58.8832637 82.8234409,58.9653514 C83.3317635,59.0101562 83.8378912,58.8247203 84.3418239,58.4090436 C85.147123,58.5189898 85.7453432,58.6006039 86.1364848,58.6538861 C86.931026,58.7621203 87.7886892,59.3084295 88.5410207,59.4104618 C89.0299635,59.476773 89.9481643,59.1429669 91.2956231,58.4090436 L93.5030464,58.9653514 L96.2581684,58.4090436 C95.7874221,55.8787276 95.7874221,54.6745632 96.2581684,54.7965507 C97.095478,55.013528 96.7467699,54.0411303 97.4555125,54.240709 C97.8015238,54.3381442 98.5134328,54.6042754 99.5912395,55.0391024 C101.918861,55.4263735 103.266084,55.6698733 103.632909,55.7696018 C104.067981,55.8878849 104.555018,56.1207375 105.094019,56.4681596 L107.849428,56.1290539 L111.606379,56.9267181 L114.005387,53.7418225 L117.294058,55.1807976 C118.833877,54.2777462 120.033046,53.7980878 120.891565,53.7418225 C121.631689,53.6933166 123.586536,53.9295237 126.756106,54.4504441 C127.44168,54.0449171 128.314595,53.8087099 129.37485,53.7418225 C129.473138,53.7356219 129.962471,53.7356219 130.84285,53.7418225 L130.84285,51.2968338 L135.878839,48.969387 L136.460893,52.7954623 L139.362159,52.4535854 C140.775803,53.3212451 141.778277,53.9358754 142.36958,54.2974762 C142.925892,54.6376789 143.206137,54.5131778 143.671559,54.7965507 C143.996303,54.994272 143.996303,55.4384398 143.671559,56.1290539 L146.866593,55.8870855 C148.115897,56.0295273 149.163152,56.0780561 150.008358,56.032672 C150.106917,56.0273797 150.845323,55.4805171 152.353029,55.0391024 C152.83895,54.8968382 153.754074,54.7403148 155.098401,54.5695322 C157.459547,52.6292424 158.915338,51.6834413 159.465771,51.7321288 C159.682932,51.7513374 161.820196,51.7259122 163.140629,52.1772263 C163.690228,52.3650753 162.088375,53.0276657 163.140629,53.489134 C163.47178,53.6343612 165.312865,53.1970586 168.663883,52.1772263 L170.564375,52.3478427 L175.215722,51.0553759 L178.170875,54.7965507 L180.290492,55.3396303 C181.249487,55.0090302 182.026172,54.8280036 182.620548,54.7965507 C182.736475,54.7904161 184.352496,55.1576845 186.794556,55.0391024 C187.53043,55.0033698 188.044614,54.6355871 189.333622,54.5695322 C190.083853,54.5310868 190.854057,55.2440466 192.110264,55.1807976 C193.036508,55.1341619 193.567597,55.272991 195.238747,55.1807976 C195.680827,55.1564091 194.650561,56.3108739 195.238747,56.2773124 C196.090933,56.228687 197.35842,56.1471402 199.04121,56.032672 C199.522856,55.999909 198.372548,56.6782097 199.04121,56.6310033 C199.754353,56.5806565 202.507814,57.0271653 203.802915,56.9267181 C204.302201,56.8879938 203.076619,57.765909 203.802915,57.7051298 C204.471323,57.6491948 205.133953,57.8186353 206.332459,57.7051298 C206.744131,57.666142 205.750358,57.1549039 206.332459,57.0970731 C206.883182,57.0423596 207.468413,57.0217045 208.432556,56.9267181 C208.772987,56.8931791 208.477809,56.4267335 208.954842,56.3796275 C209.499682,56.3258257 210.560667,56.7270455 211.580559,56.6310033 C212.393386,56.5544601 212.654587,56.6248559 214.269121,56.4681596 C214.690882,56.4272262 214.836179,55.8264828 215.415105,55.7696018 C215.883472,55.7235835 216.644338,56.1128937 217.390939,56.0423449 C218.126589,55.9728308 219.241047,56.0282379 220.696533,55.8870855 C221.17762,55.8404299 218.059261,53.6481129 218.761168,53.5786871 C219.482859,53.5073045 219.278071,53.5914987 220.696533,53.489134 C221.24487,53.4495627 220.358287,51.7863316 221.199299,51.7321288 C221.979245,51.6818618 223.133201,51.6265146 224.661169,51.5660872 C225.03154,51.55144 225.169612,50.6663731 225.665636,50.6493241 C226.387299,50.6245197 225.752582,50.9844435 226.866371,51.0553759 C227.885825,51.1203005 231.889274,51.2968338 231.889274,51.2968338 C232.604635,51.2968338 231.400219,51.9085701 231.889274,52.4535854 C231.951063,52.5224446 232.641891,52.487197 233.961757,52.3478427 C233.068358,52.8572039 233.068358,53.0899592 233.961757,53.0461088 C234.183485,53.0352258 240.291455,52.9150137 242.134568,52.7954623 C242.618915,52.7640457 242.910382,51.6178559 243.652389,51.5660872 C244.12407,51.5331788 244.748704,51.4961625 245.526293,51.4550383 C245.879098,51.4363796 244.991851,52.3724195 245.526293,52.3478427 C246.149781,52.3191712 247.143176,52.262299 248.506479,52.1772263 C248.896436,52.1528922 249.48123,51.6038082 250.055519,51.5660872 C250.534524,51.5346248 250.254559,52.2244644 251.104378,52.1772263 C251.726744,52.1426314 252.825911,52.1995035 254.401878,52.3478427 C254.609699,52.8605165 254.959953,53.0932719 255.45264,53.0461088 C255.558995,53.0359279 255.558995,53.2678325 255.45264,53.7418225 C255.928094,53.8267259 256.418482,53.8267259 256.923804,53.7418225 C257.010524,53.7272519 257.010524,54.0031551 256.923804,54.5695322 L256.923804,58.9653514 C263.493386,58.9957402 266.899393,58.8919184 267.141826,58.6538861 C267.184688,58.6118022 267.180086,60.0851935 267.991107,60.8328254 C268.636843,61.4280918 270.035663,61.1827293 270.682749,62.0940247 C271.134249,62.7298743 271.5484,63.7564423 271.925202,65.1737289 L275.927289,65.1737289 L275.997582,66.8762384 C276.065932,68.5316823 274.779339,69.9290933 273.123895,69.9974434 C273.082664,69.9991457 273.041402,69.9999972 273.000136,69.9999972 L3.01323622,69.9999921 C1.35638631,69.9999921 0.0132440619,68.6568499 0.0132440448,67 C0.0132440448,66.9958319 0.0132527314,66.9916638 0.0132701046,66.9874957 C0.0879498068,49.0707166 0.0933446185,29.7678323 0.0294545396,9.07884264 Z" id="Rectangle-5" fill="#D56E6A" opacity="0.156816123"></path>
            <path d="M0,0 L1.40924203,4.4745112 L3.10899583,4.4745112 L4.22772608,9.60498378 L5.45676994,9.60498378 L7.27376807,10.2135958 L8.13375224,17.7392513 L13.8209679,14.7568213 L15.4681639,16.348798 L17.0703104,15.5536758 L19.3741901,22.0613208 L21.6512775,22.0613208 L21.6512775,19.669025 L23.8312068,23.1977046 L26.5735655,59.3780872 L27.9762553,58.4916974 L29.5301041,59.3780872 L34.2574776,58.1299544 L38.1510389,57.934246 L38.1510389,58.9134387 L43.7382304,58.4916974 L45.4310479,58.9134387 L48.1510958,58.4916974 L50.4899958,58.9134387 L52.3152804,58.1299544 L55.8341952,58.4916974 L58.3933321,58.1299544 L62.8915292,58.1299544 L66.0683047,58.8048513 L69.7383784,58.1299544 L72.8216954,58.1299544 L76.8607269,57.7344529 L76.8607269,58.8048513 L78.9550095,58.9134387 L81.601916,58.4916974 L83.0405621,57.934246 L85.6692377,58.1299544 L87.3248255,58.9134387 L90.1345295,57.934246 L91.9681397,58.4916974 L95.2255533,57.934246 L95.2255533,54.6866426 L96.3526213,53.4931907 L99.0977767,54.6866426 L103.120098,55.3594692 L104.561718,56.121345 L107.251383,55.6150599 L111.446344,56.6413134 L112.648698,53.3020217 L114.509723,53.4931907 L116.39045,54.9139822 C118.207217,53.886751 119.360882,53.3494308 119.851447,53.3020217 C120.342011,53.2546126 122.455642,53.4761746 126.19234,53.9667077 L128.392806,53.2331643 L129.973482,53.2331643 L129.973482,50.7447534 L135.861482,47.9803236 L135.861482,52.3551101 L139.169028,51.9703624 L140.872428,53.4931907 L143.089293,54.2967519 L143.089293,55.6150599 L146.198634,55.3594692 L149.13169,55.6150599 L151.509393,54.6866426 L154.70817,54.1185203 L158.925974,51.2832645 L162.741016,51.7156912 L162.741016,53.0209791 L167.42628,51.7156912 L169.523761,51.9703624 L174.528678,50.5723213 L177.67539,54.2967519 L179.829632,54.9139822 L181.880169,54.1185203 L183.342548,54.5445309 L186.28434,54.5445309 L188.735166,53.9667077 L191.515139,54.6866426 L194.945393,54.6866426 L194.945393,55.798124 L198.253907,55.6150599 L198.253907,56.121345 L200.897112,56.3063638 L203.11047,56.5270572 C202.888442,56.9236013 202.888442,57.1489536 203.11047,57.2031139 C203.332497,57.2572743 204.256316,57.2572743 205.881926,57.2031139 L205.881926,56.6413134 L207.71754,56.5270572 L207.71754,55.798124 L210.891289,56.121345 L213.294521,55.9929167 L214.44178,55.1955666 L216.678183,55.6150599 L219.567971,55.4070402 L218.05168,53.1256238 L220.130382,53.0209791 L220.130382,51.2832645 L223.518765,51.0919938 L224.954587,49.895202 L226.414332,50.5723213 L229.526947,50.7447534 L231.741358,50.8375885 L231.741358,51.9703624 L233.49427,51.8682867 L232.857915,52.5661287 L241.314955,52.3551101 L242.430642,51.0919938 L245.253135,51.0024682 L245.253135,51.8682867 L247.321398,51.7156912 L249.248731,51.0024682 L250.385559,51.7156912 L253.800293,51.8682867 L254.955153,52.5661287 L254.521244,53.2331643 L256.12373,53.2331643 L256.12373,58.8048513 L258.059799,58.8048513 L264.428596,58.4916974 L266.35356,58.4916974 L266.35356,59.842909 L267.501306,60.8658633 L268.692308,60.8658633 L268.692308,61.5846907 L269.787512,61.5846907 L269.787512,63.1757724 L270.686141,65 L272.761082,65 L275,65" id="Line-2" stroke="#D56E6A" stroke-linecap="square"></path>
            <g id="Group-3" transform="translate(36.000000, 48.000000)" fill="#FFFFFF" stroke="#D56E6A">
                <circle id="Oval" cx="2.5" cy="10.5" r="2.5"></circle>
                <circle id="Oval" cx="42.5" cy="10.5" r="2.5"></circle>
                <circle id="Oval" cx="94.5" cy="2.5" r="2.5"></circle>
                <circle id="Oval" cx="141.5" cy="3.5" r="2.5"></circle>
                <circle id="Oval" cx="214.5" cy="3.5" r="2.5"></circle>
            </g>
        </g>
    </g>
</svg>