<?xml version="1.0" encoding="UTF-8"?>
<svg width="276px" height="80px" viewBox="0 0 276 80" version="1.1" xmlns="http://www.w3.org/2000/svg" xmlns:xlink="http://www.w3.org/1999/xlink">
    <!-- Generator: Sketch 48.1 (47250) - http://www.bohemiancoding.com/sketch -->
    <title>Group 17</title>
    <desc>Created with Sketch.</desc>
    <defs>
        <linearGradient x1="50%" y1="32.5116668%" x2="50%" y2="100%" id="linearGradient-1">
            <stop stop-color="#F8E9E9" offset="0%"></stop>
            <stop stop-color="#FFFFFF" stop-opacity="0.00469882246" offset="100%"></stop>
        </linearGradient>
    </defs>
    <g id="CoinHITex" stroke="none" stroke-width="1" fill="none" fill-rule="evenodd" transform="translate(-135.000000, -1243.000000)">
        <g id="Group-17" transform="translate(135.000000, 1234.000000)">
            <path d="M2.7961339,81.7087599 C3.83177444,82.1118842 4.60457682,82.1118842 5.11454102,81.7087599 C5.62450523,81.3056355 6.29535559,80.1644347 7.12709212,78.2851574 C8.79303238,79.0030786 9.99012143,79.2550375 10.7183593,79.0410342 C10.7687513,79.0262258 10.7687513,77.9879976 10.7183593,75.9263498 C11.8601548,76.1723327 12.856728,76.1723327 13.7080788,75.9263498 C13.7880746,75.9032364 14.8587601,77.593269 16.461707,77.125041 C17.1238975,76.9316122 17.4279185,70.2384857 18.7168176,69.8563813 C19.3546964,69.667277 20.1337943,70.148004 21.1507293,69.8563813 C21.5935411,69.7293978 21.6159104,72.8264377 22.23601,72.6506709 C22.6979232,72.5197418 23.7113817,72.8514001 24.4139636,72.6506709 C24.8841272,72.5163441 23.6818343,68.2964099 24.4139636,68.0854425 C25.0383537,67.9055208 25.8686248,68.0224928 26.9610697,67.7156335 C27.6709616,67.5162303 27.845675,63.2167453 29.0419995,62.8842064 C29.7971375,62.6743028 31.3757925,63.2164817 32.6133998,62.8842064 C33.1527761,62.7393935 34.3620487,65.0545332 35.1290887,64.8505701 C36.632714,64.4507421 40.5277709,58.7828332 40.5277709,58.7828332 C40.5277709,58.7828332 40.8795207,57.0282595 41.5830204,53.5191121 C45.075592,54.1320133 47.3652,54.3128796 48.4518444,54.0617112 C48.5763069,54.0329428 50.3354924,55.922233 50.3354924,55.922233 C51.3381131,55.922233 52.6902591,55.8156095 54.3919304,55.6023623 C55.0867185,55.5152941 54.9998532,58.5340536 55.9915187,58.3626537 C56.3284246,58.3044227 56.4625198,61.7550005 56.8859859,61.6718067 C57.5175309,61.5477338 58.1510115,60.828533 59.255215,60.5630173 C59.6918227,60.458031 60.2327838,63.0425024 60.8528738,62.8842064 C61.42952,62.7370006 63.9593896,57.775825 64.9255638,57.5108178 C65.6725697,57.3059251 65.2398609,57.8731139 66.55695,57.5108178 C67.3709304,57.2869134 66.10326,63.2615548 67.4680498,62.8842064 C68.170989,62.6898518 69.484547,63.1950457 70.5617234,62.8842064 C71.1250713,62.7216418 72.3693271,57.0879999 73.1892206,56.8448428 C73.6321161,56.7134926 72.560515,53.0437791 73.1892206,52.8601507 C73.7519494,52.6957925 75.578964,52.5530569 76.5120552,52.2926852 C76.9153802,52.1801406 77.865921,54.7470189 78.439595,54.5896454 C79.1217099,54.4025239 80.0613867,51.4543983 81.3332147,51.1016452 C81.9338991,50.9350399 80.4032165,47.3047672 81.3332147,47.0512802 C82.2250112,46.8082057 81.8833858,47.4783941 83.5425856,47.0512802 C84.0755834,46.914075 87.5963042,56.5807639 88.3332519,56.3934207 C89.2710114,56.1550282 89.0621029,55.0832865 90.8109014,54.5896454 C91.6721873,54.3465264 91.4864569,54.9871035 92.8575773,54.5896454 C93.6548148,54.3585435 93.2920717,57.8778408 94.5349002,57.5108178 C95.38306,57.2603454 95.8585103,57.9362551 97.2415064,57.5108178 C98.0592659,57.2592585 98.96378,60.3303719 100.262471,59.9199129 C101.324138,59.5843668 104.46901,51.0364218 106.354193,50.4106031 C107.304051,50.0952815 108.522811,49.7011528 110.010473,49.228217 C110.808275,48.9745916 111.004935,46.8190742 112.20513,46.4461686 C113.188335,46.1406824 114.388299,46.2806134 116.071816,45.7774811 C116.446491,45.6655066 114.2705,40.7163643 114.370867,37.8459186 C114.432292,36.0892008 116.637281,36.1643445 117.017962,35.5164859 C117.279656,35.0711232 118.219975,36.502144 119.838919,39.8095482 L122.720168,42.8437688 C124.338655,43.1469512 125.681306,43.1469512 126.748122,42.8437688 C126.896466,42.8016103 126.172465,41.1562738 128.190605,40.5679752 C128.925393,40.3537804 130.168708,40.3537804 131.920549,40.5679752 C130.872112,36.9204606 130.872112,34.9473882 131.920549,34.648758 C132.748363,34.4129685 133.025252,34.3515657 134.298003,34.0117693 C134.471134,33.9655473 133.838326,32.2000071 134.298003,30.1413173 C135.088707,26.6001066 137.101627,21.9376521 137.5,21.8341748 C138.150583,21.6651859 139.975779,22.1427458 141.251434,21.8341748 C141.832821,21.6935417 146.055469,16.1322292 146.921762,15.9187886 C147.310738,15.8229512 148.250125,15.8229512 149.739924,15.9187886 L151.505525,12.1119519 L155.77802,13.2748488 L158.545437,11 L160.023311,17.3187355 L161.780543,20.0924879 C162.739286,23.946037 163.218658,25.6903453 163.218658,25.325413 C163.218658,24.9604807 164.139038,25.1429468 165.979797,25.8728115 C165.895964,28.1756063 166.294946,29.467322 167.176745,29.7479585 C167.722545,29.9216623 168.581195,28.9113569 169.752692,26.7170424 C172.787954,28.2759479 174.995435,29.4173728 176.375137,30.1413173 C177.754839,30.8652617 179.042289,31.1925767 180.237489,31.1232622 C185.719582,23.9690187 188.892957,20.2920939 189.757613,20.0924879 C190.512487,19.9182253 189.199839,22.1208653 190.463818,21.8341748 C191.395794,21.622788 188.770616,21.7107627 190.463818,21.1919092 C190.948444,21.0434037 192.93886,32.5048814 193.61166,32.2909073 C194.090031,32.1387686 194.975513,32.9247188 196.268106,34.648758 C198.219448,35.4109071 199.438716,35.7001498 199.92591,35.5164859 C200.598454,35.2629481 198.719988,40.3240378 199.92591,39.8095482 C200.340129,39.6328273 204.188317,43.1059001 204.77402,42.8437688 C205.14344,42.6784345 205.888863,42.9416352 207.010289,43.6333709 C208.334008,50.366211 209.155863,53.6614581 209.475853,53.5191121 C209.841327,53.3565329 211.414413,52.9477239 214.19511,52.2926852 C214.768179,53.9877829 215.336785,54.7534363 215.900929,54.5896454 C216.685701,54.3617985 217.689556,54.8635462 219.226978,54.5896454 C219.47542,54.545384 220.998883,60.5657259 223.797368,72.6506709 C224.141999,69.3928404 224.687874,67.8710976 225.434995,68.0854425 C226.460757,68.3797279 225.434995,64.8505701 225.434995,64.8505701 C225.914854,64.8505701 226.809011,64.8505701 228.117468,64.8505701 L229.218681,68.0854425 C232.024983,67.6701428 233.441126,67.6701428 233.467111,68.0854425 C233.738664,72.4255348 233.119884,64.3561736 233.467111,69.2306179 C233.528449,70.0916901 233.972596,70.3002779 234.799552,69.8563813 L238.938645,66.6610161 L241.313183,66.6610161 C241.594044,67.7658609 241.853173,68.8309826 242.090571,69.8563813 C242.223785,70.4317771 243.01338,70.4317771 244.459355,69.8563813 L249.052012,68.0854425 C248.693512,69.3403349 248.693512,69.9306478 249.052012,69.8563813 C249.679357,69.7264208 249.367926,70.2419929 250.739665,69.8563813 C251.132036,69.7460816 252.422157,66.8319951 253,66.6610161 C253.481969,66.5184056 252.144923,67.9297509 253,67.7156335 C253.939326,67.4804195 255.272391,66.3072408 255.722267,66.6610161 C256.022185,66.8968664 256.022185,67.9619881 255.722267,69.8563813 L260.37639,72.6506709 L262.181613,74.4363767 L265.645077,75.9263498 L267.863628,64.8505701 C269.26248,68.0860876 270.083873,69.1643784 270.327807,68.0854425 C270.57174,67.0065065 272.129138,68.0667769 275,71.2662536 L275,86 C275,87.6568543 273.656854,89 272,89 C271.99814,89 271.99628,88.9999983 271.99442,88.9999948 L0,88.4941175 L2.7961339,81.7087599 Z" id="Rectangle-5" fill="url(#linearGradient-1)" transform="translate(137.500000, 50.000000) scale(-1, 1) translate(-137.500000, -50.000000) "></path>
            <path d="M0,88 L2.33672315,81.7796573 C3.73254526,82.3039663 4.60945951,82.3039663 4.9674659,81.7796573 C5.96605895,80.3171937 6.47642608,79.2182049 6.49856729,78.4826911 L10.3953645,79.4444908 L10.3953645,76.2254963 L13.5015731,76.2254963 L16.1692404,77.8048681 L18.0534005,70.3102728 L20.6421606,70.3102728 L21.6988077,73.0007426 L24.1398699,73.0007426 L24.1398699,68.4181278 L26.6507345,68.4181278 L28.340156,63.1607913 L32.3583487,63.1607913 L34.6178234,65.2084368 L39.8666635,59.165623 L40.8110197,53.9220202 L48.5166023,54.4438995 L49.847401,56.2412379 L53.7249773,56.2412379 L55.7664458,58.5870369 L56.595982,62.4373371 L58.8104392,60.8597374 L60.3476104,63.1607913 L64.2970123,57.7754215 L66.2454109,57.7754215 L67.0820285,63.1607913 L70.598453,63.1607913 L72.7188286,57.0001338 L73.2418411,53.117493 L75.8579152,52.643903 L77.8310988,55.3148799 L80.8305805,51.3790765 L80.8305805,47.5052962 L83.4845907,47.5052962 L86.6762821,53.9220202 L87.992918,57.0001338 L89.8442001,55.3148799 L93.1330079,55.3148799 L93.9817652,57.7754215 L97.2129101,57.7754215 L99.4900883,60.8597374 L105.929111,50.770808 L109.237139,49.9503321 L111.583614,46.9076602 L115.586127,46.3237578 L114.045478,37.714923 L116.869025,34.9425345 L120.69081,41.2914762 L122.75858,43.3976006 L125.981632,43.3976006 L127.635141,40.7992792 L131.039274,40.7992792 L131.039274,34.9425345 L134.071634,34.3542019 L134.071634,30.4746624 L137.5,21.4884135 L141.380851,21.4884135 L146.482087,15.8564597 L149.506576,15.8564597 L151.443491,11.1865748 L155.63738,12.8349962 L158.836917,10 L160.013567,17.0112034 L161.929768,20.3652992 L163.303217,25.5172229 L165.874033,25.5172229 L167.281663,29.4743197 L170.354834,25.5172229 L177.100894,30.4746624 C178.670226,31.0700417 179.830304,31.0700417 180.581128,30.4746624 C181.331952,29.879283 184.421464,26.5094953 189.849663,20.3652992 L192.910317,29.4743197 L193.813925,32.7664128 L195.971799,34.3542019 C198.315103,34.5009296 199.598838,34.6970405 199.823005,34.9425345 C200.047172,35.1880286 200.047172,36.8044861 199.823005,39.7919071 L202.057695,41.2914762 L204.855862,43.3976006 L206.709168,43.3976006 L209.046655,53.9220202 L211.241117,53.117493 L214.103027,52.643903 L215.594434,54.4438995 L219.122136,53.9220202 L223.844784,74.0432102 L225.420657,68.4181278 L225.420657,65.2084368 L228.190648,65.2084368 L229.263864,68.4181278 L233.347221,68.4181278 L233.347221,70.3102728 L234.801363,70.3102728 L237.170554,68.4181278 L238.75802,66.7210124 L241.756827,66.7210124 L241.756827,70.3102728 L244.606523,70.3102728 L248.640627,68.4181278 L248.640627,70.3102728 L250.745581,70.3102728 L253.236056,66.7210124 L255.581886,66.7210124 L255.581886,70.3102728 L258.899825,71.9884782 L260.631427,71.9884782 L261.756127,74.9827989 L263.489478,74.9827989 L265.849157,76.2254963 L268.130692,65.2084368 L269.172441,66.7210124 L270.284645,68.4181278 L275,70.3102728" id="Line-2" stroke="#D56E6A" stroke-linecap="square" transform="translate(137.500000, 49.000000) scale(-1, 1) translate(-137.500000, -49.000000) "></path>
            <g id="Group-2" transform="translate(136.000000, 46.500000) rotate(25.000000) translate(-136.000000, -46.500000) translate(75.000000, 24.000000)" fill="#FFFFFF" stroke="#D56E6A">
                <circle id="Oval" cx="2.72618262" cy="41.5630779" r="2.5"></circle>
                <circle id="Oval" cx="22.5" cy="16.5" r="2.5"></circle>
                <circle id="Oval" cx="119.5" cy="2.5" r="2.5"></circle>
                <circle id="Oval" cx="91.5" cy="11.5" r="2.5"></circle>
            </g>
        </g>
    </g>
</svg>