<?xml version="1.0" encoding="UTF-8"?>
<svg width="276px" height="23px" viewBox="0 0 276 23" version="1.1" xmlns="http://www.w3.org/2000/svg" xmlns:xlink="http://www.w3.org/1999/xlink">
    <!-- Generator: Sketch 48.1 (47250) - http://www.bohemiancoding.com/sketch -->
    <title>Group 16</title>
    <desc>Created with Sketch.</desc>
    <defs></defs>
    <g id="CoinHITex" stroke="none" stroke-width="1" fill="none" fill-rule="evenodd" transform="translate(-1030.000000, -1094.000000)">
        <g id="Group-16" transform="translate(1030.000000, 1095.000000)">
            <path d="M0.37959818,10.2983186 C0.885729086,10.2095117 2.42738944,10.3201863 5.00457923,10.6303422 C6.74935811,10.4503155 7.81555495,10.4503155 8.20316973,10.6303422 C8.89955207,10.9537753 10.258078,11.0218755 10.8913031,11.3293609 C11.1285185,11.4445494 12.295648,11.2115432 14.3926916,10.6303422 C14.9799236,11.2621857 15.4101407,11.7236686 15.6833431,12.0147907 C15.8636137,12.2068856 18.9274135,10.4478452 19.0997837,10.6303422 C19.2115483,10.748673 19.8581578,10.748673 21.0396125,10.6303422 C21.0572841,10.989124 21.0705565,11.2543023 21.0794294,11.4258771 C21.0867668,11.5677588 24.9997033,11.8307103 23.0805263,11.8307103 C23.0805263,11.8307103 23.6011988,11.6079009 24.6425436,11.162282 C25.770443,11.1491305 26.415223,11.2048234 26.5768835,11.3293609 C26.8432799,11.5345831 27.6459759,11.6360025 27.8864166,11.8307103 C28.0232964,11.941555 29.2006372,11.2217303 29.3276805,11.3293609 C29.5782469,11.5416397 30.7674221,11.6206786 30.9683704,11.8307103 C31.0491881,11.9151813 32.752694,11.5150586 36.0788883,10.6303422 L39.4243038,10.4259166 L39.4243038,11.4258771 C42.6902114,11.1353597 44.3700937,10.9872055 44.4639507,10.9814146 C44.6353523,10.9708393 45.508228,11.1189935 47.0825778,11.4258771 L49.5329349,10.9814146 L52.0450439,11.3293609 C52.5490956,10.7169481 53.0860085,10.4839419 53.6557827,10.6303422 C54.8702883,10.9424029 55.9797686,10.6631766 57.0656294,10.9814146 C58.2230752,11.3206323 59.235829,10.0672821 60.232101,10.4259166 C61.0940446,10.736196 63.2728946,10.2272702 64.0051943,10.6303422 C64.4883776,10.8962958 65.6969904,11.129302 67.631033,11.3293609 C70.0854388,10.5647891 71.3233776,10.3317829 71.3448492,10.6303422 C71.3636069,10.8911643 78.1566203,9.90952401 77.8889944,10.2983186 C77.6733541,10.6115908 78.7096922,10.893147 77.8889944,11.3293609 C77.6487149,11.4570732 78.7002107,11.4570732 81.0434819,11.3293609 C81.4772196,11.0154285 82.1591015,10.8994464 83.0891274,10.9814146 C83.5967509,11.0261542 84.1021825,10.8409882 84.6054221,10.4259166 C85.4096136,10.5357027 86.0070111,10.617198 86.3976146,10.6704027 C87.191063,10.7784794 88.0475467,11.3239933 88.7988434,11.4258771 C89.2871139,11.4920918 90.2040518,11.1587716 91.5496573,10.4259166 L93.7540446,10.9814146 L96.5053773,10.4259166 C96.0352785,7.89928355 96.0352785,6.69687198 96.5053773,6.81868186 C97.3415354,7.03534333 96.9933068,6.06436099 97.7010747,6.26364925 C98.0466101,6.36094263 98.7575399,6.6266864 99.8338643,7.06088057 C102.158284,7.44758793 103.503655,7.69073329 103.869975,7.79031664 C104.304449,7.90842759 104.790816,8.14094126 105.329076,8.48785763 L108.080695,8.1492455 L111.832478,8.94574862 L114.228187,5.7654889 L117.512335,7.20236946 C119.050037,6.30063249 120.247556,5.8216723 121.104895,5.7654889 C121.844,5.71705356 123.796159,5.95291693 126.961369,6.47307903 C127.646,6.06814231 128.517715,5.83227893 129.576512,5.7654889 C129.674664,5.75929731 130.163325,5.75929731 131.042492,5.7654889 L131.042492,3.32405901 L136.071555,1 L136.652809,4.82050618 L139.550085,4.47912689 C140.961785,5.34552371 141.96288,5.95925934 142.553369,6.3203338 C143.108916,6.66004133 143.388776,6.53572146 143.853557,6.81868186 C144.177855,7.0161154 144.177855,7.45963661 143.853557,8.1492455 L147.044198,7.90762936 C148.291783,8.04986378 149.337598,8.09832195 150.181641,8.05300387 C150.280065,8.04771935 151.017455,7.50165266 152.523087,7.06088057 C153.00834,6.91882339 153.922205,6.7625278 155.264683,6.59199378 C157.622583,4.65452826 159.076371,3.71010382 159.626047,3.75872048 C159.842909,3.77790108 161.977234,3.7525129 163.29585,4.20317004 C163.844694,4.39074568 162.245044,5.05237158 163.29585,5.51316825 C163.626546,5.65818405 165.465099,5.22151798 168.811508,4.20317004 L170.709386,4.37353816 L175.354336,3.08295261 L178.305425,6.81868186 L180.422127,7.36097102 C181.379802,7.03085205 182.155419,6.850089 182.748978,6.81868186 C182.864746,6.81255621 184.478544,7.17928999 186.917246,7.06088057 C187.652107,7.02519988 188.165584,6.65795254 189.452819,6.59199378 C190.202018,6.55360434 190.971163,7.26552638 192.225642,7.20236946 C193.150612,7.15580169 193.680971,7.29442864 195.349822,7.20236946 C195.791294,7.17801643 194.762446,8.33080092 195.349822,8.29728818 C196.200836,8.24873361 197.466581,8.16730551 199.147056,8.05300387 C199.628039,8.02028863 198.479313,8.69760202 199.147056,8.65046428 C199.859218,8.60019083 202.608892,9.04604965 203.902212,8.94574862 C204.400811,8.90708069 203.176915,9.78371807 203.902212,9.72302731 C204.5697,9.6671738 205.231419,9.83636758 206.428276,9.72302731 C206.839382,9.68409631 205.846976,9.17360233 206.428276,9.11585571 C206.978242,9.06122184 207.562669,9.0405968 208.525485,8.94574862 C208.865448,8.91225845 208.570676,8.44649188 209.047053,8.39945438 C209.591143,8.34573092 210.65067,8.74636673 211.669159,8.65046428 C212.480867,8.57403256 212.74171,8.64432589 214.354023,8.48785763 C214.775204,8.44698383 214.920301,7.84711482 215.498431,7.79031664 C215.966154,7.74436529 216.725974,8.13310883 217.471547,8.06266274 C218.206186,7.99324985 219.319111,8.04857627 220.772595,7.90762936 C221.25302,7.86104166 218.138951,5.67191569 218.839891,5.60259098 C219.56059,5.53131221 219.356084,5.61538391 220.772595,5.51316825 C221.320178,5.47365454 220.434814,3.81284432 221.27467,3.75872048 C222.053543,3.70852658 223.205912,3.65325993 224.731778,3.59292055 C225.101639,3.5782946 225.239521,2.69451602 225.734863,2.67749188 C226.455534,2.65272356 225.82169,3.01212344 226.933948,3.08295261 C227.951999,3.14778267 231.949942,3.32405901 231.949942,3.32405901 C232.664319,3.32405901 231.46156,3.93490493 231.949942,4.47912689 C232.011646,4.54788588 232.701524,4.51268963 234.019575,4.37353816 C233.127404,4.88215788 233.127404,5.11457445 234.019575,5.07078788 C234.240998,5.05992072 240.340567,4.93988359 242.181145,4.82050618 C242.664826,4.78913528 242.955892,3.64461389 243.696879,3.59292055 C244.16791,3.56006006 244.791686,3.52309764 245.568205,3.4820333 C245.920525,3.46340175 245.034498,4.39807915 245.568205,4.37353816 C246.190835,4.34490832 247.182864,4.28811895 248.544292,4.20317004 C248.933713,4.17887139 249.517702,3.63058663 250.091202,3.59292055 C250.569548,3.56150394 250.289968,4.25033937 251.138618,4.20317004 C251.760128,4.16862549 252.857783,4.22541487 254.431583,4.37353816 C254.639118,4.88546574 254.988891,5.11788231 255.4809,5.07078788 C255.587108,5.0606218 255.587108,5.29218881 255.4809,5.7654889 C255.9557,5.85026871 256.445413,5.85026871 256.95004,5.7654889 C257.036641,5.75093951 257.036641,6.02644114 256.95004,6.59199378 L256.95004,10.9814146 C263.510587,11.0117592 266.91191,10.9080885 267.15401,10.6704027 C267.196813,10.62838 267.192217,12.0996267 268.002122,12.8461704 C268.64697,13.4405703 270.043866,13.1955649 270.690062,14.1055339 C271.140941,14.7404579 271.554522,15.7655318 271.930806,17.1807554 L275.927389,17.1807554 L275.997398,18.87623 C276.065753,20.5316736 274.779164,21.9290889 273.12372,21.9974445 C273.082486,21.9991471 273.041221,21.9999987 272.999952,21.9999987 L3.20218994,22 C1.61008874,22 0.295273989,20.7563112 0.206822035,19.166669 C-0.117856024,13.3316146 -0.0602639757,10.3754979 0.37959818,10.2983186 Z" id="Rectangle-5" fill="#D56E6A" opacity="0.156816123"></path>
            <path d="M0,9.52140526 L2.01105504,10.8120135 L4.0286026,10.1378969 L6.9055962,10.1378969 L9.86455773,10.9204754 L13.6379533,10.1378969 L14.9725402,11.3845867 L17.9972384,10.1378969 L20.2306619,10.1378969 L20.2306619,10.9204754 L22.2895992,11.3845867 L23.458251,10.4992216 L25.4668714,10.8120135 L26.9155127,11.3845867 L28.3162718,10.4992216 L29.8679818,11.3845867 L34.5888483,10.1378969 L38.4770503,9.94241466 L38.4770503,10.9204754 L44.0565513,10.4992216 L45.7470387,10.9204754 L48.4633426,10.4992216 L50.7990232,10.9204754 L52.6217954,10.1378969 L56.1358666,10.4992216 L58.6914809,10.1378969 L63.1834865,10.1378969 L66.3558893,10.8120135 L70.0209113,10.1378969 L73.0999843,10.1378969 L77.1334563,9.74285253 L77.1334563,10.8120135 L79.2248561,10.9204754 L81.8681193,10.4992216 L83.3047852,9.94241466 L85.9298426,10.1378969 L87.5831515,10.9204754 L90.3889881,9.94241466 L92.2200744,10.4992216 L95.4730043,9.94241466 L95.4730043,6.6985658 L96.598521,5.5064937 L99.3398978,6.6985658 L103.356682,7.37061454 L104.796318,8.13160956 L107.482281,7.62590981 L111.671468,8.65097688 L112.872167,5.31554569 L114.73063,5.5064937 L116.608768,6.92564256 C118.423035,5.89959897 119.575112,5.36290001 120.065002,5.31554569 C120.554891,5.26819136 122.665613,5.48949722 126.397167,5.97946326 L128.594604,5.24676789 L130.173104,5.24676789 L130.173104,2.76123387 L136.052999,0 L136.052999,4.36972883 L139.355993,3.98542593 L141.057048,5.5064937 L143.270862,6.30912587 L143.270862,7.62590981 L146.375923,7.37061454 L149.304942,7.62590981 L151.679372,6.6985658 L154.873746,6.13110037 L159.085744,3.29912231 L162.895535,3.73104912 L162.895535,5.03482798 L167.57435,3.73104912 L169.668944,3.98542593 L174.666972,2.58900108 L177.809353,6.30912587 L179.960629,6.92564256 L182.008344,6.13110037 L183.46871,6.55661841 L186.406453,6.55661841 L188.853905,5.97946326 L191.630052,6.6985658 L195.055585,6.6985658 L195.055585,7.80876225 L198.359545,7.62590981 L198.359545,8.13160956 L200.999111,8.31641451 L203.209422,8.53685275 C202.9877,8.93293843 202.9877,9.15803015 203.209422,9.21212788 C203.431144,9.26622562 204.353691,9.26622562 205.977064,9.21212788 L205.977064,8.65097688 L207.810152,8.53685275 L207.810152,7.80876225 L210.979532,8.13160956 L213.379456,8.00332974 L214.525135,7.20690144 L216.75846,7.62590981 L219.64427,7.41813063 L218.130067,5.13935175 L220.205907,5.03482798 L220.205907,3.29912231 L223.589627,3.10807275 L225.023472,1.91266455 L226.481208,2.58900108 L229.589539,2.76123387 L231.800902,2.85396157 L231.800902,3.98542593 L233.551401,3.88346817 L232.915922,4.5805034 L241.361321,4.36972883 L242.475473,3.10807275 L245.294081,3.0186507 L245.294081,3.88346817 L247.359496,3.73104912 L249.284177,3.0186507 L250.41944,3.73104912 L253.829473,3.88346817 L254.982744,4.5805034 L254.549432,5.24676789 L256.149713,5.24676789 L256.149713,10.8120135 L258.083116,10.8120135 L264.443147,10.4992216 L266.365462,10.4992216 L266.365462,11.848871 L267.511627,12.8706428 L268.700991,12.8706428 L268.700991,13.5886391 L269.794687,13.5886391 L269.794687,15.1778814 L270.692078,17 L272.764164,17 L275,17" id="Line-2" stroke="#D56E6A" stroke-linecap="square"></path>
            <g id="Group-3" transform="translate(36.000000, 0.000000)" fill="#FFFFFF" stroke="#D56E6A">
                <circle id="Oval" cx="2.5" cy="10.5" r="2.5"></circle>
                <circle id="Oval" cx="42.5" cy="10.5" r="2.5"></circle>
                <circle id="Oval" cx="94.5" cy="2.5" r="2.5"></circle>
                <circle id="Oval" cx="141.5" cy="3.5" r="2.5"></circle>
                <circle id="Oval" cx="214.5" cy="3.5" r="2.5"></circle>
            </g>
        </g>
    </g>
</svg>