<?xml version="1.0" encoding="UTF-8"?>
<svg width="277px" height="90px" viewBox="0 0 277 90" version="1.1" xmlns="http://www.w3.org/2000/svg" xmlns:xlink="http://www.w3.org/1999/xlink">
    <!-- Generator: Sketch 48.1 (47250) - http://www.bohemiancoding.com/sketch -->
    <title>Group 15</title>
    <desc>Created with Sketch.</desc>
    <defs>
        <linearGradient x1="50%" y1="58.3101189%" x2="50%" y2="109.882201%" id="linearGradient-1">
            <stop stop-color="#ECF7EB" offset="0%"></stop>
            <stop stop-color="#FFFFFF" stop-opacity="0" offset="100%"></stop>
        </linearGradient>
    </defs>
    <g id="CoinHITex" stroke="none" stroke-width="1" fill="none" fill-rule="evenodd" transform="translate(-731.000000, -1027.000000)">
        <g id="Group-15" transform="translate(732.000000, 1027.000000)">
            <path d="M2.68501656e-05,59.6099258 C1.3484747,61.7588052 2.27507869,62.720557 2.77983883,62.4951813 C3.28459897,62.2698056 3.89548002,61.8198169 4.61248196,61.1452152 C6.35253543,60.6883401 7.41584466,60.6883401 7.80240966,61.1452152 C8.49690597,61.9660294 9.85175255,62.1388551 10.4832627,62.9191969 C10.7198356,63.2115244 11.8838042,62.6201972 13.9751683,61.1452152 C14.5608099,62.7487187 14.9898619,63.9198779 15.2623243,64.6586929 C15.4421066,65.1461946 18.4976087,60.682071 18.6695121,61.1452152 C18.780974,61.4455171 19.4258323,61.4455171 20.6040872,61.1452152 C20.621711,62.0557378 20.6349474,62.7287119 20.6437963,63.1641376 C20.6511138,63.5242075 24.5534528,64.1915304 22.6394736,64.1915304 C22.6394736,64.1915304 23.1587359,63.6260807 24.1972604,62.4951813 C25.3221051,62.461805 25.9651388,62.6031436 26.1263615,62.9191969 C26.3920364,63.4400135 27.1925584,63.6973975 27.4323479,64.1915304 C27.568857,64.472834 28.7430092,62.6460502 28.8697085,62.9191969 C29.1195963,63.4579218 30.3055508,63.6585081 30.5059548,64.1915304 C30.5865536,64.4059022 32.2854459,63.3904638 35.6026318,61.1452152 L38.9389869,60.6264201 L38.9389869,63.1641376 C42.1960493,62.4268572 43.8713819,62.050869 43.9649847,62.0361728 C44.1359221,62.0093346 45.0064338,62.3853228 46.5765198,63.1641376 L49.0202405,62.0361728 L51.5255459,62.9191969 C52.0282325,61.3650049 52.5636912,60.7736777 53.1319223,61.1452152 C54.3431386,61.9371681 55.4496142,61.2285428 56.5325341,62.0361728 C57.6868451,62.8970454 58.696856,59.7162712 59.6904299,60.6264201 C60.550039,61.4138526 62.722988,60.1222917 63.4533044,61.1452152 C63.935179,61.8201567 65.1405186,62.411484 67.0693231,62.9191969 C69.5170817,60.9788532 70.7516677,60.387526 70.7730812,61.1452152 C70.7917881,61.8071341 77.5664038,59.31591 77.2995027,60.3025998 C77.0844465,61.0976273 78.1179778,61.8121656 77.2995027,62.9191969 C77.0598739,63.2433076 78.108522,63.2433076 80.4454468,62.9191969 C80.8780099,62.1224938 81.558045,61.8281525 82.4855521,62.0361728 C82.9918008,62.1497137 83.4958634,61.6797961 83.9977401,60.6264201 C84.7997536,60.9050372 85.3955332,61.1118576 85.7850788,61.2468813 C86.5763783,61.5211602 87.4305423,62.905575 88.1798044,63.1641376 C88.6667524,63.3321783 89.581207,62.4862725 90.9231681,60.6264201 L93.1215852,62.0361728 L95.8654665,60.6264201 C95.3966408,54.2142864 95.3966408,51.1627852 95.8654665,51.4719164 C96.6993599,52.0217637 96.3520745,49.5575877 97.0579255,50.0633449 C97.402525,50.3102578 98.1115295,50.984667 99.1849388,52.0865726 C101.503064,53.0679653 102.84479,53.6850239 103.210118,53.9377483 C103.643416,54.2374923 104.128466,54.8275696 104.665267,55.7079801 L107.409435,54.8486442 L111.151057,56.8700239 L113.540277,48.7991048 L116.815531,52.4456456 C118.349067,50.1572016 119.543344,48.9416881 120.39836,48.7991048 C121.135464,48.6761848 123.082335,49.274763 126.238974,50.5948395 C126.921751,49.567184 127.791104,48.9686057 128.847033,48.7991048 C128.944921,48.7833917 129.432257,48.7833917 130.309044,48.7991048 L130.309044,42.6032011 L135.324486,36.7051633 L135.904166,46.4009111 L138.793595,45.5345527 C140.201472,47.7333098 141.199855,49.2908589 141.788746,50.2072 C142.342788,51.0693157 142.62189,50.7538145 143.085412,51.4719164 C143.408832,51.9729667 143.408832,53.0985427 143.085412,54.8486442 L146.267412,54.2354665 C147.511618,54.5964315 148.5546,54.7194095 149.396358,54.6044005 C149.494515,54.5909894 150.229908,53.2051717 151.731462,52.0865726 C152.215401,51.7260574 153.126791,51.3294077 154.465633,50.8966235 C156.817147,45.9796894 158.266997,43.5829124 158.815185,43.7062926 C159.03146,43.7549695 161.160004,43.6905389 162.47505,44.8342245 C163.022407,45.3102573 161.427089,46.9893431 162.47505,48.158761 C162.80485,48.5267847 164.638423,47.4186058 167.975769,44.8342245 L169.868507,45.2665878 L174.500877,41.991317 L177.443973,51.4719164 L179.554942,52.8481474 C180.510024,52.0103657 181.283541,51.551622 181.875492,51.4719164 C181.990946,51.4563707 183.600374,52.3870741 186.03247,52.0865726 C186.765342,51.9960215 187.277428,51.0640147 188.561177,50.8966235 C189.308347,50.799198 190.075409,52.6059263 191.32649,52.4456456 C192.248955,52.3274651 192.777877,52.679275 194.442209,52.4456456 C194.882485,52.383842 193.856423,55.3093988 194.442209,55.2243496 C195.290918,55.1011269 196.553234,54.8944772 198.229158,54.6044005 C198.708839,54.5213752 197.563224,56.2402731 198.229158,56.1206461 C198.939392,55.9930612 201.681619,57.1245696 202.971436,56.8700239 C203.468684,56.7718917 202.248103,58.9966375 202.971436,58.8426154 C203.637116,58.7008694 204.297043,59.1302523 205.490659,58.8426154 C205.900651,58.7438156 204.910933,57.448275 205.490659,57.3017246 C206.039135,57.1630738 206.621979,57.1107312 207.582188,56.8700239 C207.92123,56.7850319 207.627256,55.6030013 208.102343,55.4836287 C208.64496,55.3472884 209.701617,56.364029 210.717347,56.1206461 C211.526858,55.9266763 211.786993,56.1050679 213.39494,55.7079801 C213.81498,55.6042498 213.959685,54.0818917 214.536248,53.9377483 C215.002705,53.8211321 215.760467,54.8076923 216.504021,54.628913 C217.23667,54.4527557 218.346581,54.5931641 219.796128,54.2354665 C220.275252,54.1172355 217.169617,48.5616331 217.868659,48.3856996 C218.587406,48.2048071 218.383454,48.4181657 219.796128,48.158761 C220.342228,48.0584825 219.459263,43.8436491 220.296843,43.7062926 C221.073607,43.5789097 222.222855,43.438653 223.744588,43.2855227 C224.113448,43.2484047 224.250957,41.0055359 224.744958,40.9623317 C225.463676,40.8994742 224.831549,41.8115655 225.940794,41.991317 C226.956089,42.1558439 230.943204,42.6032011 230.943204,42.6032011 C231.655646,42.6032011 230.456144,44.1534166 230.943204,45.5345527 C231.004741,45.7090505 231.69275,45.6197288 233.007231,45.2665878 C232.117477,46.5573718 232.117477,47.1472027 233.007231,47.0360804 C233.228055,47.0085015 239.311104,46.7038692 241.146697,46.4009111 C241.629068,46.3212974 241.919346,43.4167109 242.658326,43.2855227 C243.128082,43.2021287 243.750168,43.1083249 244.524585,43.004111 C244.87595,42.9568276 243.992323,45.3288683 244.524585,45.2665878 C245.145528,45.1939305 247.061319,35.5861172 248.41906,35.3705324 C248.67797,35.329422 249.019675,32.7987731 249.444174,27.7785856 L251.604931,26.9145833 L255.158728,30.7317576 C257.948259,27.0593752 259.588363,25.1634255 260.07904,25.0439084 C260.237921,25.005209 261.181078,25.4726051 261.724142,25.0439084 C261.77928,25.0003822 261.991539,24.0791787 262.360918,22.2802981 L263.996919,18.6317339 L269.766736,17.5422529 C267.735029,16.219432 266.77082,15.7796156 266.874111,16.2228036 C266.902318,16.3438308 267.435205,15.2325668 268.472772,12.8890116 C270.56659,11.4294582 271.683479,10.9903069 271.823438,11.5715577 C271.86253,11.7339071 271.387396,9.76562465 270.398036,5.66671017 L275,1 L275,39.9965713 L275,87 C275,88.6568542 273.656854,90 272,90 L3,90.0000027 C1.34314575,90.0000027 2.02906125e-16,88.6568569 0,87.0000027 C-1.0821432e-22,87.0000018 3.90354416e-13,87.0000009 1.17106325e-12,87 L2.68501656e-05,59.6099258 Z" id="Rectangle-5" fill="url(#linearGradient-1)"></path>
            <path d="M0,60.264211 L2.00845506,63.5446475 L4.02339424,61.8311943 L6.89666832,61.8311943 L9.85180438,63.8203332 L13.6203216,61.8311943 L14.953183,65 L17.9739707,61.8311943 L20.2045068,61.8311943 L20.2045068,63.8203332 L22.2607822,65 L23.4279231,62.7496007 L25.4339466,63.5446475 L26.8807151,65 L28.2796632,62.7496007 L29.8293671,65 L34.5441302,61.8311943 L38.4273054,61.3343224 L38.4273054,63.8203332 L43.999593,62.7496007 L45.6878948,63.8203332 L48.400687,62.7496007 L50.7333479,63.8203332 L52.5537636,61.8311943 L56.0632916,62.7496007 L58.6156019,61.8311943 L63.1017999,61.8311943 L66.2701013,63.5446475 L69.930385,61.8311943 L73.0054773,61.8311943 L77.0337346,60.8270802 L77.0337346,63.5446475 L79.1224306,63.8203332 L81.7622765,62.7496007 L83.1970849,61.3343224 L85.8187485,61.8311943 L87.46992,63.8203332 L90.2721291,61.3343224 L92.1008481,62.7496007 L95.3495725,61.3343224 L95.3495725,53.0891867 L96.473634,50.059207 L99.2114666,53.0891867 L103.223058,54.7973837 L104.660832,56.7316623 L107.343323,55.446287 L111.527094,58.0517774 L112.72624,49.57386 L114.582301,50.059207 L116.458011,53.6663648 C118.269932,51.0583923 119.42052,49.694224 119.909776,49.57386 C120.399032,49.4534959 122.507025,50.0160058 126.233755,51.2613895 L128.428351,49.3990423 L130.00481,49.3990423 L130.00481,43.0813727 L135.877104,36.062936 L135.877104,47.1698058 L139.175827,46.1929941 L140.874683,50.059207 L143.085635,52.0993178 L143.085635,55.446287 L146.186682,54.7973837 L149.111913,55.446287 L151.483274,53.0891867 L154.673518,51.6468169 L158.880071,44.4485644 L162.684936,45.5464254 L162.684936,48.8603386 L167.357703,45.5464254 L169.449588,46.1929941 L174.441155,42.6435956 L177.579473,52.0993178 L179.727968,53.6663648 L181.773035,51.6468169 L183.231514,52.7283883 L186.165458,52.7283883 L188.609746,51.2613895 L191.382304,53.0891867 L194.803408,53.0891867 L194.803408,55.9110569 L198.103096,55.446287 L198.103096,56.7316623 L200.73925,57.201395 L202.946704,57.7616995 C202.725269,58.7684604 202.725269,59.340593 202.946704,59.4780973 C203.168139,59.6156016 204.089493,59.6156016 205.710767,59.4780973 L205.710767,58.0517774 L207.541485,57.7616995 L207.541485,55.9110569 L210.706768,56.7316623 L213.103589,56.4056038 L214.247788,54.3812618 L216.478225,55.446287 L219.360304,54.918159 L217.848058,49.1260145 L219.921215,48.8603386 L219.921215,44.4485644 L223.30056,43.9629593 L224.732552,40.9245 L226.188403,42.6435956 L229.292715,43.0813727 L231.501219,43.3170657 L231.501219,46.1929941 L233.249455,45.9338404 L232.614798,47.7055475 L241.049278,47.1698058 L242.161989,43.9629593 L244.976953,43.7356685 L244.976953,45.9338404 L248.147399,34.9826071 L249.00801,27.6846702 L251.549642,26.8452695 L254.916894,30.8811084 L257.535951,26.8452695 L259.740337,24.8478687 L261.441458,24.8478687 L261.441458,22.4438249 L263.622765,18.4893146 L269.003818,17.6633442 L266.558968,16.0628867 L267.871474,12.5963481 L270.342115,11.6368197 L271.541728,11.6368197 L270.342115,5.99107259 L275,0" id="Line-2" stroke="#70BF64" stroke-linecap="square"></path>
            <g id="Group-2" transform="translate(132.000000, 19.000000)" fill="#FFFFFF" stroke="#70BF64">
                <circle id="Oval" cx="2.5" cy="16.5" r="2.5"></circle>
                <circle id="Oval" cx="36.5" cy="26.5" r="2.5"></circle>
                <circle id="Oval" cx="131.5" cy="2.5" r="2.5"></circle>
                <circle id="Oval" cx="102.5" cy="27.5" r="2.5"></circle>
            </g>
        </g>
    </g>
</svg>