<?xml version="1.0" encoding="UTF-8"?>
<svg width="277px" height="90px" viewBox="0 0 277 90" version="1.1" xmlns="http://www.w3.org/2000/svg" xmlns:xlink="http://www.w3.org/1999/xlink">
    <!-- Generator: Sketch 48.1 (47250) - http://www.bohemiancoding.com/sketch -->
    <title>Group 13</title>
    <desc>Created with Sketch.</desc>
    <defs>
        <linearGradient x1="50%" y1="32.5116668%" x2="50%" y2="100%" id="linearGradient-1">
            <stop stop-color="#F8E9E9" offset="0%"></stop>
            <stop stop-color="#FFFFFF" stop-opacity="0.00469882246" offset="100%"></stop>
        </linearGradient>
    </defs>
    <g id="CoinHITex" stroke="none" stroke-width="1" fill="none" fill-rule="evenodd" transform="translate(-134.000000, -1027.000000)">
        <g id="Group-13" transform="translate(135.000000, 1025.000000)">
            <path d="M2.7961339,84.6626017 C3.83177444,85.0682812 4.60457682,85.0682812 5.11454102,84.6626017 C5.62450523,84.2569222 6.29535559,83.108488 7.12709212,81.2172992 C8.79303238,81.9397709 9.99012143,82.1933268 10.7183593,81.9779671 C10.7687513,81.9630648 10.7687513,80.918256 10.7183593,78.8435407 C11.8601548,79.0910827 12.856728,79.0910827 13.7080788,78.8435407 C13.7880746,78.8202808 14.8587601,80.5210254 16.461707,80.0498297 C17.1238975,79.8551748 17.4279185,73.119625 18.7168176,72.7350987 C19.3546964,72.5447958 20.1337943,73.0285698 21.1507293,72.7350987 C21.5935411,72.6073103 21.6159104,75.7239804 22.23601,75.5470994 C22.6979232,75.4153405 23.7113817,75.749101 24.4139636,75.5470994 C24.8841272,75.4119212 23.6818343,71.1652396 24.4139636,70.952935 C25.0383537,70.7718729 25.8686248,70.8895864 26.9610697,70.5807821 C27.6709616,70.380115 27.845675,66.0533784 29.0419995,65.7187317 C29.7971375,65.5074977 31.3757925,66.0531131 32.6133998,65.7187317 C33.1527761,65.573001 34.3620487,67.9028148 35.1290887,67.6975589 C36.632714,67.2951967 40.5277709,61.5913627 40.5277709,61.5913627 C40.5277709,61.5913627 40.8795207,59.8256679 41.5830204,56.2942783 C45.075592,56.9110642 47.3652,57.093077 48.4518444,56.8403166 C48.5763069,56.8113658 50.3354924,58.712631 50.3354924,58.712631 C51.3381131,58.712631 52.6902591,58.6053317 54.3919304,58.3907329 C55.0867185,58.3031128 54.9998532,61.3410062 55.9915187,61.1685199 C56.3284246,61.1099198 56.4625198,64.5823685 56.8859859,64.4986474 C57.5175309,64.3737882 58.1510115,63.6500287 59.255215,63.3828301 C59.6918227,63.2771784 60.2327838,65.8780311 60.8528738,65.7187317 C61.42952,65.5705929 63.9593896,60.5779717 64.9255638,60.3112847 C65.6725697,60.1050934 65.2398609,60.6758772 66.55695,60.3112847 C67.3709304,60.0859612 66.10326,66.098472 67.4680498,65.7187317 C68.170989,65.5231453 69.484547,66.0315412 70.5617234,65.7187317 C71.1250713,65.5551368 72.3693271,59.8857869 73.1892206,59.6410886 C73.6321161,59.5089058 72.560515,55.8159325 73.1892206,55.6311402 C73.7519494,55.4657402 75.578964,55.3220999 76.5120552,55.0600779 C76.9153802,54.9468199 77.865921,57.529968 78.439595,57.371597 C79.1217099,57.1832894 80.0613867,54.2164776 81.3332147,53.8614886 C81.9338991,53.6938273 80.4032165,50.0405447 81.3332147,49.785451 C82.2250112,49.5408359 81.8833858,50.2152721 83.5425856,49.785451 C84.0755834,49.6473762 87.5963042,59.3753358 88.3332519,59.1868053 C89.2710114,58.9469017 89.0621029,57.868367 90.8109014,57.371597 C91.6721873,57.1269371 91.4864569,57.7715743 92.8575773,57.371597 C93.6548148,57.1390303 93.2920717,60.6806341 94.5349002,60.3112847 C95.38306,60.0592248 95.8585103,60.7394186 97.2415064,60.3112847 C98.0592659,60.0581311 98.96378,63.1487102 100.262471,62.7356496 C101.324138,62.3979767 104.46901,53.7958519 106.354193,53.1660665 C107.304051,52.8487463 108.522811,52.4521195 110.010473,51.976186 C110.808275,51.720953 111.004935,49.5517733 112.20513,49.176504 C113.188335,48.8690816 114.388299,49.0098996 116.071816,48.5035782 C116.912239,48.2508193 118.543171,42.8827963 119.838919,42.4978185 C120.583622,42.2765607 121.544039,43.2943782 122.720168,45.551271 C124.338655,45.8563751 125.681306,45.8563751 126.748122,45.551271 C126.896466,45.5088453 126.172465,43.8530801 128.190605,43.2610526 C128.925393,43.0455002 130.168708,43.0455002 131.920549,43.2610526 C130.872112,39.5904189 130.872112,37.6048405 131.920549,37.3043174 C132.748363,37.0670334 133.025252,37.0052414 134.298003,36.6632913 C134.768941,36.5367645 134.441429,33.3141936 135.071396,33.1495225 C135.721979,32.9794625 136.588458,32.1656595 137.5,32.768307 C138.045148,33.1287205 138.456872,35.1225969 139.263842,34.9315219 C139.96916,34.7645162 140.833644,34.5586163 141.857294,34.313822 C142.559037,34.1460084 142.995771,32.6350353 144.086445,32.372455 C144.724238,32.218906 144.568694,34.5468218 145.55234,34.313822 C146.303653,34.135856 146.644154,34.6243488 147.919808,34.313822 C148.501196,34.1722975 150.098362,32.1005833 150.964654,31.8857898 C151.548118,31.7411225 152.464163,34.5371957 153.376675,34.313822 C154.383786,34.067291 153.497284,30.8053255 155.530965,30.2807596 C156.38893,30.059457 156.474389,27.4312297 157.83472,27.0943171 C158.856905,26.8411529 158.381949,27.03529 160.166259,26.626613 C160.898404,26.4589231 163.145721,28.9757976 164.231483,28.7339429 C165.163696,28.5262914 167.078781,28.3944516 169.976738,28.3384235 C173.482979,24.7509737 175.63679,22.8567608 176.438173,22.6557847 C176.521841,22.634802 177.232752,23.4605472 178.570907,25.13302 C179.535835,23.625001 180.317327,22.7992559 180.915381,22.6557847 C181.032025,22.6278021 182.658046,24.3030815 185.115218,23.7621745 C185.855645,23.5991813 186.37301,21.9215559 187.669995,21.6202492 C188.424868,21.444882 189.199839,24.6970187 190.463818,24.4085111 C191.395794,24.1957844 191.930169,24.8290473 193.61166,24.4085111 C194.056476,24.2972638 193.019835,29.5633076 193.61166,29.4102178 C194.469119,29.1884153 195.74445,28.8164429 197.437653,28.2943007 C197.922279,28.144854 196.764853,31.2388946 197.437653,31.0235643 C198.155209,30.7939097 200.925709,32.8306409 202.228823,32.372455 C202.731199,32.1958157 201.498033,36.2003898 202.228823,35.9231478 C202.901367,35.668003 203.568098,36.4408984 204.77402,35.9231478 C205.188239,35.7453068 204.188317,33.4133153 204.77402,33.1495225 C205.328151,32.8999491 205.917003,32.8057317 206.887112,32.372455 C207.22965,32.2194683 206.932645,30.0917963 207.412631,29.876924 C207.960841,29.6315095 209.028392,31.461657 210.054595,31.0235643 C210.872451,30.6744159 211.135269,30.9955234 212.759794,30.2807596 C213.184164,30.0940437 213.330361,27.3537774 213.912869,27.0943171 C214.384134,26.8844064 215.149709,28.6602288 215.900929,28.3384235 C216.641132,28.0213379 217.762486,28.274075 219.226978,27.6302143 C219.711042,27.4173966 216.573387,17.4172333 217.279637,17.1005505 C218.005794,16.7749414 217.799739,17.15899 219.226978,16.6920578 C219.778708,16.511555 218.886639,8.92479481 219.732855,8.67755127 C220.517627,8.44826013 221.678725,8.19579615 223.216147,7.92015933 C223.58881,7.85334644 223.727736,3.8161506 224.22683,3.73838251 C224.952958,3.62523813 224.314314,5.26701554 225.434995,5.5905708 C226.460757,5.88672154 230.48898,6.69197084 230.48898,6.69197084 C231.208767,6.69197084 229.996898,9.48238085 230.48898,11.9684454 C230.551151,12.2825439 231.246254,12.1217637 232.574287,11.4861047 C231.67536,13.8095344 231.67536,14.8712384 232.574287,14.6712166 C232.797387,14.6215743 238.943152,14.0732317 240.797671,13.5279028 C241.285015,13.3845972 241.578285,8.15630009 242.324884,7.92015933 C242.799483,7.77004907 243.427983,7.60120077 244.210384,7.41361441 C244.565372,7.32850349 243.672635,11.5982106 244.210384,11.4861047 C244.837729,11.3553205 245.837272,11.0959006 247.209011,10.7078448 C247.601381,10.5968459 248.189793,8.09222206 248.767637,7.92015933 C249.249605,7.7766449 248.967908,10.9233194 249.822985,10.7078448 C250.449203,10.5500416 251.555171,10.8094616 253.14089,11.4861047 C253.349997,13.8246451 253.702419,14.8863491 254.198155,14.6712166 C254.305167,14.6247769 254.305167,15.6825999 254.198155,17.8446858 C254.676551,18.231969 255.169973,18.231969 255.678421,17.8446858 C255.765678,17.7782226 255.765678,19.0367437 255.678421,21.6202492 C257.38199,21.611531 258.407797,21.4304592 258.755843,21.0770337 C258.853022,20.9783519 259.038018,18.8797731 259.925205,17.8446858 C260.349156,17.3500596 260.856631,17.3500596 261.447628,17.8446858 C261.465193,19.7657912 261.646753,20.5243412 261.992309,20.1203359 C262.087128,20.0094791 262.830048,20.0566234 263.52575,19.0970561 C263.789236,18.7336359 263.903402,17.4253818 264.406724,16.6920578 C264.69705,16.2690626 265.343598,17.8722106 265.89226,17.1005505 C266.074368,16.8444269 266.547611,19.5141374 266.818265,19.0970561 C266.935428,18.9165071 266.935428,20.1027499 266.818265,22.6557847 L270.359408,22.6557847 C270.115474,15.776266 270.115474,11.7936194 270.359408,10.7078448 C270.603341,9.62207019 272.150205,6.71945526 275,2 L275,89.0000562 C275,90.6569104 273.656854,92.0000562 272,92.0000562 C271.998128,92.0000562 271.996257,92.0000544 271.994385,92.0000509 L0,91.4909672 L2.7961339,84.6626017 Z" id="Rectangle-5" fill="url(#linearGradient-1)" transform="translate(137.500000, 47.000000) scale(-1, 1) translate(-137.500000, -47.000000) "></path>
            <path d="M0,91 L2.33672315,84.7502352 C3.73254526,85.2770242 4.60945951,85.2770242 4.9674659,84.7502352 C5.96605895,83.2808541 6.47642608,82.1766672 6.49856729,81.4376744 L10.3953645,82.4040234 L10.3953645,79.1698031 L13.5015731,79.1698031 L16.1692404,80.7566453 L18.0534005,73.2266007 L20.6421606,73.2266007 L21.6988077,75.9297964 L24.1398699,75.9297964 L24.1398699,71.3255059 L26.6507345,71.3255059 L28.340156,66.0433022 L32.3583487,66.0433022 L34.6178234,68.1006331 L39.8666635,62.029237 L40.8110197,56.7608319 L48.5166023,57.2851798 L49.847401,59.0910195 L53.7249773,59.0910195 L55.7664458,61.4479141 L56.595982,65.3164261 L58.8104392,63.7313644 L60.3476104,66.0433022 L64.2970123,60.6324597 L66.2454109,60.6324597 L67.0820285,66.0433022 L70.598453,66.0433022 L72.7188286,59.853505 L73.2418411,55.9524994 L75.8579152,55.4766693 L77.8310988,58.1602798 L80.8305805,54.2058602 L80.8305805,50.313757 L83.4845907,50.313757 L86.6762821,56.7608319 L87.992918,59.853505 L89.8442001,58.1602798 L93.1330079,58.1602798 L93.9817652,60.6324597 L97.2129101,60.6324597 L99.4900883,63.7313644 L105.929111,53.5947146 L109.237139,52.7703578 L111.583614,49.7132941 L115.586127,49.1266299 L117.035286,46.186632 L119.375185,42.1498657 L120.69081,44.0705457 L122.75858,46.186632 L125.981632,46.186632 L127.635141,43.5760207 L131.039274,43.5760207 L131.039274,37.6915737 L134.071634,37.1004583 L135.151549,33.7229103 L137.5,33.2025685 L139.219817,35.5051589 L141.458048,34.9452017 L144.057936,32.1974943 L145.406944,34.9452017 L147.55868,34.9452017 L151.005808,32.1974943 L153.188904,34.9452017 L155.198001,30.770004 L157.447359,27.6390509 L159.805468,27.1387394 L163.787242,29.0491816 L169.995107,29.0491816 L176.377478,23.0453882 L178.552481,25.8563572 L180.622781,22.2336922 L182.099255,24.1738149 L185.069399,24.1738149 L187.543845,21.5423124 L190.350612,24.8210151 L193.813925,24.8210151 L193.813925,29.8828858 L197.154326,29.0491816 L197.154326,31.3548878 L199.823005,32.1974943 L202.057695,33.2025685 C201.833528,35.0084963 201.833528,36.0347877 202.057695,36.281443 C202.281862,36.5280982 203.214585,36.5280982 204.855862,36.281443 L204.855862,33.7229103 L206.709168,33.2025685 L206.709168,29.8828858 L209.913505,31.3548878 L212.339898,30.770004 L213.498214,27.1387394 L215.756171,29.0491816 L218.67381,28.1018255 L217.142906,17.7118769 L219.241641,17.2353074 L219.241641,9.32146677 L222.662681,8.45038831 L224.112341,3 L225.586155,6.08371375 L228.728769,6.86899832 L230.964522,7.2917844 L230.964522,12.4506248 L232.734328,11.9857549 L232.09184,15.163843 L240.630387,14.2028297 L241.756827,8.45038831 L244.606523,8.04267413 L244.606523,11.9857549 L246.694718,11.2908098 L248.640627,8.04267413 L249.788411,11.2908098 L253.236056,11.9857549 L254.402046,15.163843 L253.963955,18.201634 L255.581886,18.201634 L255.581886,22.2336922 L258.899825,21.5423124 L259.753377,18.515222 L261.756127,18.201634 L261.756127,20.6243916 L263.489478,20.1583638 L264.131246,17.2353074 L265.849157,17.2353074 L266.899968,19.3858375 L266.899968,23.0453882 L270.284645,23.0453882 C270.284645,15.2090026 270.284645,11.2908098 270.284645,11.2908098 C270.284645,11.2908098 271.85643,8.52720653 275,3" id="Line-2" stroke="#D56E6A" stroke-linecap="square" transform="translate(137.500000, 47.000000) scale(-1, 1) translate(-137.500000, -47.000000) "></path>
            <g id="Group-2" transform="translate(136.500000, 44.000000) rotate(25.000000) translate(-136.500000, -44.000000) translate(73.000000, 26.000000)" fill="#FFFFFF" stroke="#D56E6A">
                <circle id="Oval" cx="2.5" cy="33.5" r="2.5"></circle>
                <circle id="Oval" cx="26.6547635" cy="17.6873844" r="2.5"></circle>
                <circle id="Oval" cx="123.767855" cy="3.21892336" r="2.5"></circle>
                <circle id="Oval" cx="93.5" cy="5.5" r="2.5"></circle>
            </g>
        </g>
    </g>
</svg>