<?xml version="1.0" encoding="UTF-8"?>
<svg width="276px" height="90px" viewBox="0 0 276 90" version="1.1" xmlns="http://www.w3.org/2000/svg" xmlns:xlink="http://www.w3.org/1999/xlink">
    <!-- Generator: Sketch 48.1 (47250) - http://www.bohemiancoding.com/sketch -->
    <title>Group 19</title>
    <desc>Created with Sketch.</desc>
    <defs>
        <linearGradient x1="50%" y1="58.3101189%" x2="50%" y2="109.882201%" id="linearGradient-1">
            <stop stop-color="#ECF7EB" offset="0%"></stop>
            <stop stop-color="#FFFFFF" stop-opacity="0" offset="100%"></stop>
        </linearGradient>
    </defs>
    <g id="CoinHITex" stroke="none" stroke-width="1" fill="none" fill-rule="evenodd" transform="translate(-732.000000, -1233.000000)">
        <g id="Group-19" transform="translate(732.000000, 1233.000000)">
            <path d="M0,1 C0.391946551,3.26055831 0.840299908,4.27814908 1.34506007,4.05277231 C1.84982023,3.82739554 2.38613063,3.82739554 2.95399125,4.05277231 C3.35401481,5.83321963 3.7473091,6.95188189 4.13387411,7.4087591 C4.82837045,8.22957716 5.03908604,6.62841357 5.67059618,7.4087591 C5.90716914,7.70108798 6.92721047,7.12041232 8.73072018,5.66673213 L8.73072018,8.48138492 L12.0397203,8.48138492 L13.6283207,10.5186729 L15.5954932,9.25886337 L17.8339757,17.5423307 L19.5438594,16.2228752 C20.2972855,17.5127815 20.7546098,18.3157621 20.9158325,18.6318169 C21.1815074,19.1526359 23.2300022,17.0481955 23.4697917,17.5423307 C23.6063008,17.8236356 26.5609548,17.2691827 26.687654,17.5423307 C26.9375418,18.0810581 28.8364999,19.4738297 29.0369039,20.0068545 C29.1175027,20.2212273 29.6664322,20.2212273 30.6836923,20.0068545 L30.6836923,33.736465 L33.0785109,33.736465 L33.0785109,36.7053313 L35.2812394,36.7053313 L36.8978822,38.6502129 L39.7799371,40.9625198 C45.4824481,46.754255 48.6178192,49.8358923 49.1860503,50.2074315 C50.3972666,50.9993882 52.1131897,54.9006038 53.1961097,55.7082375 C54.3504207,56.5691142 58.6968318,59.7165475 59.6904057,60.6267007 C60.5500148,61.4141369 62.7229639,60.12257 63.4532803,61.1454982 C63.935155,61.8204429 65.1404946,62.411773 67.0692992,62.9194883 C69.5170579,60.9791355 70.7516439,60.3878055 70.7730574,61.1454982 C70.7917643,61.8074202 77.5663804,59.3161844 77.2994792,60.3028789 C77.084423,61.0979102 78.1179544,61.8124518 77.2994792,62.9194883 C77.0598504,63.2436005 78.1084985,63.2436005 80.4454235,62.9194883 C80.8779866,62.1227815 81.5580217,61.8284387 82.4855289,62.03646 C82.9917775,62.1500015 83.4958403,61.6800817 83.997717,60.6267007 C84.7997305,60.9053191 85.3955101,61.1121405 85.7850558,61.2471648 C86.5763553,61.521445 87.4305193,62.9058663 88.1797814,63.1644301 C88.6667294,63.3324716 89.581184,62.4865618 90.9231452,60.6267007 L93.1215625,62.03646 L95.8654438,60.6267007 C95.3966181,54.2145368 95.3966181,51.1630212 95.8654438,51.472154 C96.6993373,52.0220038 96.3520519,49.5578162 97.0579029,50.0635758 C97.4025025,50.3104898 98.1115069,50.9849022 99.1849163,52.086813 C101.503041,53.0682104 102.844768,53.6852718 103.210096,53.9379974 C103.643393,54.2377428 104.128443,54.8278229 104.665245,55.7082375 L107.409413,54.8488976 L111.151035,56.8702868 L113.540255,48.7993298 L116.815509,52.4458877 C118.349046,50.157433 119.543322,48.9419137 120.398339,48.7993298 C121.135443,48.6764091 123.082314,49.2749902 126.238952,50.5950729 C126.921729,49.5674125 127.791083,48.9688315 128.847012,48.7993298 C128.944899,48.7836166 129.432236,48.7836166 130.309023,48.7993298 L130.309023,42.6033969 L135.324465,36.7053313 L135.904145,46.4011247 L138.793574,45.5347623 C140.201451,47.7335297 141.199835,49.2910861 141.788725,50.2074315 C142.342767,51.0695513 142.621869,50.7540487 143.085392,51.472154 C143.408811,51.9732066 143.408811,53.0987879 143.085392,54.8488976 L146.267391,54.2357171 C147.511598,54.5966838 148.55458,54.7196624 149.396338,54.6046528 C149.494495,54.5912416 150.229888,53.2054174 151.731442,52.086813 C152.215381,51.7262961 153.126771,51.3296445 154.465613,50.8968583 C156.817127,45.979901 158.266977,43.5831128 158.815165,43.7064936 C159.03144,43.7551707 161.159985,43.6907398 162.47503,44.8344308 C163.022387,45.3104658 161.427069,46.9895596 162.47503,48.158983 C162.80483,48.5270083 164.638403,47.4188243 167.97575,44.8344308 L169.868487,45.2667961 L174.500857,41.99151 L177.443954,51.472154 L179.554923,52.8483914 C180.510005,52.0106057 181.283522,51.5518599 181.875473,51.472154 C181.990927,51.4566081 183.600355,52.3873159 186.032452,52.086813 C186.765323,51.9962615 187.277409,51.0642504 188.561158,50.8968583 C189.308328,50.7994324 190.07539,52.6061692 191.326471,52.4458877 C192.248937,52.3277066 192.777859,52.6795182 194.44219,52.4458877 C194.882467,52.3840838 193.856405,55.3096543 194.44219,55.2246047 C195.2909,55.1013815 196.553216,54.8947309 198.22914,54.6046528 C198.708821,54.5216271 197.563206,56.240533 198.22914,56.1209055 C198.939374,55.99332 201.681601,57.1248337 202.971418,56.8702868 C203.468666,56.7721542 202.248085,58.9969104 202.971418,58.8428876 C203.637099,58.7011409 204.297026,59.1305259 205.490641,58.8428876 C205.900633,58.7440874 204.910915,57.4485407 205.490641,57.3019896 C206.039117,57.1633381 206.621961,57.1109953 207.58217,56.8702868 C207.921212,56.7852944 207.627239,55.6032583 208.102326,55.4838851 C208.644942,55.3475442 209.701599,56.3642895 210.71733,56.1209055 C211.52684,55.9269348 211.786976,56.1053273 213.394923,55.7082375 C213.814963,55.6045068 213.959667,54.0821415 214.536231,53.9379974 C215.002687,53.8213807 215.760449,54.8079455 216.504004,54.6291654 C217.236653,54.4530073 218.346564,54.5934163 219.796111,54.2357171 C220.275235,54.1174854 217.1696,48.5618569 217.868642,48.3859226 C218.587388,48.2050292 218.383437,48.4183889 219.796111,48.158983 C220.342211,48.0587039 219.459245,43.8438507 220.296826,43.7064936 C221.07359,43.5791101 222.222838,43.4388527 223.744571,43.2857217 C224.113431,43.2486035 224.25094,41.0057241 224.744941,40.9625198 C225.463659,40.899662 224.831532,41.8117576 225.940777,41.99151 C226.956072,42.1560376 230.943187,42.6033969 230.943187,42.6033969 C231.65563,42.6033969 230.456127,44.1536197 230.943187,45.5347623 C231.004724,45.7092609 231.692733,45.6199388 233.007215,45.2667961 C232.117461,46.5575862 232.117461,47.1474199 233.007215,47.036297 C233.228038,47.008718 239.311088,46.7040842 241.146681,46.4011247 C241.629052,46.3215107 241.91933,43.4169105 242.65831,43.2857217 C243.128066,43.2023273 243.750152,43.108523 244.524568,43.0043087 C244.875934,42.957025 243.992307,45.3290769 244.524568,45.2667961 C245.145512,45.1941384 247.061303,35.58628 248.419044,35.3706941 C248.677954,35.3295836 249.019659,32.7989228 249.444158,27.7787116 L251.604915,26.9147052 L255.158712,30.7318976 C257.948243,27.0594979 259.588347,25.1635392 260.079025,25.0440216 C260.237905,25.0053219 261.181063,25.4727202 261.724127,25.0440216 C261.779265,25.0004951 261.991523,24.0792874 262.360902,22.2803983 L263.996904,18.6318169 L269.766721,17.5423307 C267.735014,16.2195036 266.770805,15.7796851 266.874096,16.2228752 C266.902303,16.343903 267.43519,15.2326338 268.472757,12.8890675 C270.566575,11.4295073 271.683464,10.9903539 271.823423,11.5716074 C271.862515,11.7339577 271.387381,9.7656659 270.398021,5.66673213 L275,1 L274.999985,39.9967548 L275,87 C275,88.6568542 273.656855,90.0000004 272.000001,90.0000009 C272.000001,90.0000009 272,90.0000009 272,90.0000009 L3,90 C1.34314575,90 2.02906125e-16,88.6568542 0,87 L0,1 Z" id="Rectangle-5" fill="url(#linearGradient-1)"></path>
            <path d="M0,2.50262206 L2.99546052,4.20380823 L4.24240559,7.77035872 L8.51032408,6.00793864 L9.28115371,8.51734996 L12.3810529,8.51734996 L13.7177492,10.1737254 L16.2991956,10.1737254 L18.2076579,18.5413656 L19.8070576,16.1081069 L22.0060389,18.5413656 L24.1432076,17.71307 L27.3041467,17.71307 L29.6955195,20.6925234 L31.0252619,20.6925234 L31.0252619,33.4738202 L33.1717025,34.2713917 L33.1717025,37.0663799 L35.2393322,37.0663799 L38.5072118,41.0397105 L50.8090977,52.8768291 L55.0641609,56.8913731 L58.6886893,62.0052612 L63.1733721,62.0052612 L66.3406033,63.7235382 L69.9996507,62.0052612 L73.0737043,62.0052612 L77.100601,60.9983204 L77.100601,63.7235382 L79.1885915,64 L81.8275457,62.9262532 L83.2618696,61.5069906 L85.8826477,62.0052612 L87.5332614,64 L90.334524,61.5069906 L92.1626253,62.9262532 L95.4102524,61.5069906 L95.4102524,53.2386432 L96.5339342,50.2001335 L99.2708421,53.2386432 L103.281078,54.9516492 L104.718367,56.8913731 L107.399952,55.6023792 L111.58231,58.2152046 L112.781051,49.7134202 L114.636485,50.2001335 L116.511561,53.8174462 C118.32287,51.2021318 119.47307,49.8341231 119.96216,49.7134202 C120.451251,49.5927173 122.558532,50.1568107 126.284003,51.4057004 L128.477858,49.5381103 L130.053785,49.5381103 L130.053785,43.2026552 L135.924095,36.1644602 L135.924095,47.3025981 L139.221704,46.3230365 L140.919986,50.2001335 L143.130191,52.2459876 L143.130191,55.6023792 L146.23019,54.9516492 L149.154434,55.6023792 L151.524994,53.2386432 L154.71416,51.7922129 L158.919293,44.5736958 L162.722872,45.6746475 L162.722872,48.9978901 L167.394061,45.6746475 L169.48524,46.3230365 L174.47512,42.7636457 L177.612378,52.2459876 L179.760147,53.8174462 L181.804524,51.7922129 L183.26251,52.8768291 L186.195464,52.8768291 L188.638926,51.4057004 L191.410547,53.2386432 L194.830495,53.2386432 L194.830495,56.0684575 L198.12907,55.6023792 L198.12907,56.8913731 L200.764333,57.3624282 L202.971041,57.92431 C202.749681,58.9339052 202.749681,59.5076485 202.971041,59.6455399 C203.192401,59.7834313 204.113445,59.7834313 205.734171,59.6455399 L205.734171,58.2152046 L207.56427,57.92431 L207.56427,56.0684575 L210.728484,56.8913731 L213.124496,56.5643966 L214.268308,54.5343557 L216.497992,55.6023792 L219.379097,55.0727644 L217.867362,49.2643139 L219.939819,48.9978901 L219.939819,44.5736958 L223.318022,44.0867237 L224.74953,41.0397105 L226.20489,42.7636457 L229.308154,43.2026552 L231.515911,43.4390118 L231.515911,46.3230365 L233.263557,46.0631532 L232.629114,47.839848 L241.060746,47.3025981 L242.173081,44.0867237 L244.987094,43.858793 L244.987094,46.0631532 L248.156469,35.08109 L249.016789,27.762608 L251.557562,26.9208442 L254.923678,30.9680448 L257.54185,26.9208442 L259.745491,24.9178203 L261.446038,24.9178203 L261.446038,22.5070087 L263.626608,18.5413656 L269.005843,17.71307 L266.561819,16.1081069 L267.873882,12.6318093 L270.343689,11.6695797 L271.542896,11.6695797 L270.343689,6.00793864 L275,0" id="Line-2" stroke="#70BF64" stroke-linecap="square"></path>
            <g id="Group-2" transform="translate(132.000000, 19.000000)" fill="#FFFFFF" stroke="#70BF64">
                <circle id="Oval" cx="2.5" cy="16.5" r="2.5"></circle>
                <circle id="Oval" cx="36.5" cy="26.5" r="2.5"></circle>
                <circle id="Oval" cx="131.5" cy="2.5" r="2.5"></circle>
                <circle id="Oval" cx="102.5" cy="27.5" r="2.5"></circle>
            </g>
        </g>
    </g>
</svg>