<?xml version="1.0" encoding="UTF-8" standalone="no"?>
<svg
   xmlns:dc="http://purl.org/dc/elements/1.1/"
   xmlns:cc="http://creativecommons.org/ns#"
   xmlns:rdf="http://www.w3.org/1999/02/22-rdf-syntax-ns#"
   xmlns:svg="http://www.w3.org/2000/svg"
   xmlns="http://www.w3.org/2000/svg"
   xmlns:sodipodi="http://sodipodi.sourceforge.net/DTD/sodipodi-0.dtd"
   xmlns:inkscape="http://www.inkscape.org/namespaces/inkscape"
   width="273"
   height="89"
   viewBox="0 0 273 89"
   version="1.1"
   id="svg3401"
   inkscape:version="0.91 r13725"
   sodipodi:docname="hp-graph-up-1.svg">
  <metadata
     id="metadata3429">
    <rdf:RDF>
      <cc:Work
         rdf:about="">
        <dc:format>image/svg+xml</dc:format>
        <dc:type
           rdf:resource="http://purl.org/dc/dcmitype/StillImage" />
        <dc:title>Group 7</dc:title>
      </cc:Work>
    </rdf:RDF>
  </metadata>
  <sodipodi:namedview
     pagecolor="#ffffff"
     bordercolor="#666666"
     borderopacity="1"
     objecttolerance="10"
     gridtolerance="10"
     guidetolerance="10"
     inkscape:pageopacity="0"
     inkscape:pageshadow="2"
     inkscape:window-width="1301"
     inkscape:window-height="744"
     id="namedview3427"
     showgrid="false"
     inkscape:zoom="4.1423358"
     inkscape:cx="137"
     inkscape:cy="44"
     inkscape:window-x="65"
     inkscape:window-y="24"
     inkscape:window-maximized="1"
     inkscape:current-layer="svg3401" />
  <!-- Generator: Sketch 48.1 (47250) - http://www.bohemiancoding.com/sketch -->
  <title
     id="title3403">Group 7</title>
  <desc
     id="desc3405">Created with Sketch.</desc>
  <defs
     id="defs3407">
    <linearGradient
       x1="78.230423"
       y1="49.531593"
       x2="78.230423"
       y2="137.5004"
       id="linearGradient-1"
       gradientTransform="scale(1.738454,0.57522372)"
       gradientUnits="userSpaceOnUse">
      <stop
         stop-color="#E9F5E7"
         offset="0%"
         id="stop3410" />
      <stop
         stop-color="#E9F5E7"
         stop-opacity="0"
         offset="100%"
         id="stop3412" />
    </linearGradient>
  </defs>
  <g
     id="CoinHITex"
     transform="translate(-137,-821)"
     style="fill:none;fill-rule:evenodd;stroke:none;stroke-width:1">
    <g
       id="Group-7"
       transform="translate(138,822)">
      <path
         d="m 2.7656306,82.662602 c 1.0243427,0.405679 1.7887145,0.405679 2.2931154,0 0.504401,-0.40568 1.167933,-1.554114 1.990596,-3.445303 1.6477664,0.722472 2.8317963,0.976028 3.55209,0.760668 0.04984,-0.0149 0.04984,-1.059711 0,-3.134426 1.129339,0.247542 2.115041,0.247542 2.957104,0 0.07912,-0.02326 1.138129,1.677484 2.723589,1.206289 0.654966,-0.194655 0.955671,-6.930205 2.230509,-7.314731 0.63092,-0.190303 1.401519,0.293471 2.40736,0 0.437981,-0.127789 0.460106,2.988881 1.073441,2.812 0.456874,-0.131759 1.459277,0.202002 2.154194,0 0.465035,-0.135178 -0.724142,-4.381859 0,-4.594164 0.617579,-0.181062 1.438793,-0.06335 2.51932,-0.372153 0.702148,-0.200667 0.874955,-4.527404 2.058229,-4.86205 0.7469,-0.211234 2.308333,0.334381 3.532439,0 0.533492,-0.145731 1.729573,2.184083 2.488245,1.978827 1.487222,-0.402362 5.339788,-6.106196 5.339788,-6.106196 0,0 0.347912,-1.765695 1.043737,-5.297085 3.454471,0.616786 5.719102,0.798799 6.793892,0.546039 0.123104,-0.02895 1.863099,1.872314 1.863099,1.872314 0.991683,0 2.329078,-0.107299 4.012186,-0.321898 0.687209,-0.08762 0.601291,2.950273 1.582138,2.777787 0.333231,-0.0586 0.465863,3.413848 0.884709,3.330127 0.624656,-0.124859 1.251226,-0.848618 2.343384,-1.115817 0.431844,-0.105652 0.966904,2.495201 1.580229,2.335902 0.570356,-0.148139 3.072627,-5.14076 4.028261,-5.407447 0.738857,-0.206192 0.310868,0.364592 1.613589,0 0.805101,-0.225324 -0.448741,5.787187 0.901161,5.407447 0.695271,-0.195587 1.994499,0.312809 3.059924,0 0.557202,-0.163595 1.787884,-5.832945 2.598834,-6.077643 0.438064,-0.132183 -0.621847,-3.825156 0,-4.009949 0.55659,-0.1654 2.363673,-0.30904 3.286585,-0.571062 0.398925,-0.113258 1.339097,2.46989 1.906512,2.311519 0.674674,-0.188308 1.6041,-3.155119 2.862053,-3.510108 0.594132,-0.167662 -0.919853,-3.820944 0,-4.076038 0.882068,-0.244615 0.544169,0.429821 2.185269,0 0.527183,-0.138075 4.009496,9.589885 4.738404,9.401354 0.92753,-0.239903 0.7209,-1.318438 2.450621,-1.815208 0.85189,-0.24466 0.668186,0.399977 2.024348,0 0.788541,-0.232567 0.429755,3.309037 1.659025,2.939688 0.838907,-0.25206 1.309171,0.428134 2.67708,0 0.808839,-0.253154 1.703485,2.837425 2.988009,2.424365 1.050081,-0.337673 4.160651,-8.939798 6.025271,-9.569584 0.93949,-0.31732 2.14496,-0.713946 3.61639,-1.18988 0.7891,-0.255233 0.98361,-2.424413 2.17071,-2.799682 0.97248,-0.307422 2.15936,-0.166604 3.82451,-0.672926 0.83125,-0.252759 2.44439,-5.620782 3.72601,-6.00576 0.73657,-0.221257 1.68651,0.79656 2.84981,3.053453 1.60083,0.305104 2.92884,0.305104 3.98402,0 0.14672,-0.04243 -0.56938,-1.698191 1.42674,-2.290218 0.72677,-0.215553 1.95652,-0.215553 3.68925,0 -1.03699,-3.670634 -1.03699,-5.656212 0,-5.956736 0.81879,-0.237284 1.09266,-0.299076 2.35152,-0.641026 0.4658,-0.126527 0.14186,-3.349097 0.76496,-3.513769 0.64349,-0.17006 1.50051,-0.983863 2.40211,-0.381215 0.5392,0.360413 0.94643,2.35429 1.7446,2.163215 0.69762,-0.167006 1.55268,-0.372906 2.56516,-0.6177 0.69409,-0.167814 1.12606,-1.678787 2.20483,-1.941367 0.63084,-0.153549 0.47699,2.174367 1.44991,1.941367 0.74311,-0.177966 1.0799,0.310527 2.34164,0 0.57504,-0.141525 2.15478,-2.213239 3.01163,-2.428032 0.5771,-0.144668 1.48315,2.651406 2.3857,2.428032 0.99613,-0.246531 0.1193,-3.508497 2.13079,-4.033062 0.84861,-0.221303 0.93314,-2.84953 2.27863,-3.186443 1.01103,-0.253164 0.54126,-0.05903 2.3061,-0.467704 0.72416,-0.16769 2.94696,2.349185 4.02088,2.10733 0.92204,-0.207652 2.81623,-0.339491 5.68258,-0.39552 3.46799,-3.587449 5.5983,-5.481662 6.39094,-5.682638 0.0828,-0.02098 0.78591,0.804762 2.10947,2.477235 0.9544,-1.508019 1.72737,-2.333764 2.3189,-2.477235 0.11537,-0.02798 1.72365,1.647296 4.15402,1.106389 0.73235,-0.162993 1.24407,-1.840618 2.52691,-2.141925 0.74663,-0.175367 1.51315,3.07677 2.76334,2.788262 0.92181,-0.212727 1.45036,0.420536 3.1135,0 0.43997,-0.111247 -0.58537,5.154797 0,5.001707 0.84811,-0.221803 2.10953,-0.593775 3.78426,-1.115917 0.47934,-0.149447 -0.66546,2.944594 0,2.729263 0.70973,-0.229654 3.45,1.807077 4.7389,1.348891 0.4969,-0.176639 -0.72282,3.827935 0,3.550693 0.66521,-0.255145 1.32466,0.51775 2.51743,0 0.4097,-0.177841 -0.57931,-2.509833 0,-2.773626 0.54809,-0.249573 1.13052,-0.34379 2.09004,-0.777067 0.3388,-0.152987 0.045,-2.280659 0.51979,-2.495531 0.54223,-0.245415 1.59813,1.584733 2.61314,1.14664 0.80893,-0.349148 1.06888,-0.02804 2.67569,-0.742804 0.41974,-0.186716 0.56434,-2.926983 1.14049,-3.186443 0.46613,-0.209911 1.22335,1.565912 1.96638,1.244106 0.73212,-0.317085 1.84124,-0.06435 3.28976,-0.708209 0.47878,-0.212817 -2.62464,-10.212981 -1.9261,-10.529663 0.71824,-0.32561 0.51443,0.05844 1.9261,-0.408493 0.54571,-0.180503 -0.33663,-7.7672632 0.50036,-8.0145067 0.77621,-0.2292912 1.92464,-0.4817552 3.44529,-0.757392 0.3686,-0.066813 0.50601,-4.1040087 0.99966,-4.1817768 0.71821,-0.1131444 0.0865,1.528633 1.19498,1.8521883 1.01458,0.2961507 4.99885,1.1014 4.99885,1.1014 0.71194,0 -0.48671,2.79041 0,5.2764746 0.0615,0.3140986 0.74902,0.1533186 2.06256,-0.4823407 -0.88912,2.3234293 -0.88912,3.3851333 0,3.1851123 0.22067,-0.04964 6.29939,-0.597985 8.13368,-1.143314 0.48202,-0.143306 0.7721,-5.3716029 1.51055,-5.6077437 0.46942,-0.1501102 1.09106,-0.3189585 1.86493,-0.5065449 0.35112,-0.085111 -0.53188,4.1845962 0,4.0724903 0.6205,-0.1307842 1.60914,-0.3902041 2.96591,-0.7782599 0.38809,-0.1109989 0.97009,-2.6156227 1.54163,-2.7876855 0.47671,-0.1435144 0.19808,3.0031601 1.04383,2.7876855 0.61939,-0.1578032 1.71329,0.1016168 3.28171,0.7782599 0.20683,2.3385403 0.55541,3.4002443 1.04573,3.1851123 0.10585,-0.04644 0.10585,1.011383 0,3.173469 0.47318,0.387283 0.96122,0.387283 1.46412,0 0.0863,-0.06646 0.0863,1.192058 0,3.775563 1.68499,-0.0087 2.6996,-0.18979 3.04385,-0.543215 0.0961,-0.09868 0.2791,-2.197261 1.15661,-3.232348 0.41932,-0.494626 0.92126,-0.494626 1.50581,0 0.0174,1.921105 0.19695,2.679655 0.53874,2.27565 0.0938,-0.110857 0.8286,-0.06371 1.51671,-1.02328 0.26062,-0.36342 0.37354,-1.671674 0.87137,-2.404998 0.28716,-0.422995 0.92665,1.180153 1.46933,0.408493 0.18012,-0.256124 0.6482,2.413586 0.9159,1.996505 0.11589,-0.180549 0.11589,1.005694 0,3.558729 l 3.50251,0 c -0.24127,-6.879519 -0.24127,-10.8621656 0,-11.9479402 C 267.6513,7.6220702 269.18129,4.7194553 272,0 l 0,86.999994 c 0,1.656854 -1.34315,3 -3,3 -0.002,0 -0.004,-2e-6 -0.006,-5e-6 L 0,89.490967 2.7656306,82.662602 Z"
         id="Rectangle-5"
         inkscape:connector-curvature="0"
         style="fill:url(#linearGradient-1)" />
      <path
         d="m 0,88 2.3112316,-6.249765 c 1.380595,0.526789 2.2479429,0.526789 2.6020438,0 0.9876993,-1.469381 1.4924988,-2.573568 1.5143984,-3.312561 l 3.8542872,0.966349 0,-3.23422 3.072322,0 2.638566,1.586842 1.863605,-7.530044 2.560519,0 1.04512,2.703195 2.414433,0 0,-4.60429 2.483473,0 1.670992,-5.282204 3.974357,0 2.234826,2.057331 5.19158,-6.071396 0.934055,-5.268405 7.621521,0.524348 1.316281,1.80584 3.835276,0 2.019197,2.356894 0.820487,3.868512 2.1903,-1.585062 1.520402,2.311938 3.906317,-5.410842 1.927144,0 0.827491,5.410842 3.478063,0 2.097244,-6.189797 0.517307,-3.901006 2.587535,-0.47583 1.951658,2.683611 2.96676,-3.95442 0,-3.892103 2.625058,0 3.156873,6.447075 1.302272,3.092673 1.831087,-1.693225 3.25293,0 0.839497,2.47218 3.195897,0 2.252336,3.098904 6.368778,-10.136649 3.27194,-0.824357 2.32088,-3.057064 3.95885,-0.586664 1.43335,-2.939998 2.31437,-4.036766 1.30127,1.92068 2.04522,2.116086 3.18789,0 1.63547,-2.610611 3.36699,0 0,-5.884447 2.99928,-0.591116 1.06814,-3.377548 2.32283,-0.520341 1.70106,2.30259 2.21381,-0.559957 2.57152,-2.747708 1.3343,2.747708 2.12826,0 3.40952,-2.747708 2.15928,2.747708 1.98718,-4.175198 2.22482,-3.130953 2.33238,-0.500312 3.93834,1.910443 6.14014,0 6.31275,-6.003794 2.15128,2.810969 2.04771,-3.622665 1.46037,1.940123 2.93774,0 2.44745,-2.631503 2.77615,3.278703 3.42553,0 0,5.061871 3.30396,-0.833704 0,2.305706 2.63957,0.842606 2.21031,1.005075 c -0.22172,1.805927 -0.22172,2.832219 0,3.078874 0.22172,0.246655 1.14427,0.246655 2.76764,0 l 0,-2.558533 1.83309,-0.520341 0,-3.319683 3.16938,1.472002 2.39992,-0.584884 1.14568,-3.631265 2.23333,1.910443 2.88581,-0.947357 -1.51421,-10.389948 2.07584,-0.47657 0,-7.9138402 3.38372,-0.8710785 L 221.66748,0 l 1.45773,3.0837137 3.10834,0.7852846 2.21136,0.4227861 0,5.1588404 1.7505,-0.4648699 -0.63548,3.1780881 8.4454,-0.961013 1.11415,-5.7524417 2.81861,-0.4077142 0,3.9430808 2.06541,-0.6949451 1.92468,-3.2481357 1.13527,3.2481357 3.41003,0.6949451 1.15327,3.1780881 -0.43331,3.037791 1.60028,0 0,4.032058 3.28174,-0.69138 0.84424,-3.02709 1.98091,-0.313588 0,2.422758 1.71444,-0.466028 0.63476,-2.923057 1.69917,0 1.03935,2.15053 0,3.659551 3.34776,0 c 0,-7.836385 0,-11.7545782 0,-11.7545782 0,0 1.55463,-2.7636033 4.66391,-8.2908098"
         id="Line-2"
         inkscape:connector-curvature="0"
         style="stroke:#70bf64;stroke-linecap:square" />
      <circle
         id="Oval"
         cx="41.5"
         cy="53.5"
         r="2.5"
         style="fill:#ffffff;stroke:#70bf64" />
      <circle
         id="circle3419"
         cx="80.5"
         cy="48.5"
         r="2.5"
         style="fill:#ffffff;stroke:#70bf64" />
      <circle
         id="circle3421"
         cx="110.5"
         cy="48.5"
         r="2.5"
         style="fill:#ffffff;stroke:#70bf64" />
      <circle
         id="circle3423"
         cx="160.5"
         cy="25.5"
         r="2.5"
         style="fill:#ffffff;stroke:#70bf64" />
      <circle
         id="circle3425"
         cx="230.5"
         cy="11.5"
         r="2.5"
         style="fill:#ffffff;stroke:#70bf64" />
    </g>
  </g>
</svg>
