<?xml version="1.0" encoding="UTF-8"?>
<svg width="278px" height="90px" viewBox="0 0 278 90" version="1.1" xmlns="http://www.w3.org/2000/svg" xmlns:xlink="http://www.w3.org/1999/xlink">
    <!-- Generator: Sketch 48.1 (47250) - http://www.bohemiancoding.com/sketch -->
    <title>Group 18</title>
    <desc>Created with Sketch.</desc>
    <defs>
        <linearGradient x1="50%" y1="34.2250341%" x2="50%" y2="109.105625%" id="linearGradient-1">
            <stop stop-color="#F8E8E8" offset="0%"></stop>
            <stop stop-color="#FFFFFF" stop-opacity="0" offset="100%"></stop>
        </linearGradient>
    </defs>
    <g id="CoinHITex" stroke="none" stroke-width="1" fill="none" fill-rule="evenodd" transform="translate(-432.000000, -1233.000000)">
        <g id="Group-18" transform="translate(433.000000, 1233.000000)">
            <path d="M0,9.48550647 C0.546347928,11.2522733 1.07190199,11.9328297 1.57666218,11.5271758 C1.8122089,11.3378771 1.8122089,14.3803125 1.57666218,20.654482 L4.3387531,22.4070978 L5.42642944,27.324259 C6.29265718,26.3126712 6.79400238,26.1153371 6.93046505,26.7322568 C6.98026522,26.9573932 7.1011648,28.2422405 7.29316379,30.5867989 L10.4832368,27.8751659 L15.9948977,27.324259 L17.0288964,30.7663665 C20.1038744,33.6801151 21.7775946,35.8018862 22.050057,37.1316798 C22.2298394,38.0091345 24.3991696,35.5894481 24.5995736,36.5488354 C24.6644848,36.8595827 25.8938904,34.8371064 28.1973732,32.3117841 C28.5685065,31.9049083 29.1755123,31.5168329 30.0183906,31.1475579 L31.809457,33.9210084 L35.1994431,29.0217338 L37.6549598,29.883905 L39.7344769,33.9210084 L43.1267669,26.3367624 L45.562009,26.3367624 L48.4838389,27.8751659 L48.4838389,32.3117841 L54.5652629,27.324259 L57.0276913,29.0217338 C58.1404537,33.336246 59.0280262,36.0395613 59.6904089,37.1316798 C60.5500181,38.5489801 62.7229673,36.2242988 63.4532837,38.0654594 C63.9351584,39.2802871 65.1404981,40.3446175 67.0693028,41.2584504 C69.5170616,37.7660244 70.7516478,36.7016941 70.7730613,38.0654594 C70.7917681,39.2568477 77.5663845,34.7728917 77.2994833,36.5488354 C77.0844271,37.979806 78.1179586,38.502718 77.2994833,40.4952644 C77.0598546,41.0786314 78.1085027,41.3330267 80.4454278,41.2584504 C80.6918341,39.3483011 81.2787909,38.5804344 82.2062981,38.9548504 C82.7125468,39.1592127 83.309688,38.5514892 83.9977215,37.1316798 C84.799735,37.6331629 85.3955146,38.005419 85.7850604,38.2484482 C86.3125934,38.5775648 87.1108353,39.7278551 88.1797861,41.6993193 L90.9231501,37.1316798 L93.1215675,39.6690946 L95.865449,37.1316798 C97.4214995,37.1977939 98.4339376,37.5090538 98.9027634,38.0654594 C99.7366569,39.0551299 99.5962815,38.7587818 100.302133,39.6690946 C100.646732,40.1135132 100.646732,40.7902548 100.302133,41.6993193 C101.626289,42.9321226 102.288367,43.5485243 102.288367,43.5485243 C102.288367,43.5485243 103.868006,42.9321226 107.027282,41.6993193 L110.673197,47.9368054 L111.694136,49.9730341 C112.350345,48.3568609 113.074432,47.4236924 113.866397,47.1735287 C114.839569,46.8661257 116.027288,47.0069347 117.693625,46.5006453 C118.525471,46.2479023 120.139761,40.8802179 121.422285,40.4952644 C122.159389,40.2740205 123.110005,41.2917738 124.274133,43.5485243 C125.876103,43.8536092 127.205053,43.8536092 128.260982,43.5485243 C128.407813,43.5061013 127.6912,41.8504405 129.688745,41.2584504 C130.416035,41.0429116 131.646662,41.0429116 133.380626,41.2584504 C132.342889,37.5880482 132.342889,35.602595 133.380626,35.3020909 C134.199993,35.0648218 134.474057,35.0030337 135.73382,34.6611052 C136.199951,34.5345863 135.875782,31.3122186 136.49932,31.1475579 C137.143265,30.9775087 138.000902,30.1637571 138.903141,30.7663665 C139.442726,31.1267573 139.850249,33.120508 140.648984,32.929445 C141.347104,32.7624499 142.202766,32.5565629 143.215971,32.3117841 C143.910552,32.1439811 144.34283,30.6331033 145.422374,30.3705395 C146.053658,30.2170002 145.899701,32.5447691 146.87331,32.3117841 C147.616956,32.1338292 147.953982,32.6222913 149.216619,32.3117841 C149.792074,32.1702684 151.372941,30.0986849 152.230393,29.883905 C152.807903,29.7392468 153.7146,32.5351437 154.6178,32.3117841 C155.614634,32.0652686 154.737178,28.8035088 156.750107,28.278976 C157.599316,28.0576874 157.683903,25.4296258 159.030352,25.0927345 C160.042107,24.8395862 159.571997,25.0337111 161.338099,24.6250598 C162.062773,24.4573806 164.287156,26.9740963 165.361839,26.7322568 C166.284539,26.5246184 168.180081,26.3927869 171.048465,26.3367624 C174.518926,22.7495388 176.650759,20.8554454 177.443963,20.654482 C177.526777,20.6335007 178.230434,21.4591937 179.554933,23.1315611 C180.510015,21.6236372 181.283531,20.7979442 181.875482,20.654482 C181.990937,20.6265012 183.600365,22.3016749 186.032462,21.760802 C186.765333,21.5978191 187.277419,19.9202995 188.561168,19.6190118 C189.308338,19.4436557 191.168202,22.6955872 192.419283,22.4070978 C193.341748,22.1943846 192.700642,18.5397028 194.364974,18.1191931 C194.533899,18.0765125 196.341923,16.7915091 197.726702,19.0758306 C198.572364,20.4708278 198.691343,17.1386091 199.458625,19.0758306 C200.709606,22.2342857 201.950652,22.0380265 202.673985,21.760802 C203.339665,21.5056733 202.369478,15.2088491 203.563093,14.6911312 C203.973085,14.5133014 205.038665,14.9549074 205.61839,14.6911312 C206.166867,14.4415735 208.215599,18.5572582 209.23133,18.1191931 C209.537804,17.9870164 211.280873,22.0538099 212.164162,20.654482 C212.61223,19.9446426 213.068584,16.9022072 213.533226,11.5271758 C214.299692,11.3547029 214.853626,11.3547029 215.195028,11.5271758 C215.70713,11.7858851 218.383449,15.1580339 219.796123,14.6911312 C220.342223,14.5106397 219.459257,6.92435808 220.296838,6.67713014 C221.073602,6.44785346 222.22285,6.1954054 223.744583,5.91978596 C224.113443,5.85297728 224.250952,1.81603606 224.744953,1.73827288 C225.463671,1.62513563 224.831544,3.26680949 225.940789,3.59034435 C226.956084,3.88647642 230.9432,4.69167492 230.9432,4.69167492 C231.418161,4.69167492 232.262499,6.03021515 233.476214,8.7072956 C237.366138,10.9507454 239.922965,11.8907055 241.146694,11.5271758 C241.629065,11.3838792 241.919343,6.15591182 242.658323,5.91978596 C243.128079,5.76968517 243.750165,5.60084751 244.524582,5.41327299 C244.875947,5.32816743 244.972786,9.59760527 245.505048,9.48550647 C246.125991,9.35473052 246.134867,9.0953269 247.492609,8.7072956 C247.880975,8.59630375 248.463382,6.09183784 249.035329,5.91978596 C249.51238,5.77628058 249.233557,8.92275658 250.079908,8.7072956 C250.699735,8.54950235 251.794417,8.80890598 253.363955,9.48550647 C253.570928,11.0617382 253.919753,11.7422947 254.410431,11.5271758 C254.516351,11.480739 254.516351,12.9195759 254.410431,15.8436865 C254.883945,16.2309453 255.372332,16.2309453 255.875592,15.8436865 C255.961958,15.7772275 255.961958,17.0356693 255.875592,19.6190118 C257.561776,19.6102941 258.577115,19.4292338 258.921609,19.0758306 C259.017797,18.977155 259.200904,16.8787086 260.079039,15.8436865 C260.498663,15.3490915 261.000959,15.3490915 261.585926,15.8436865 C261.603311,17.7646707 261.783018,18.523173 262.125048,18.1191931 C262.218899,18.0083433 262.954238,18.0554846 263.642841,17.0959779 C263.903638,16.7325805 264.01664,15.4244089 264.514825,14.6911312 C264.802188,14.2681627 265.442138,15.8712095 265.985202,15.0995981 C266.165451,14.8434907 266.633865,17.5130328 266.901757,17.0959779 C267.017724,16.9154402 267.017724,18.1016082 266.901757,20.654482 L270.406763,20.654482 C270.165319,13.7753972 270.165319,9.79300172 270.406763,8.7072956 C270.648208,7.62158948 272.179287,4.71915761 275,0 L275,87 C275,88.6568542 273.656854,90 272,90 L3,90 C1.34314575,90 7.85251895e-15,88.6568542 -4.4408921e-16,87 L0,9.48550647 Z" id="Rectangle-5" fill="url(#linearGradient-1)"></path>
            <path d="M0,11.2545199 L1.45792838,13.0579869 L1.45792838,20.1378784 L2.59387877,21.921698 L4.36551001,21.921698 L5.19076668,27.0069244 L7.21516569,26.1693735 L7.21516569,30.3419242 L10.8893258,27.8981358 L13.1537037,27.8981358 L15.8062607,27.0069244 L16.8827806,30.8646669 L21.9554385,36.7800646 L24.574895,36.7800646 L27.7600698,32.0925979 L30.1280249,30.8646669 L31.6215488,33.4350047 L35.2076915,28.4857182 L37.5653528,29.3322126 L39.7687956,34.257799 L42.836614,26.1693735 L45.3296866,26.1693735 L48.7337763,27.8981358 L48.7337763,32.0925979 L54.4932705,27.0069244 L56.5545314,28.4857182 L58.9966064,37.6754658 L63.4956378,37.6754658 L66.6730026,40.7632398 L70.343757,37.6754658 L73.4276459,37.6754658 L77.4674266,35.8659753 L77.4674266,40.7632398 L79.5620975,41.2600466 L82.2094951,39.3305046 L83.648408,36.7800646 L86.2775712,37.6754658 L87.933466,41.2600466 L90.7436912,36.7800646 L92.5776415,39.3305046 L95.8356593,36.7800646 L98.7368312,36.7800646 L100.713641,39.3305046 L99.8089581,41.2600466 L102.336869,43.3858966 L106.621313,41.2600466 L111.789023,50 L114.11353,46.9288309 L118.07857,46.3394598 L119.514163,43.3858966 L121.832156,39.3305046 L123.135463,41.2600466 L125.183875,43.3858966 L128.376753,43.3858966 L130.014781,40.7632398 L133.387045,40.7632398 L133.387045,34.8516418 L136.391015,34.257799 L137.46082,30.8646669 L139.787284,30.3419242 L141.491001,32.6551388 L143.708277,32.0925979 L146.283824,29.3322126 L147.620203,32.0925979 L149.751794,32.0925979 L153.16665,29.3322126 L155.329308,32.0925979 L157.319595,27.8981358 L159.547895,24.7527363 L161.883927,24.2501164 L165.828423,26.1693735 L171.97817,26.1693735 L178.300789,20.1378784 L180.45543,22.9618173 L182.506347,19.3224371 L183.968998,21.2715116 L186.911336,21.2715116 L189.362616,18.6278673 L192.143105,21.921698 L194.366526,17.2375331 L197.441854,19.3224371 L199.458865,17.7057112 L200.620215,21.921698 L202.863765,21.921698 L202.863765,14.3009896 C204.379137,13.9544153 205.356483,13.9544153 205.7958,14.3009896 C206.235117,14.6475638 207.086021,16.0898564 208.348511,18.6278673 L209.796387,17.2375331 L210.762587,20.1378784 L212.774139,20.1378784 L212.774139,11.2545199 C213.964776,10.911946 214.847276,10.911946 215.421636,11.2545199 C215.995997,11.5970938 217.083641,12.7721732 218.684568,14.779758 L220.763655,14.3009896 L220.763655,6.35063424 L224.152667,5.47553659 L225.588755,0 L227.048771,3.09794211 L230.161964,3.88685001 L232.376785,4.31158685 L234.130022,9.02721545 L241.952158,11.2545199 L243.068052,5.47553659 L245.891068,5.0659412 L245.891068,9.02721545 L247.959714,8.32906388 L249.887405,5.0659412 L251.024444,8.32906388 L254.439811,9.02721545 L255.594886,12.2199674 L255.160896,15.2717749 L256.76368,15.2717749 L256.76368,19.3224371 L260.050556,18.6278673 L260.896116,15.5868098 L262.880117,15.2717749 L262.880117,17.7057112 L264.597241,17.2375331 L265.233,14.3009896 L266.934828,14.3009896 L267.975801,16.4614423 L267.975801,20.1378784 L271.328791,20.1378784 C271.328791,12.2653354 271.328791,8.32906388 271.328791,8.32906388 C271.328791,8.32906388 272.885861,5.55270926 276,0" id="Line-2" stroke="#D56E6A" stroke-linecap="square"></path>
            <g id="Group-2" transform="translate(63.000000, 16.000000)" fill="#FFFFFF" stroke="#D56E6A">
                <circle id="Oval" cx="2.5" cy="22.5" r="2.5"></circle>
                <circle id="Oval" cx="32.5" cy="21.5" r="2.5"></circle>
                <circle id="Oval" cx="127.5" cy="2.5" r="2.5"></circle>
                <circle id="Oval" cx="98.5" cy="7.5" r="2.5"></circle>
            </g>
        </g>
    </g>
</svg>