<?xml version="1.0" encoding="UTF-8"?>
<svg width="277px" height="90px" viewBox="0 0 277 90" version="1.1" xmlns="http://www.w3.org/2000/svg" xmlns:xlink="http://www.w3.org/1999/xlink">
    <!-- Generator: Sketch 48.1 (47250) - http://www.bohemiancoding.com/sketch -->
    <title>Group 10</title>
    <desc>Created with Sketch.</desc>
    <defs>
        <linearGradient x1="50%" y1="27.3046875%" x2="50%" y2="126.115451%" id="linearGradient-1">
            <stop stop-color="#EBF6E9" offset="0%"></stop>
            <stop stop-color="#FFFFFF" stop-opacity="0" offset="100%"></stop>
        </linearGradient>
    </defs>
    <g id="CoinHITex" stroke="none" stroke-width="1" fill="none" fill-rule="evenodd" transform="translate(-433.000000, -822.000000)">
        <g id="Group-10" transform="translate(433.000000, 822.000000)">
            <path d="M1.38990613,37.6314961 L2.06218647,38.8938735 C2.31429813,39.3672773 2.90244462,39.54667 3.37584842,39.2945583 C3.5014115,39.2276896 3.61075058,39.1340516 3.69613391,39.0202658 L3.69613391,39.0202658 C4.27299061,38.2515198 5.17804393,37.7991331 6.13915474,37.7991331 L6.20741957,37.7991331 C7.21819379,37.7991331 8.1768987,38.2474813 8.82489059,39.0232203 L9.1428102,39.4038156 C9.84885872,40.2490567 11.1064275,40.3618946 11.9516686,39.6558461 C11.9758253,39.6356675 11.9995008,39.6149198 12.0226753,39.5936205 L12.2291898,39.4038156 C12.7732103,38.9038136 13.6195578,38.9394975 14.1195598,39.483518 C14.2845816,39.6630677 14.3973896,39.8843069 14.4457898,40.123321 L14.6187209,40.9773035 C14.7468275,41.60993 15.3635234,42.0189242 15.9961499,41.8908176 C16.3372595,41.8217431 16.6298376,41.6042377 16.7942615,41.2974938 L18.2125042,38.6516658 C18.4938814,38.1267374 19.0411885,37.7991331 19.6367747,37.7991331 L19.6367747,37.7991331 C20.1726855,37.7991331 20.6087519,38.2304844 20.6145778,38.7663636 L20.6289477,40.088124 C20.6384136,40.9588034 21.00443,41.7875296 21.6416102,42.3809718 L21.6416102,42.3809718 C22.0564947,42.7673773 22.7060686,42.7442906 23.0924741,42.3294061 C23.1579194,42.2591374 23.2131818,42.1800337 23.2566454,42.0944083 L23.7274028,41.166993 C23.993535,40.6426992 24.6154265,40.4076903 25.1617866,40.6249483 L25.1617866,40.6249483 C25.7860858,40.8731985 26.3070313,41.3269737 26.6385719,41.9113182 L26.7793305,42.159407 C26.9941089,42.5379567 27.4750964,42.6707195 27.8536461,42.4559411 C27.9676731,42.3912454 28.0637582,42.2991242 28.1331978,42.1879224 L28.1510041,42.159407 C28.4156625,41.7355778 28.9737921,41.6065443 29.3976213,41.8712028 C29.4988965,41.9344437 29.5866525,42.0171052 29.6558301,42.114422 L29.6878077,42.159407 C30.0548053,42.6756872 30.7708435,42.7967046 31.2871237,42.429707 C31.3515216,42.3839298 31.4110168,42.3316207 31.4646615,42.2736131 L34.4527097,39.0425514 C35.2046185,38.229491 36.166883,37.640394 37.2329476,37.3404936 L37.2707861,37.329849 C37.9686782,37.1335213 38.6935866,37.5401194 38.8899144,38.2380115 C38.9224598,38.3537018 38.9389638,38.4733135 38.9389638,38.5934944 L38.9389638,39.1560964 C38.9389638,40.0096539 39.6309089,40.7015989 40.4844664,40.7015989 C40.6837751,40.7015989 40.8812025,40.6630478 41.0658704,40.5880696 L42.4295619,40.0343891 C43.3794096,39.6487357 44.4629402,39.8001086 45.2707298,40.4313099 L45.3221667,40.4715023 C46.0539102,41.0432816 47.0855569,41.0265364 47.798358,40.4313099 L47.8798781,40.3632363 C48.5589197,39.7962008 49.5269507,39.7341094 50.2728713,40.209745 L50.2728713,40.209745 C50.8965078,40.6074064 51.7244333,40.4242173 52.1220947,39.8005808 C52.146959,39.761587 52.1697868,39.7213316 52.1904864,39.6799761 L52.3287124,39.4038156 C52.7750601,38.5120616 53.8523171,38.1406039 54.7534374,38.5677266 L54.8322067,38.6050625 C55.8716608,39.0977542 57.1014603,38.9514901 57.9963578,38.2287396 L58.1818757,38.0789089 C59.131954,37.3115926 60.3869119,37.0342927 61.5718463,37.329849 L62.0241633,37.4426698 C62.9629734,37.6768357 63.8312268,38.134573 64.5548842,38.7768486 L65.2612933,39.4038156 C66.2958891,40.3220618 67.8508195,40.3313016 68.8962548,39.4254154 L69.6524733,38.7701402 C70.3884615,38.1323949 71.2686238,37.6833827 72.2169555,37.4618772 L74.9946376,36.8130833 C76.0045078,36.5772041 77.0143871,37.2046477 77.2502664,38.2145178 C77.2829695,38.3545297 77.2994833,38.4978344 77.2994833,38.6416149 L77.2994833,39.4355259 C77.2994833,40.3042545 78.003727,41.0084981 78.8724556,41.0084981 L79.149853,41.0084981 C79.989301,41.0084981 80.8045529,40.7272849 81.4654806,40.209745 L81.5983474,40.1057035 C82.1846795,39.6465758 82.6804156,39.0823072 83.0602205,38.4417357 L83.4595134,37.7682962 C83.7492501,37.2796319 84.3802689,37.1183692 84.8689333,37.408106 C84.8764773,37.4125789 84.8839638,37.4171482 84.8913909,37.4218127 L84.8913909,37.4218127 C85.4809975,37.7921009 85.9890578,38.2785342 86.384628,38.8514858 L86.9824232,39.7173441 C87.4076269,40.3332173 88.2515864,40.4877855 88.8674596,40.0625819 C89.0271343,39.9523413 89.1612723,39.8090953 89.2608008,39.6425327 L90.0595681,38.305783 C90.4036825,37.7299022 91.149486,37.5420184 91.7253668,37.8861328 C91.8371001,37.9528984 91.9373763,38.0371886 92.0223588,38.1357785 L92.0223588,38.1357785 C92.6071059,38.814155 93.6310698,38.8900566 94.3094463,38.3053096 C94.3247868,38.2920864 94.3398782,38.278577 94.3547126,38.2647885 L94.7012021,37.9427278 C95.4214865,37.2732263 96.4445588,37.0395171 97.3841062,37.329849 L97.8830613,37.4840324 C98.5495502,37.6899858 99.1451261,38.0782978 99.602448,38.6050625 L99.6332335,38.6405228 C100.064611,39.1374035 100.302133,39.7733 100.302133,40.4313099 L100.302133,40.4313099 C100.302133,41.0822218 100.571859,41.7040334 101.04713,42.1487848 L101.29525,42.3809718 C101.901961,42.9487222 102.781035,43.1170827 103.554589,42.8136809 L104.657825,42.3809718 C106.021102,41.8462697 107.570614,42.3859349 108.306777,43.6518322 L110.576612,47.5550139 C110.640986,47.6657099 110.701799,47.7784384 110.758959,47.8930262 L111.183667,48.7444359 C111.360446,49.0988234 111.791041,49.2428038 112.145428,49.066025 C112.242231,49.017737 112.326854,48.9481727 112.39296,48.8625422 L112.780266,48.3608405 C113.479102,47.4555954 114.490513,46.8436181 115.616672,46.6446072 L115.780011,46.6157427 C116.997435,46.4006038 118.065167,45.6761008 118.714882,44.6243034 L120.321436,42.0235188 C120.784634,41.2736661 121.768006,41.0412866 122.517859,41.5044848 C122.639648,41.5797165 122.750762,41.6709927 122.848209,41.7758571 L122.917159,41.8500548 C123.782498,42.7812603 124.996355,43.3103158 126.267558,43.3103158 L126.906649,43.3103158 C127.748737,43.3103158 128.530992,42.875011 128.974864,42.159407 L128.974864,42.159407 C129.418736,41.443803 130.20099,41.0084981 131.043078,41.0084981 L131.534686,41.0084981 C132.554171,41.0084981 133.380626,40.1820423 133.380626,39.1625575 L133.380626,36.2414918 C133.380626,35.5211034 133.862405,34.8896891 134.557223,34.6994573 L134.557223,34.6994573 C135.280353,34.5014741 135.833417,33.9178359 135.992243,33.1851093 L136.241494,32.0352155 C136.396952,31.3180241 136.976532,30.7696928 137.701231,30.6541828 L137.701231,30.6541828 C138.444387,30.5357306 139.194,30.8248287 139.665177,31.4116043 L139.822199,31.6071503 C140.326817,32.2355726 141.149113,32.5158239 141.932477,32.3263664 L141.932477,32.3263664 C142.775341,32.1225192 143.555564,31.7156385 144.205156,31.141181 L144.511639,30.8701475 C144.973732,30.4615023 145.679605,30.5048304 146.08825,30.9669236 C146.109142,30.9905477 146.129024,31.0150459 146.147842,31.0403525 L146.174167,31.0757538 C146.614049,31.6673014 147.307791,32.0159523 148.044965,32.0159523 L148.044965,32.0159523 C148.803007,32.0159523 149.538065,31.7556692 150.127192,31.2786384 L150.903794,30.6498036 C151.655737,30.0409365 152.747482,30.1041738 153.424097,30.7957875 L153.424097,30.7957875 C153.90412,31.2864517 154.691017,31.2950779 155.181681,30.8150548 C155.274294,30.7244504 155.352171,30.6199223 155.412489,30.5052578 L156.56201,28.3200333 C156.687266,28.081923 156.828396,27.8525073 156.984444,27.6333394 L158.347356,25.7191438 C158.786246,25.1027268 159.442752,24.6758795 160.184226,24.5248461 L160.184226,24.5248461 C160.930435,24.3728482 161.706248,24.4835944 162.380124,24.8383074 L163.851426,25.6127663 C164.83878,26.1324866 165.951496,26.3665927 167.064566,26.2887838 L169.001115,26.1534096 C170.328268,26.0606352 171.58695,25.5294029 172.57925,24.6432412 L176.226616,21.3860072 C176.881872,20.8008386 177.887435,20.8576561 178.472604,21.5129125 C178.481684,21.52308 178.490633,21.5333637 178.499448,21.5437612 L178.499448,21.5437612 C179.017708,22.1550218 179.933364,22.2304142 180.544625,21.7121549 C180.587919,21.6754476 180.629023,21.6362315 180.667723,21.5947089 L180.715208,21.5437612 C181.429252,20.777643 182.507733,20.4679975 183.519442,20.7386299 L184.42838,20.9817712 C185.4328,21.250454 186.505121,21.0084729 187.296815,20.3344768 L187.296815,20.3344768 C188.009628,19.7276346 189.069932,19.7736744 189.727462,20.4400188 L190.232267,20.9515907 C190.932376,21.6610853 191.887579,22.0604736 192.884341,22.0604736 L192.884341,22.0604736 C193.744723,22.0604736 194.442201,22.7579511 194.442201,23.6183332 L194.442201,25.11274 C194.442201,25.9271936 195.102446,26.5874387 195.916899,26.5874387 C196.058684,26.5874387 196.199728,26.5669914 196.335676,26.5267282 L196.914071,26.3554266 C197.456448,26.1947926 198.026351,26.5042564 198.186985,27.0466333 C198.21495,27.1410534 198.229151,27.2390129 198.229151,27.337487 L198.229151,27.337487 C198.229151,28.1493465 198.767277,28.8628696 199.547865,29.0860242 L201.25582,29.5742945 C202.271343,29.8646121 202.971429,30.792885 202.971429,31.8490908 L202.971429,32.3738172 C202.971429,33.0694815 203.535376,33.6334289 204.23104,33.6334289 L204.23104,33.6334289 C204.926705,33.6334289 205.490652,33.0694815 205.490652,32.3738172 L205.490652,31.962051 C205.490652,31.2907697 205.907549,30.6900814 206.536417,30.4552543 L206.536417,30.4552543 C207.187286,30.2122115 207.667778,29.6520067 207.80886,28.971715 L207.842259,28.8106677 C207.958435,28.2504736 208.506741,27.8905255 209.066935,28.0067011 C209.13821,28.0214825 209.207729,28.0437353 209.274339,28.0730908 L209.44551,28.148527 C210.267885,28.5109525 211.190462,28.5771146 212.056138,28.3357469 L212.056138,28.3357469 C212.895618,28.101683 213.568944,27.4741811 213.8615,26.6532523 L214.144919,25.8579616 C214.317388,25.3740019 214.849529,25.1214891 215.333489,25.2939585 C215.398909,25.3172723 215.461512,25.3478387 215.520129,25.3850863 L215.520129,25.3850863 C216.150532,25.7856716 216.913369,25.9217825 217.643411,25.7639379 L218.150069,25.6543919 C219.067758,25.4559757 219.662598,24.565359 219.494365,23.6416599 L218.045211,15.6849083 C217.946864,15.1449222 218.295563,14.6245663 218.832388,14.5102195 L218.832388,14.5102195 C219.402073,14.3888735 219.821119,13.9028246 219.857256,13.321482 L220.18731,8.01183068 C220.252156,6.96864978 221.000097,6.09456831 222.020711,5.86922693 L222.020711,5.86922693 C223.074962,5.63645871 223.903367,4.82150048 224.153355,3.77119911 L224.488795,2.36187675 C224.548998,2.10893991 224.802848,1.95269819 225.055785,2.0129011 C225.174194,2.04108435 225.277086,2.1140332 225.342871,2.21644116 L225.342871,2.21644116 C225.725851,2.81262895 226.329081,3.23315042 227.020944,3.38625191 L228.441995,3.70071487 C229.903124,4.02404669 230.9432,5.31944119 230.9432,6.81591777 L230.9432,8.49730521 C230.9432,8.96120074 231.319261,9.33726238 231.783157,9.33726238 C231.847819,9.33726238 231.912265,9.32979571 231.975214,9.31501071 L231.975214,9.31501071 C232.42682,9.20894076 232.878906,9.48905329 232.984976,9.94065957 C232.999761,10.0036086 233.007227,10.0680543 233.007227,10.1327162 L233.007227,10.6732407 C233.007227,11.4412055 233.629786,12.0637639 234.397751,12.0637639 C234.462784,12.0637639 234.527738,12.0592016 234.592133,12.0501105 L238.257674,11.5326209 C240.0095,11.2853036 241.444202,10.0154908 241.902508,8.30668554 L242.407765,6.42282362 C242.562925,5.84430801 243.013606,5.39169261 243.591452,5.23405775 L243.591452,5.23405775 C243.98505,5.12668527 244.391167,5.35871686 244.498539,5.7523148 C244.515824,5.81567408 244.524582,5.88105535 244.524582,5.94672987 L244.524582,7.53793461 C244.524582,8.1910834 245.054063,8.7205651 245.707212,8.7205651 C245.808934,8.7205651 245.910231,8.7074411 246.008595,8.68151809 L246.008595,8.68151809 C246.956254,8.43176947 247.760143,7.8045352 248.232838,6.94605277 L248.314194,6.79829896 C248.496893,6.46649147 248.913982,6.34561498 249.24579,6.52831375 C249.389617,6.60750745 249.500262,6.73567068 249.557619,6.88951512 L249.557619,6.88951512 C249.884041,7.7650548 250.625337,8.42032879 251.534319,8.63683205 L251.725807,8.68244111 C252.74354,8.92484712 253.56212,9.67882134 253.887193,10.6732407 L254.113447,11.3653688 C254.310196,11.9672368 254.410431,12.5964556 254.410431,13.2296658 L254.410431,14.7308239 C254.410431,15.1354169 254.738418,15.4634044 255.143011,15.4634044 L255.143011,15.4634044 C255.547604,15.4634044 255.875592,15.7913918 255.875592,16.1959848 L255.875592,17.71081 C255.875592,18.4258002 256.455206,19.0054144 257.170196,19.0054144 C257.246782,19.0054144 257.323216,18.9986185 257.3986,18.9851066 L257.3986,18.9851066 C258.340458,18.8162885 259.119757,18.1559542 259.44089,17.2545836 L259.826176,16.1731492 C259.977793,15.7475855 260.380717,15.4634044 260.832482,15.4634044 L260.832482,15.4634044 C261.273974,15.4634044 261.657496,15.7670355 261.758787,16.1967504 L261.914729,16.8583225 C261.994773,17.1978987 262.334942,17.4082917 262.674518,17.3282484 C262.749337,17.3106124 262.820308,17.2794689 262.883945,17.2363489 L262.883945,17.2363489 C263.377154,16.9021482 263.751748,16.4202238 263.953917,15.8598014 L264.255804,15.0229569 C264.401852,14.6181053 264.835481,14.3944727 265.250014,14.5102195 L265.250014,14.5102195 C265.716199,14.6403888 266.101241,14.9695455 266.302339,15.40981 L266.44348,15.718809 C266.745465,16.3799477 266.901757,17.0982923 266.901757,17.8251348 L266.901757,18.5463671 C266.901757,19.5142479 267.68638,20.2988703 268.65426,20.2988703 L268.65426,20.2988703 C269.622141,20.2988703 270.406763,19.5142479 270.406763,18.5463671 L270.406763,9.76924456 C270.406763,8.79789414 270.642594,7.84106588 271.093992,6.98097213 L272.703382,3.91444347 C273.016003,3.31877588 273.752316,3.08932124 274.347984,3.40194218 C274.74888,3.61234253 275,4.02773955 275,4.48049376 L275,84 C275,87.3137085 272.313708,90 269,90 L6,90 C2.6862915,90 -4.99678741e-14,87.3137085 -5.77315973e-14,84 L-4.28546088e-14,37.9785228 C-4.29045423e-14,37.5707846 0.330537084,37.2402475 0.738275241,37.2402475 C1.01109056,37.2402475 1.26166914,37.3906985 1.38990613,37.6314961 Z" id="Rectangle-5" fill="url(#linearGradient-1)"></path>
            <path d="M1,34.8516418 L3.00845506,40.7632398 L5.02339424,37.6754658 L7.89666832,37.6754658 L10.8518044,41.2600466 L14.6203216,37.6754658 L15.953183,43.3858966 L18.9739707,37.6754658 L21.2045068,37.6754658 L21.2045068,41.2600466 L23.2607822,43.3858966 L24.4279231,39.3305046 L26.4339466,40.7632398 L27.8807151,43.3858966 L29.2796632,39.3305046 L30.8293671,43.3858966 L35.5441302,37.6754658 L39.4273054,36.7800646 L39.4273054,41.2600466 L44.999593,39.3305046 L46.6878948,41.2600466 L49.400687,39.3305046 L51.7333479,41.2600466 L53.5537636,37.6754658 L57.0632916,39.3305046 L59.6156019,37.6754658 L64.1017999,37.6754658 L67.2701013,40.7632398 L70.930385,37.6754658 L74.0054773,37.6754658 L78.0337346,35.8659753 L78.0337346,40.7632398 L80.1224306,41.2600466 L82.7622765,39.3305046 L84.1970849,36.7800646 L86.8187485,37.6754658 L88.46992,41.2600466 L91.2721291,36.7800646 L93.1008481,39.3305046 L96.3495725,36.7800646 L99.2424689,36.7800646 L101.21364,39.3305046 L100.311538,41.2600466 L102.832238,43.3858966 L107.10446,41.2600466 L112.257429,50 L114.575306,46.9288309 L118.529036,46.3394598 L119.960534,43.3858966 L122.271915,39.3305046 L123.571504,41.2600466 L125.614073,43.3858966 L128.797843,43.3858966 L130.431199,40.7632398 L133.793844,40.7632398 L133.793844,34.8516418 L136.789246,34.257799 L137.855998,30.8646669 L140.175827,30.3419242 L141.874683,32.6551388 L144.085635,32.0925979 L146.653836,29.3322126 L147.986402,32.0925979 L150.111913,32.0925979 L153.517028,29.3322126 L155.673518,32.0925979 L157.658127,27.8981358 L159.880071,24.7527363 L162.209439,24.2501164 L166.142684,26.1693735 L172.274889,26.1693735 L178.579473,20.1378784 L180.727968,22.9618173 L182.773035,19.3224371 L184.231514,21.2715116 L187.165458,21.2715116 L189.609746,18.6278673 L192.382304,21.921698 L195.803408,21.921698 L195.803408,27.0069244 L199.103096,26.1693735 L199.103096,28.4857182 L201.73925,29.3322126 L203.946704,30.3419242 C203.725269,32.1561846 203.725269,33.1872114 203.946704,33.4350047 C204.168139,33.682798 205.089493,33.682798 206.710767,33.4350047 L206.710767,30.8646669 L208.541485,30.3419242 L208.541485,27.0069244 L211.706768,28.4857182 L214.103589,27.8981358 L215.247788,24.2501164 L217.478225,26.1693735 L220.360304,25.2176462 L218.848058,14.779758 L220.921215,14.3009896 L220.921215,6.35063424 L224.30056,5.47553659 L225.732552,0 L227.188403,3.09794211 L230.292715,3.88685001 L232.501219,4.31158685 L232.501219,9.49423034 L234.249455,9.02721545 L233.614798,12.2199674 L242.049278,11.2545199 L243.161989,5.47553659 L245.976953,5.0659412 L245.976953,9.02721545 L248.039698,8.32906388 L249.961891,5.0659412 L251.095686,8.32906388 L254.501311,9.02721545 L255.653091,12.2199674 L255.220339,15.2717749 L256.818551,15.2717749 L256.818551,19.3224371 L260.096052,18.6278673 L260.9392,15.5868098 L262.917541,15.2717749 L262.917541,17.7057112 L264.629767,17.2375331 L265.263713,14.3009896 L266.960686,14.3009896 L267.998689,16.4614423 L267.998689,20.1378784 L271.342115,20.1378784 C271.342115,12.2653354 271.342115,8.32906388 271.342115,8.32906388 C271.342115,8.32906388 272.894744,5.55270926 276,0" id="Line-2" stroke="#70BF64" stroke-linecap="square"></path>
            <g id="Group-2" transform="translate(63.000000, 17.000000)" fill="#FFFFFF" stroke="#70BF64">
                <circle id="Oval" cx="2.5" cy="22.5" r="2.5"></circle>
                <circle id="Oval" cx="32.5" cy="21.5" r="2.5"></circle>
                <circle id="Oval" cx="127.5" cy="2.5" r="2.5"></circle>
                <circle id="Oval" cx="98.5" cy="7.5" r="2.5"></circle>
            </g>
        </g>
    </g>
</svg>