<?xml version="1.0" encoding="utf-8"?>
<!-- Generator: Adobe Illustrator 16.0.0, SVG Export Plug-In . SVG Version: 6.00 Build 0)  -->
<!DOCTYPE svg PUBLIC "-//W3C//DTD SVG 1.1//EN" "http://www.w3.org/Graphics/SVG/1.1/DTD/svg11.dtd">
<svg version="1.1" id="Layer_1" xmlns="http://www.w3.org/2000/svg" xmlns:xlink="http://www.w3.org/1999/xlink" x="0px" y="0px"
	 width="100px" height="100px" viewBox="200 200 100 100" enable-background="new 200 200 100 100" xml:space="preserve">
<g>
	<path fill="#fff" d="M205.313,294.686c1.31,1.311,2.947,1.965,4.583,1.965s3.273-0.654,4.583-1.965l35.52-35.355l35.521,35.52
		c1.309,1.311,2.946,1.965,4.582,1.965c1.639,0,3.273-0.654,4.584-1.965c2.619-2.617,2.619-6.711,0-9.33L259.33,250l35.519-35.519
		c2.621-2.62,2.621-6.711,0-9.331c-2.619-2.619-6.71-2.619-9.329,0l-35.521,35.52l-35.52-35.357c-2.619-2.618-6.711-2.618-9.331,0
		c-2.618,2.62-2.618,6.711,0,9.331L240.669,250l-35.356,35.52C202.694,287.975,202.694,292.232,205.313,294.686z"/>
</g>
</svg>
