<?xml version="1.0" encoding="utf-8"?>
<!-- Generator: Adobe Illustrator 16.0.0, SVG Export Plug-In . SVG Version: 6.00 Build 0)  -->
<!DOCTYPE svg PUBLIC "-//W3C//DTD SVG 1.1//EN" "http://www.w3.org/Graphics/SVG/1.1/DTD/svg11.dtd">
<svg version="1.1" id="Layer_1" xmlns="http://www.w3.org/2000/svg" xmlns:xlink="http://www.w3.org/1999/xlink" x="0px" y="0px"
	 width="100px" height="100px" viewBox="200 200 100 100" enable-background="new 200 200 100 100" xml:space="preserve">
<path fill="#FFFFFF" d="M293.712,213.009h-58.439c-1.865,0-3.108,1.553-3.108,3.107v16.165h-8.082c-3.108,0-3.73,0.932-4.974,1.865
	c-0.622,0.622-9.325,9.326-10.568,10.569c-1.243,1.243-2.487,3.419-2.487,5.284v21.45c-4.352,0-4.041,6.527-0.311,6.527h6.839
	c0,1.243,0,2.176,0.311,3.108c3.73,12.123,18.962,13.056,24.558,2.176c0.622-1.555,1.243-3.73,1.243-5.284h19.272
	c0,16.786,26.111,17.097,26.111,0h9.946c1.555,0,2.797-1.865,2.797-3.419v-58.129C296.821,214.562,295.577,213.009,293.712,213.009z
	 M211.648,246.58l10.258-10.258h10.258v10.258H211.648z M225.947,286.368c-3.73,0-6.528-3.108-6.528-6.527
	c0-3.73,2.798-6.839,6.528-6.839c3.419,0,6.528,3.108,6.528,6.839C232.476,283.26,229.367,286.368,225.947,286.368z
	 M271.021,285.746c-3.73,0-6.527-2.798-6.527-6.527c0-3.73,2.797-6.527,6.527-6.527c3.729,0,6.527,2.797,6.527,6.527
	C277.548,282.948,274.75,285.746,271.021,285.746z M293.091,254.352h-54.398v14.92c0,0.622-0.622,0.934-1.243,0.934
	c-0.622,0-0.933-0.312-0.933-0.934v-51.912c0-0.621,0.311-0.932,0.933-0.932c0.622,0,1.243,0.311,1.243,0.932v35.128h54.398
	c0.62,0,0.932,0.311,0.932,0.933C294.022,254.04,293.711,254.352,293.091,254.352z"/>
</svg>
