<?xml version="1.0" encoding="utf-8"?>
<!-- Generator: Adobe Illustrator 16.0.0, SVG Export Plug-In . SVG Version: 6.00 Build 0)  -->
<!DOCTYPE svg PUBLIC "-//W3C//DTD SVG 1.1//EN" "http://www.w3.org/Graphics/SVG/1.1/DTD/svg11.dtd">
<svg version="1.1"
	 id="Layer_1" xmlns:inkscape="http://www.inkscape.org/namespaces/inkscape" xmlns:rdf="http://www.w3.org/1999/02/22-rdf-syntax-ns#" xmlns:cc="http://creativecommons.org/ns#" xmlns:dc="http://purl.org/dc/elements/1.1/" xmlns:sodipodi="http://sodipodi.sourceforge.net/DTD/sodipodi-0.dtd" xmlns:svg="http://www.w3.org/2000/svg"
	 xmlns="http://www.w3.org/2000/svg" xmlns:xlink="http://www.w3.org/1999/xlink" x="0px" y="0px" width="100px" height="100px"
	 viewBox="200 200 100 100" enable-background="new 200 200 100 100" xml:space="preserve">
<g transform="translate(0,-952.36218)">
	<path fill="#fff" d="M294.268,1166.678c-0.895,0.026-1.747,0.4-2.372,1.042c-35.743,35.742-40.242,41.128-61.009,61.979l-23.835-23.979
		c-1.253-1.436-3.434-1.583-4.87-0.33c-1.436,1.254-1.583,3.435-0.329,4.871c0.096,0.11,0.2,0.214,0.31,0.312l26.316,26.459
		c1.346,1.351,3.531,1.354,4.881,0.009c0.002-0.003,0.005-0.007,0.008-0.009c23.625-23.625,26.019-27.025,63.418-64.424
		c1.371-1.324,1.407-3.509,0.083-4.881C296.19,1167.026,295.245,1166.644,294.268,1166.678z"/>
</g>
</svg>
