<?xml version="1.0" encoding="utf-8"?>
<!-- Generator: Adobe Illustrator 16.0.0, SVG Export Plug-In . SVG Version: 6.00 Build 0)  -->
<!DOCTYPE svg PUBLIC "-//W3C//DTD SVG 1.1//EN" "http://www.w3.org/Graphics/SVG/1.1/DTD/svg11.dtd">
<svg version="1.1" id="Layer_1" xmlns="http://www.w3.org/2000/svg" xmlns:xlink="http://www.w3.org/1999/xlink" x="0px" y="0px"
	 width="500px" height="500px" viewBox="0 0 500 500" enable-background="new 0 0 500 500" xml:space="preserve">
<title>Artboard 5</title>
<path fill="#30CEE8" d="M93.48,141.36l42.16-93.72c3.73-8.298,11.981-13.637,21.08-13.64h191.44
	c9.099,0.003,17.35,5.342,21.08,13.64l42.16,93.72c12,26.64-5.561,58.2-34.761,60h-3.08c-17.238,0.04-32.968-9.824-40.439-25.36
	c-10.471,22.369-37.092,32.015-59.461,21.544c-9.247-4.329-16.735-11.691-21.22-20.864c-10.845,22.189-37.625,31.385-59.815,20.539
	c-9.173-4.484-16.536-11.972-20.865-21.219c-7.362,15.705-23.135,25.742-40.48,25.76h-3.08C99.04,199.56,81.48,168,93.48,141.36z
	 M257.08,358.32V317.68c0-4.264-3.457-7.72-7.72-7.72l0,0h-19.72c-4.232,0.044-7.64,3.487-7.64,7.72v40.641
	c0,4.264,3.457,7.72,7.72,7.72l0,0h19.72C253.672,365.996,257.08,362.553,257.08,358.32z M311.48,366c4.264,0,7.72-3.457,7.72-7.721
	l0,0V277.6c0-4.264-3.456-7.72-7.72-7.72l0,0H291.8c-4.264,0-7.72,3.456-7.72,7.72l0,0v80.721c0,4.264,3.456,7.72,7.72,7.72l0,0
	L311.48,366z M354,229.72c-4.264,0-7.72,3.456-7.72,7.72l0,0v120.88c0.021,4.248,3.472,7.68,7.72,7.68h19.72
	c4.264,0,7.721-3.457,7.721-7.721l0,0V237.4c0-4.264-3.457-7.72-7.721-7.72l0,0L354,229.72z M102.52,364.721h86.68
	c2.916,0,5.28-2.365,5.28-5.281v-26.6c0-2.916-2.364-5.279-5.28-5.279h-34.56V217.52c-7.432,2.912-15.339,4.417-23.32,4.44
	c-1.493,0-2.986,0-4.48,0c-3.15-0.215-6.279-0.67-9.36-1.36v106.96h-14.96c-10.261,0.476-18.194,9.18-17.718,19.441
	C85.248,356.598,92.925,364.275,102.52,364.721z"/>
</svg>
