<?xml version="1.0" encoding="utf-8"?>
<!-- Generator: Adobe Illustrator 16.0.0, SVG Export Plug-In . SVG Version: 6.00 Build 0)  -->
<!DOCTYPE svg PUBLIC "-//W3C//DTD SVG 1.1//EN" "http://www.w3.org/Graphics/SVG/1.1/DTD/svg11.dtd">
<svg version="1.1" id="Layer_1" xmlns="http://www.w3.org/2000/svg" xmlns:xlink="http://www.w3.org/1999/xlink" x="0px" y="0px"
	 width="500px" height="500px" viewBox="0 0 500 500" enable-background="new 0 0 500 500" xml:space="preserve">
<path fill="#30CEE8" d="M421.72,210.48c-18.6-9.2-41.68-2.76-51.72,14.28c-2.48,4.24-3.96,8.84-4.4,13.4l-76.119-37.68l75.64-39.04
	c0.68,4.08,2.12,8.16,4.479,11.92c10.24,16.92,33.561,23,51.92,13.48c18.4-9.44,24.961-30.88,14.641-47.84
	c-7.601-12.48-22.24-18.96-36.76-17.8c8.72-10.76,10.319-25.64,2.72-38.12c-10.32-16.96-33.561-23-51.96-13.48
	c-18.36,9.52-24.88,30.88-14.601,47.84c3.2,5.32,7.721,9.52,12.921,12.56L249.8,180.8l-99.52-49.24c5.16-3.16,9.6-7.4,12.72-12.8
	c9.96-17.08,3.04-38.36-15.56-47.6c-18.52-9.2-41.64-2.8-51.68,14.32c-7.36,12.56-5.52,27.44,3.4,38.08
	c-14.52-1-29.04,5.8-36.4,18.4c-10,17.04-3.04,38.36,15.52,47.6c18.6,9.16,41.68,2.8,51.64-14.32c2.28-3.84,3.64-7.84,4.2-11.92
	l76.36,37.84L135.12,240c-0.56-4.56-2.12-9.08-4.68-13.36c-10.24-16.88-33.48-22.92-51.92-13.48c-18.4,9.52-24.96,30.88-14.64,47.84
	c7.6,12.48,22.24,19.04,36.76,17.8c-8.72,10.761-10.32,25.72-2.72,38.12c10.32,16.92,33.56,23,51.96,13.48
	c18.36-9.44,24.96-30.881,14.6-47.76c-2.92-4.841-6.92-8.761-11.56-11.721l97.28-50.16l98.24,48.641
	c-4.641,3.039-8.601,7.039-11.44,11.92c-9.96,17.039-3,38.279,15.56,47.479c18.601,9.2,41.721,2.8,51.681-14.28
	c7.399-12.6,5.52-27.439-3.4-38.08c14.521,0.92,29.04-5.799,36.4-18.399C447.24,240.92,440.24,219.68,421.72,210.48L421.72,210.48z"
	/>
</svg>
