<?xml version="1.0" encoding="utf-8"?>
<!-- Generator: Adobe Illustrator 16.0.0, SVG Export Plug-In . SVG Version: 6.00 Build 0)  -->
<!DOCTYPE svg PUBLIC "-//W3C//DTD SVG 1.1//EN" "http://www.w3.org/Graphics/SVG/1.1/DTD/svg11.dtd">
<svg version="1.1" id="Layer_1" xmlns="http://www.w3.org/2000/svg" xmlns:xlink="http://www.w3.org/1999/xlink" x="0px" y="0px"
	 width="500px" height="500px" viewBox="0 0 500 500" enable-background="new 0 0 500 500" xml:space="preserve">
<title>3Artboard 68</title>
<path fill="#30CEE8" d="M394,8H202c-26.51,0-48,21.49-48,48v264c0,13.255-10.745,24-24,24l0,0c-13.255,0-24-10.745-24-24V176
	c0-13.255-10.745-24-24-24l0,0c-13.255,0-24,10.745-24,24v144c0,39.766,32.235,72,72,72h252c33.137,0,60-26.863,60-60l0,0V56
	C442,29.49,420.51,8,394,8z M328,320H214v-36h114V320z M382,248H214v-36h168V248z M328,176H214v-36h114V176z M382,104H214V68h168
	V104z"/>
</svg>
