<?xml version="1.0" encoding="utf-8"?>
<!-- Generator: Adobe Illustrator 16.0.0, SVG Export Plug-In . SVG Version: 6.00 Build 0)  -->
<!DOCTYPE svg PUBLIC "-//W3C//DTD SVG 1.1//EN" "http://www.w3.org/Graphics/SVG/1.1/DTD/svg11.dtd">
<svg version="1.1" id="Layer_1" xmlns="http://www.w3.org/2000/svg" xmlns:xlink="http://www.w3.org/1999/xlink" x="0px" y="0px"
	 width="500px" height="500px" viewBox="0 0 500 500" enable-background="new 0 0 500 500" xml:space="preserve">
<path fill="#D9534F" d="M216.667,108.303v18.359c-29.681,15.173-50,46.049-50,81.672c0,50.625,41.041,91.667,91.667,91.667
	S350,258.959,350,208.333c0-35.623-20.319-66.499-50-81.672v-18.359c39.149,16.326,66.666,54.965,66.666,100.031
	c0,59.831-48.502,108.333-108.333,108.333S150,268.164,150,208.333C150,163.268,177.518,124.629,216.667,108.303z M250,83.333
	h16.666v100H250V83.333z"/>
<text transform="matrix(1 0 0 1 50 650)" font-family="'HelveticaNeue-Bold'" font-size="83.3333">Created by Eugene C.</text>
<text transform="matrix(1 0 0 1 50 733.3281)" font-family="'HelveticaNeue-Bold'" font-size="83.3333">from the Noun Project</text>
</svg>
