<?xml version="1.0" encoding="utf-8"?>
<!-- Generator: Adobe Illustrator 16.0.0, SVG Export Plug-In . SVG Version: 6.00 Build 0)  -->
<!DOCTYPE svg PUBLIC "-//W3C//DTD SVG 1.1//EN" "http://www.w3.org/Graphics/SVG/1.1/DTD/svg11.dtd">
<svg version="1.1" id="Layer_1" xmlns="http://www.w3.org/2000/svg" xmlns:xlink="http://www.w3.org/1999/xlink" x="0px" y="0px"
	 width="159.333px" height="76px" viewBox="0 0 159.333 76" enable-background="new 0 0 159.333 76" xml:space="preserve">
<text transform="matrix(1 0 0 1 4.4263 48.5327)" fill="#333333" font-family="'Arial-BoldMT'" font-size="24.7433">C</text>
<text transform="matrix(1 0 0 1 47.2173 49.6108)" fill="#333333" font-family="'Arial-BoldMT'" font-size="24.7433">IN</text>
<text transform="matrix(1 0 0 1 101.1558 49.6108)" fill="#333333" font-family="'ArialMT'" font-size="24.7433">PRO</text>
<circle fill="none" stroke="#30CEE8" stroke-width="4" stroke-miterlimit="10" cx="35.069" cy="39.223" r="7.844"/>
<circle fill="#30CEE8" cx="35.068" cy="39.222" r="2.84"/>
<path fill="#30CEE8" d="M34.381,32.604c0,0.361-0.29,0.653-0.651,0.653l0,0c-0.36,0-0.652-0.292-0.652-0.653v-4.913
	c0-0.361,0.292-0.653,0.652-0.653l0,0c0.361,0,0.651,0.292,0.651,0.653V32.604z"/>
<path fill="#30CEE8" d="M37.453,32.604c0,0.361-0.291,0.653-0.652,0.653l0,0c-0.359,0-0.653-0.292-0.653-0.653v-4.913
	c0-0.361,0.294-0.653,0.653-0.653l0,0c0.361,0,0.652,0.292,0.652,0.653V32.604z"/>
<path fill="#30CEE8" d="M34.381,50.943c0,0.361-0.29,0.653-0.651,0.653l0,0c-0.36,0-0.652-0.292-0.652-0.653v-4.914
	c0-0.359,0.292-0.65,0.652-0.65l0,0c0.361,0,0.651,0.291,0.651,0.65V50.943z"/>
<path fill="#30CEE8" d="M37.453,50.943c0,0.361-0.291,0.653-0.652,0.653l0,0c-0.359,0-0.653-0.292-0.653-0.653v-4.914
	c0-0.359,0.294-0.65,0.653-0.65l0,0c0.361,0,0.652,0.291,0.652,0.65V50.943z"/>
<polygon fill="#30CEE8" points="79.399,31.288 85.396,39.118 98.458,22.567 95.176,22.567 85.667,34.399 83.413,31.288 "/>
<polygon fill="#30CEE8" points="93.397,49.378 86.831,40.624 102.564,19.831 96.727,19.786 109.333,13.196 110.77,20.014 
	106.119,19.968 90.319,40.76 96.817,49.378 "/>
<g>
	<polygon fill="#30CEE8" points="91.071,49.208 85.257,41.548 72.193,58.099 75.476,58.099 84.985,46.267 87.24,49.378 	"/>
	<polygon fill="#30CEE8" points="77.256,31.288 83.821,40.043 68.088,60.835 73.925,60.88 61.32,67.47 59.882,60.652 64.537,60.699 
		80.333,39.906 73.836,31.288 	"/>
</g>
</svg>
