<?xml version="1.0" encoding="utf-8"?>
<!-- Generator: Adobe Illustrator 16.0.0, SVG Export Plug-In . SVG Version: 6.00 Build 0)  -->
<!DOCTYPE svg PUBLIC "-//W3C//DTD SVG 1.1//EN" "http://www.w3.org/Graphics/SVG/1.1/DTD/svg11.dtd">
<svg version="1.1"
	 id="Layer_1" xmlns:cc="http://creativecommons.org/ns#" xmlns:svg="http://www.w3.org/2000/svg" xmlns:sodipodi="http://sodipodi.sourceforge.net/DTD/sodipodi-0.dtd" xmlns:dc="http://purl.org/dc/elements/1.1/" xmlns:inkscape="http://www.inkscape.org/namespaces/inkscape" xmlns:rdf="http://www.w3.org/1999/02/22-rdf-syntax-ns#"
	 xmlns="http://www.w3.org/2000/svg" xmlns:xlink="http://www.w3.org/1999/xlink" x="0px" y="0px" width="500px" height="500px"
	 viewBox="0 0 500 500" enable-background="new 0 0 500 500" xml:space="preserve">
<g transform="translate(0,-952.36218)">
	<path fill="#D56D6A" d="M249.75,972.382c-1.649,0.04-3.177,0.364-4.625,1l-148,65.375c-4.223,1.878-7.138,6.379-7.125,11
		c0,91.189,20.145,151.127,50,193.375c29.855,42.246,68.694,66.27,103.75,87.5c3.741,2.282,8.759,2.282,12.5,0
		c35.057-21.23,73.892-45.254,103.75-87.5c29.858-42.247,50-102.185,50-193.375c0-4.621-2.902-9.122-7.125-11l-148-65.375
		C253.17,972.647,251.399,972.357,249.75,972.382z M249.998,997.382l135.625,60c-1.156,82.847-19.446,135.49-45.25,172
		c-25.058,35.454-57.562,56.739-90.375,76.75c-32.811-20.011-65.446-41.297-90.5-76.75c-25.8-36.509-43.969-89.152-45.125-172
		L249.998,997.382L249.998,997.382z M249.998,1068.382c-8.795,0-15.933,7.097-16,15.875c1.442,28.752,2.922,58.281,4,84.125
		c0,6.627,5.373,12,12,12c6.627,0,12-5.373,12-12c1.033-27.878,2.614-56.035,4-84
		C265.998,1075.546,258.834,1068.382,249.998,1068.382L249.998,1068.382z M249.998,1188.382c-8.836,0-16,7.164-16,16
		c0,8.836,7.164,16,16,16c8.836,0,16-7.164,16-16C265.998,1195.545,258.834,1188.382,249.998,1188.382z"/>
</g>
</svg>
