<?xml version="1.0" encoding="utf-8"?>
<!-- Generator: Adobe Illustrator 16.0.0, SVG Export Plug-In . SVG Version: 6.00 Build 0)  -->
<!DOCTYPE svg PUBLIC "-//W3C//DTD SVG 1.1//EN" "http://www.w3.org/Graphics/SVG/1.1/DTD/svg11.dtd">
<svg version="1.1" id="Layer_1" xmlns="http://www.w3.org/2000/svg" xmlns:xlink="http://www.w3.org/1999/xlink" x="0px" y="0px"
	 width="50px" height="50px" viewBox="450 450 100 100" enable-background="new 450 450 100 100" xml:space="preserve">
<path fill="#FFFFFF" d="M500.75,470.798h-43.967c-0.828,0-1.499-0.672-1.499-1.499v-12.516c0-0.828,0.671-1.499,1.499-1.499h43.967
	c0.827,0,1.499,0.672,1.499,1.499v12.516C502.249,470.126,501.577,470.798,500.75,470.798z M458.282,467.799h40.969v-9.518h-40.969
	V467.799z"/>
<path fill="#FFFFFF" d="M513.24,546.216c-18.183,0-32.976-14.792-32.976-32.976s14.793-32.975,32.976-32.975
	c18.184,0.001,32.976,14.792,32.976,32.976C546.216,531.424,531.424,546.216,513.24,546.216z M513.24,483.264
	c-16.529,0-29.977,13.448-29.977,29.978c0,16.53,13.448,29.979,29.977,29.979s29.979-13.449,29.979-29.979
	S529.771,483.264,513.24,483.264z"/>
<path fill="#FFFFFF" d="M513.24,536.672c-12.918,0-23.428-10.512-23.428-23.431c0-12.918,10.51-23.429,23.428-23.429
	c12.92,0,23.43,10.511,23.43,23.429C536.672,526.16,526.16,536.672,513.24,536.672z M513.24,492.81
	c-11.265,0-20.431,9.165-20.431,20.432s9.166,20.433,20.431,20.433c11.267,0,20.432-9.166,20.432-20.433
	S524.508,492.81,513.24,492.81z"/>
<path fill="#FFFFFF" d="M487.957,495.991h-31.174c-0.828,0-1.499-0.671-1.499-1.498v-12.517c0-0.829,0.671-1.499,1.499-1.499h43.967
	c0.827,0,1.499,0.671,1.499,1.499v2.369c0,0.598-0.355,1.139-0.903,1.376c-4.827,2.089-9.041,5.431-12.187,9.665
	C488.879,495.767,488.433,495.991,487.957,495.991z M458.282,492.994h28.934c3.153-4.049,7.215-7.313,11.831-9.519h-40.765V492.994z
	"/>
<path fill="#FFFFFF" d="M482.384,508.507h-25.602c-0.828,0-1.499-0.67-1.499-1.499v-12.515c0-0.829,0.671-1.499,1.499-1.499h31.173
	c0.568,0,1.085,0.318,1.34,0.826c0.255,0.505,0.201,1.112-0.137,1.566c-2.649,3.568-4.436,7.578-5.306,11.918
	C483.714,508.003,483.099,508.507,482.384,508.507z M458.282,505.51h22.897c0.81-3.381,2.134-6.568,3.952-9.519h-26.85V505.51z"/>
<path fill="#FFFFFF" d="M482.392,521.022h-25.609c-0.828,0-1.499-0.669-1.499-1.498v-12.517c0-0.828,0.671-1.498,1.499-1.498h25.602
	c0.448,0,0.874,0.202,1.159,0.549c0.285,0.347,0.398,0.805,0.311,1.244c-0.394,1.95-0.591,3.949-0.591,5.938
	c0,2.011,0.201,4.023,0.599,5.985c0.089,0.441-0.023,0.898-0.31,1.246C483.268,520.821,482.843,521.022,482.392,521.022z
	 M458.282,518.026h22.331c-0.231-1.582-0.347-3.185-0.347-4.785c0-1.58,0.113-3.166,0.339-4.734h-22.322V518.026z"/>
<path fill="#FFFFFF" d="M488.119,533.701h-31.336c-0.828,0-1.499-0.671-1.499-1.5v-12.516c0-0.828,0.671-1.498,1.499-1.498h25.645
	c0.709,0,1.322,0.498,1.466,1.193c0.905,4.347,2.728,8.356,5.418,11.918c0.344,0.453,0.4,1.062,0.148,1.572
	C489.206,533.379,488.688,533.701,488.119,533.701z M458.282,530.703h26.982c-1.847-2.946-3.198-6.134-4.034-9.519h-22.949V530.703z
	"/>
<path fill="#FFFFFF" d="M500.75,546.216h-43.967c-0.828,0-1.499-0.67-1.499-1.498v-12.517c0-0.828,0.671-1.498,1.499-1.498h31.336
	c0.469,0,0.912,0.221,1.194,0.595c3.128,4.137,7.29,7.409,12.034,9.463c0.549,0.236,0.903,0.778,0.903,1.376v2.581
	C502.249,545.546,501.577,546.216,500.75,546.216z M458.282,543.22h40.969v-0.115c-4.616-2.168-8.692-5.396-11.868-9.404h-29.101
	V543.22z"/>
<g>
	<path fill="#FFFFFF" d="M511.986,528.394v-3.727c-2.14-0.035-4.355-0.702-5.648-1.626l0.887-2.51
		c1.329,0.926,3.25,1.627,5.279,1.627c2.66,0,4.43-1.515,4.43-3.583c0-2.064-1.438-3.32-4.171-4.426
		c-3.764-1.479-6.126-3.177-6.126-6.389c0-3.062,2.212-5.388,5.573-5.98v-3.689h2.326v3.583c2.214,0.071,3.727,0.664,4.76,1.327
		l-0.848,2.434c-0.814-0.477-2.361-1.292-4.688-1.292c-2.844,0-3.914,1.699-3.914,3.179c0,1.917,1.365,2.879,4.577,4.243
		c3.803,1.551,5.72,3.432,5.72,6.717c0,2.916-2.029,5.647-5.867,6.274v3.838H511.986L511.986,528.394z"/>
</g>
<path fill="#FFFFFF" d="M511.492,483.314h-42.718c-0.827,0-1.498-0.672-1.498-1.498v-12.517c0-0.828,0.671-1.499,1.498-1.499h43.968
	c0.827,0,1.499,0.672,1.499,1.499v12.479c0,0.819-0.657,1.487-1.477,1.498c-0.399,0.006-0.796,0.015-1.19,0.037
	C511.547,483.313,511.52,483.314,511.492,483.314z M470.273,480.315h40.97v-9.518h-40.97V480.315z"/>
</svg>
