<?xml version="1.0" encoding="UTF-8" standalone="no"?>
<!-- Generator: Adobe Illustrator 16.0.0, SVG Export Plug-In . SVG Version: 6.00 Build 0)  -->

<svg
   xmlns:dc="http://purl.org/dc/elements/1.1/"
   xmlns:cc="http://creativecommons.org/ns#"
   xmlns:rdf="http://www.w3.org/1999/02/22-rdf-syntax-ns#"
   xmlns:svg="http://www.w3.org/2000/svg"
   xmlns="http://www.w3.org/2000/svg"
   xmlns:sodipodi="http://sodipodi.sourceforge.net/DTD/sodipodi-0.dtd"
   xmlns:inkscape="http://www.inkscape.org/namespaces/inkscape"
   version="1.1"
   id="Layer_1"
   x="0px"
   y="0px"
   width="95"
   height="95"
   viewBox="0 0 95 95"
   enable-background="new 0 0 100 100"
   xml:space="preserve"
   inkscape:version="0.91 r13725"
   sodipodi:docname="search-main-icon.svg"><metadata
     id="metadata3391"><rdf:RDF><cc:Work
         rdf:about=""><dc:format>image/svg+xml</dc:format><dc:type
           rdf:resource="http://purl.org/dc/dcmitype/StillImage" /><dc:title>66 all</dc:title></cc:Work></rdf:RDF></metadata><defs
     id="defs3389" /><sodipodi:namedview
     pagecolor="#ffffff"
     bordercolor="#666666"
     borderopacity="1"
     objecttolerance="10"
     gridtolerance="10"
     guidetolerance="10"
     inkscape:pageopacity="0"
     inkscape:pageshadow="2"
     inkscape:window-width="1301"
     inkscape:window-height="744"
     id="namedview3387"
     showgrid="false"
     inkscape:zoom="6.07"
     inkscape:cx="50"
     inkscape:cy="50"
     inkscape:window-x="65"
     inkscape:window-y="24"
     inkscape:window-maximized="1"
     inkscape:current-layer="Layer_1" /><title
     id="title3383">66 all</title><path
     d="M 82.318186,80.313022 65.241817,63.782709 C 75.319023,52.395724 73.952659,35.255871 62.190008,25.501187 50.42665,15.746505 32.722049,17.069232 22.644133,28.456902 12.566927,39.843887 13.93471,56.983054 25.696651,66.739109 c 10.501935,8.708584 25.991422,8.708584 36.49194,0 l 17.07566,16.530314 c 0.842368,0.815465 2.208732,0.815465 3.053227,0 0.842367,-0.817523 0.842367,-2.14025 7.08e-4,-2.956401 l 0,0 z M 20.229064,46.135593 c 0,-12.687747 10.624604,-22.973717 23.730219,-22.973717 13.106326,0 23.731638,10.285284 23.731638,22.973717 0,12.688433 -10.623894,22.972345 -23.731638,22.972345 l 0,0 C 30.853668,69.10931 20.229064,58.824026 20.229064,46.135593 Z"
     id="path3385"
     inkscape:connector-curvature="0"
     style="fill:#b9b9b9" /></svg>