<?xml version="1.0" encoding="utf-8"?>
<!-- Generator: Adobe Illustrator 16.0.0, SVG Export Plug-In . SVG Version: 6.00 Build 0)  -->
<!DOCTYPE svg PUBLIC "-//W3C//DTD SVG 1.1//EN" "http://www.w3.org/Graphics/SVG/1.1/DTD/svg11.dtd">
<svg version="1.1" id="Layer_1" xmlns="http://www.w3.org/2000/svg" xmlns:xlink="http://www.w3.org/1999/xlink" x="0px" y="0px"
	 width="100px" height="100px" viewBox="0 0 100 100" enable-background="new 0 0 100 100" xml:space="preserve">
<g>
	<path fill="#333333" d="M50.366,2c-26.467,0-48,21.533-48,48c0,26.468,21.533,48,48,48c26.468,0,48-21.532,48-48
		C98.366,23.533,76.834,2,50.366,2z M48.059,25.493c-3.97-0.138-7.862-0.667-11.63-1.554c2.94-5.798,6.866-10.979,11.63-15.25
		V25.493z M48.059,29.781v17.581H30.336c0.303-6.814,1.76-13.402,4.25-19.451C38.939,29.002,43.452,29.631,48.059,29.781z
		 M48.059,51.65v17.581c-4.727,0.153-9.355,0.814-13.815,1.959c-2.388-6.099-3.746-12.712-3.935-19.54H48.059z M48.059,73.521
		v17.803c-5.007-4.491-9.101-9.984-12.085-16.144C39.882,74.227,43.928,73.663,48.059,73.521z M52.347,73.521
		c4.185,0.145,8.281,0.719,12.235,1.694c-3.017,6.214-7.161,11.751-12.235,16.263V73.521z M52.347,69.231V51.65h17.914
		c-0.189,6.842-1.551,13.468-3.947,19.577C61.81,70.061,57.13,69.386,52.347,69.231z M52.347,47.362V29.781
		c4.66-0.15,9.224-0.792,13.621-1.904c2.499,6.058,3.96,12.658,4.266,19.485H52.347z M52.347,25.493V8.549
		c4.828,4.287,8.802,9.509,11.774,15.357C60.31,24.813,56.369,25.353,52.347,25.493z M56.765,6.762
		c8.758,1.291,16.68,5.183,22.948,10.872c-3.576,2.116-7.388,3.822-11.374,5.098C65.4,16.739,61.502,11.317,56.765,6.762z
		 M32.206,22.774c-3.96-1.258-7.751-2.938-11.311-5.024c6.242-5.709,14.139-9.635,22.88-10.963
		C39.039,11.348,35.14,16.775,32.206,22.774z M30.457,26.721c-2.592,6.44-4.108,13.425-4.408,20.642H6.742
		c0.606-10.134,4.679-19.347,11.05-26.469C21.762,23.319,26.009,25.27,30.457,26.721z M26.02,51.65
		c0.188,7.237,1.604,14.256,4.1,20.749c-4.535,1.507-8.853,3.543-12.883,6.068c-6.25-7.265-10.158-16.595-10.54-26.817H26.02z
		 M31.8,76.365c2.973,6.337,7.006,12.068,11.962,16.848c-9.042-1.375-17.173-5.54-23.51-11.573
		C23.876,79.448,27.748,77.686,31.8,76.365z M68.753,76.41c4.074,1.34,7.964,3.127,11.602,5.349
		c-6.359,6.008-14.512,10.138-23.563,11.477C61.746,88.463,65.777,82.738,68.753,76.41z M70.434,72.446
		c2.507-6.507,3.928-13.541,4.116-20.796h19.485C93.652,61.935,89.698,71.315,83.38,78.6C79.334,76.04,74.993,73.975,70.434,72.446z
		 M74.521,47.362c-0.303-7.233-1.824-14.235-4.429-20.688c4.477-1.471,8.746-3.451,12.735-5.912
		c6.437,7.139,10.552,16.403,11.162,26.6H74.521z"/>
</g>
<rect fill="none" width="100" height="100"/>
</svg>
