<?xml version="1.0" encoding="utf-8"?>
<!-- Generator: Adobe Illustrator 16.0.0, SVG Export Plug-In . SVG Version: 6.00 Build 0)  -->
<!DOCTYPE svg PUBLIC "-//W3C//DTD SVG 1.1//EN" "http://www.w3.org/Graphics/SVG/1.1/DTD/svg11.dtd">
<svg version="1.1" id="Layer_1" xmlns="http://www.w3.org/2000/svg" xmlns:xlink="http://www.w3.org/1999/xlink" x="0px" y="0px"
	 width="100px" height="100px" viewBox="0 0 100 100" enable-background="new 0 0 100 100" xml:space="preserve">
<rect fill="none" width="100" height="100"/>
<g>
	<path fill="#333333" d="M66.511,46.813v-0.225c9.098-3.072,12.413-9.221,12.413-15.813c0-6.71-3.628-11.756-8.793-14.503
		c-2.855-1.692-5.873-2.75-9.685-3.384V6.032C60.446,4.358,59.092,3,57.414,3h-3.031c-1.678,0-3.033,1.355-3.033,3.032v6.104
		c-0.958-0.021-1.931-0.039-2.968-0.039c-1.862,0-3.976,0-6.128,0V6.032C42.253,4.358,40.897,3,39.221,3h-3.033
		c-1.676,0-3.032,1.355-3.032,3.032v6.065c-0.782,0-7.933,0-12.129,0c-1.674,0-3.033,1.358-3.033,3.032v3.032
		c0,1.673,1.356,3.032,3.033,3.032h6.064v57.612h-6.064c-1.674,0-3.033,1.356-3.033,3.033v3.035c0,1.674,1.356,3.029,3.033,3.029
		c4.193,0,11.343,0,12.129,0v6.065c0,1.676,1.355,3.031,3.032,3.031h3.033c1.674,0,3.032-1.355,3.032-3.031v-6.065
		c0.879,0,1.753,0,2.608,0c2.319,0,4.445-0.095,6.489-0.229v6.295c0,1.676,1.355,3.031,3.033,3.031h3.031
		c1.678,0,3.032-1.355,3.032-3.031v-7.487c5.998-1.246,10.404-3.23,13.53-5.725c4.615-3.734,7.481-9.007,7.481-15.704
		C81.458,55.488,75.608,49.124,66.511,46.813z M42.253,24.732c3.032-0.225,4.045-0.443,7.674-0.443
		c7.581,0,12.129,3.181,12.129,8.781c0,5.5-4.454,9.346-13.232,9.346h-6.571V24.732z M49.27,75.049c-2.854,0-3.985,0-7.017-0.214
		V54.549h6.783c8.354,0,14.783,2.665,14.783,10.139C63.819,72.488,56.851,75.049,49.27,75.049z"/>
</g>
</svg>
