<?xml version="1.0" encoding="UTF-8" standalone="no"?>
<svg
   xmlns:dc="http://purl.org/dc/elements/1.1/"
   xmlns:cc="http://creativecommons.org/ns#"
   xmlns:rdf="http://www.w3.org/1999/02/22-rdf-syntax-ns#"
   xmlns:svg="http://www.w3.org/2000/svg"
   xmlns="http://www.w3.org/2000/svg"
   xmlns:sodipodi="http://sodipodi.sourceforge.net/DTD/sodipodi-0.dtd"
   xmlns:inkscape="http://www.inkscape.org/namespaces/inkscape"
   version="1.1"
   x="0px"
   y="0px"
   viewBox="0 0 95 93"
   xml:space="preserve"
   id="svg2"
   inkscape:version="0.91 r13725"
   sodipodi:docname="noun_943924_cc.svg"
   width="95"
   height="93"><metadata
     id="metadata18"><rdf:RDF><cc:Work
         rdf:about=""><dc:format>image/svg+xml</dc:format><dc:type
           rdf:resource="http://purl.org/dc/dcmitype/StillImage" /><dc:title></dc:title></cc:Work></rdf:RDF></metadata><defs
     id="defs16" /><sodipodi:namedview
     pagecolor="#ffffff"
     bordercolor="#666666"
     borderopacity="1"
     objecttolerance="10"
     gridtolerance="10"
     guidetolerance="10"
     inkscape:pageopacity="0"
     inkscape:pageshadow="2"
     inkscape:window-width="1301"
     inkscape:window-height="744"
     id="namedview14"
     showgrid="false"
     inkscape:zoom="4.624125"
     inkscape:cx="50"
     inkscape:cy="62.5"
     inkscape:window-x="65"
     inkscape:window-y="24"
     inkscape:window-maximized="1"
     inkscape:current-layer="svg2" /><g
     id="g4"
     transform="translate(-2.26087,-3.2967813)"><path
       d="M 91,16.5 91,33 C 84,16.5 67.6,4.9 48.6,4.9 26.7,4.9 8.3,20.3 3.7,40.9 l 5.5,0 c 4.5,-17.6 20.4,-30.6 39.3,-30.6 17,0 31.5,10.5 37.6,25.4 l -14.3,0 0,5.4 24.6,0 0,-24.6 -5.4,0 z"
       id="path6"
       inkscape:connector-curvature="0" /><path
       d="M 51.5,89.7 C 34.5,89.7 20,79.2 13.9,64.3 l 14.3,0 0,-5.4 -24.6,0 0,24.6 5.4,0 L 9,67 c 7,16.5 23.4,28.1 42.4,28.1 21.9,0 40.3,-15.4 44.9,-36 l -5.5,0 C 86.4,76.6 70.4,89.7 51.5,89.7 Z"
       id="path8"
       inkscape:connector-curvature="0" /></g></svg>