<?xml version="1.0" encoding="utf-8"?>
<!-- Generator: Adobe Illustrator 16.0.0, SVG Export Plug-In . SVG Version: 6.00 Build 0)  -->
<!DOCTYPE svg PUBLIC "-//W3C//DTD SVG 1.1//EN" "http://www.w3.org/Graphics/SVG/1.1/DTD/svg11.dtd">
<svg version="1.1" id="Layer_1" xmlns="http://www.w3.org/2000/svg" xmlns:xlink="http://www.w3.org/1999/xlink" x="0px" y="0px"
	 width="50px" height="50px" viewBox="450 450 100 100" enable-background="new 450 450 100 100" xml:space="preserve">
<g>
	<path fill="#FFFFFF" d="M546.933,495.12L546.933,495.12l-0.115-7.296h0.115v-13.087c0-4.517-3.706-8.223-8.223-8.223h-2.778
		l-1.043-5.327c-0.348-1.853-1.39-3.474-2.896-4.517c-1.506-1.042-3.475-1.505-5.211-1.158l-56.4,10.423
		c-0.579,0.115-1.158,0.347-1.737,0.579h-7.064h-0.116c-3.822,0-7.064,3.127-7.064,7.065v60.801c0,4.517,3.706,8.223,8.223,8.223
		h75.972c4.517,0,8.223-3.706,8.223-8.223v-32.891L546.933,495.12z M544.964,501.489v19.804h-32.774
		c-2.548,0-4.632-2.085-4.632-4.633v-15.171c0-2.548,2.084-4.633,4.632-4.633h32.774V501.489z M538.71,468.251
		c3.591,0,6.486,2.896,6.486,6.485v7.181c-1.506-1.969-3.822-3.243-6.486-3.243h-0.463l-1.969-10.423H538.71z M470.613,467.672
		l56.4-10.422c1.39-0.231,2.779,0,3.938,0.811s1.969,1.969,2.2,3.358l3.243,17.256h-7.181l-2.2-12.045
		c-0.579-3.243-3.706-5.327-6.949-4.748l-46.208,8.57c-0.579,0.116-1.042,0.232-1.621,0.58l0,0
		c-2.316,1.158-3.706,3.821-3.127,6.369l0.231,1.274h-1.853l-0.927-4.98c-0.463-2.316,0.695-4.633,2.779-5.559l0,0
		C469.687,467.904,470.15,467.788,470.613,467.672z M471.077,478.675l-0.347-1.622c-0.348-1.737,0.579-3.59,2.2-4.401l-0.463-0.811
		l0.463,0.811c0.348-0.116,0.695-0.348,1.042-0.348l46.209-8.57c2.2-0.463,4.4,1.042,4.748,3.243l2.2,11.697H471.077
		L471.077,478.675z M461.464,468.251h4.749c-1.274,1.621-1.969,3.706-1.506,5.791l0.811,4.633h-4.053
		c-2.895,0-5.211-2.316-5.211-5.212C456.253,470.568,458.569,468.251,461.464,468.251z M544.964,534.264
		c0,3.59-2.896,6.485-6.485,6.485h-75.856c-3.59,0-6.485-2.896-6.485-6.485v-56.053c1.274,1.39,3.127,2.316,5.211,2.316h77.13
		c3.59,0,6.485,2.895,6.485,6.486v8.107h-32.774c-3.59,0-6.369,2.895-6.369,6.369v15.171c0,3.591,2.895,6.37,6.369,6.37h32.774
		V534.264z"/>
	<path fill="#FFFFFF" d="M518.212,515.387c3.475,0,6.254-2.779,6.254-6.254s-2.779-6.254-6.254-6.254s-6.254,2.779-6.254,6.254
		S514.737,515.387,518.212,515.387z M518.212,504.732c2.433,0,4.401,1.969,4.401,4.4s-1.969,4.4-4.401,4.4
		c-2.432,0-4.401-1.969-4.401-4.4S515.78,504.732,518.212,504.732z"/>
</g>
</svg>
